<?xml version="1.0" encoding="UTF-8"?>
<svg xmlns="http://www.w3.org/2000/svg" xmlns:xlink="http://www.w3.org/1999/xlink" width="800" height="800" viewBox="0 0 800 800">
<rect x="-80" y="-80" width="960" height="960" fill="rgb(100%, 100%, 100%)" fill-opacity="1"/>
<path fill-rule="nonzero" fill="rgb(100%, 100%, 100%)" fill-opacity="1" d="M 68 784 L 732 784 L 732 16 L 68 16 Z M 68 784 "/>
<path fill-rule="nonzero" fill="rgb(17.254902%, 16.470589%, 29.019609%)" fill-opacity="1" d="M 205.613281 473.949219 L 247.171875 497.660156 L 304.871094 498.570312 L 355.203125 466.390625 L 400 417.023438 L 400 382.976562 L 355.203125 333.609375 L 304.871094 301.429688 L 247.171875 302.339844 L 205.613281 326.050781 L 174.46875 374.644531 L 174.46875 425.355469 Z M 205.613281 473.949219 "/>
<path fill="none" stroke-width="0.5" stroke-linecap="butt" stroke-linejoin="miter" stroke="rgb(100%, 100%, 100%)" stroke-opacity="1" stroke-miterlimit="2" d="M 205.613281 473.949219 L 247.171875 497.660156 "/>
<path fill="none" stroke-width="0.5" stroke-linecap="butt" stroke-linejoin="miter" stroke="rgb(100%, 100%, 100%)" stroke-opacity="1" stroke-miterlimit="2" d="M 247.171875 497.660156 L 304.871094 498.570312 "/>
<path fill="none" stroke-width="0.5" stroke-linecap="butt" stroke-linejoin="miter" stroke="rgb(100%, 100%, 100%)" stroke-opacity="1" stroke-miterlimit="2" d="M 304.871094 498.570312 L 355.203125 466.390625 "/>
<path fill="none" stroke-width="0.5" stroke-linecap="butt" stroke-linejoin="miter" stroke="rgb(100%, 100%, 100%)" stroke-opacity="1" stroke-miterlimit="2" d="M 355.203125 466.390625 L 400 417.023438 "/>
<path fill="none" stroke-width="0.5" stroke-linecap="butt" stroke-linejoin="miter" stroke="rgb(100%, 100%, 100%)" stroke-opacity="1" stroke-miterlimit="2" d="M 400 417.023438 L 400 382.976562 "/>
<path fill="none" stroke-width="0.5" stroke-linecap="butt" stroke-linejoin="miter" stroke="rgb(100%, 100%, 100%)" stroke-opacity="1" stroke-miterlimit="2" d="M 400 382.976562 L 355.203125 333.609375 "/>
<path fill="none" stroke-width="0.5" stroke-linecap="butt" stroke-linejoin="miter" stroke="rgb(100%, 100%, 100%)" stroke-opacity="1" stroke-miterlimit="2" d="M 355.203125 333.609375 L 304.871094 301.429688 "/>
<path fill="none" stroke-width="0.5" stroke-linecap="butt" stroke-linejoin="miter" stroke="rgb(100%, 100%, 100%)" stroke-opacity="1" stroke-miterlimit="2" d="M 304.871094 301.429688 L 247.171875 302.339844 "/>
<path fill="none" stroke-width="0.5" stroke-linecap="butt" stroke-linejoin="miter" stroke="rgb(100%, 100%, 100%)" stroke-opacity="1" stroke-miterlimit="2" d="M 247.171875 302.339844 L 205.613281 326.050781 "/>
<path fill="none" stroke-width="0.5" stroke-linecap="butt" stroke-linejoin="miter" stroke="rgb(100%, 100%, 100%)" stroke-opacity="1" stroke-miterlimit="2" d="M 205.613281 326.050781 L 174.46875 374.644531 "/>
<path fill="none" stroke-width="0.5" stroke-linecap="butt" stroke-linejoin="miter" stroke="rgb(100%, 100%, 100%)" stroke-opacity="1" stroke-miterlimit="2" d="M 174.46875 374.644531 L 174.46875 425.355469 "/>
<path fill="none" stroke-width="0.5" stroke-linecap="butt" stroke-linejoin="miter" stroke="rgb(100%, 100%, 100%)" stroke-opacity="1" stroke-miterlimit="2" d="M 174.46875 425.355469 L 205.613281 473.949219 "/>
<path fill-rule="nonzero" fill="rgb(85.490197%, 74.901962%, 100%)" fill-opacity="1" d="M 361.9375 547.464844 L 304.871094 498.570312 L 307.230469 585.164062 Z M 361.9375 547.464844 "/>
<path fill="none" stroke-width="0.5" stroke-linecap="butt" stroke-linejoin="miter" stroke="rgb(100%, 100%, 100%)" stroke-opacity="1" stroke-miterlimit="2" d="M 361.9375 547.464844 L 304.871094 498.570312 "/>
<path fill="none" stroke-width="0.5" stroke-linecap="butt" stroke-linejoin="miter" stroke="rgb(100%, 100%, 100%)" stroke-opacity="1" stroke-miterlimit="2" d="M 304.871094 498.570312 L 307.230469 585.164062 "/>
<path fill="none" stroke-width="0.5" stroke-linecap="butt" stroke-linejoin="miter" stroke="rgb(100%, 100%, 100%)" stroke-opacity="1" stroke-miterlimit="2" d="M 307.230469 585.164062 L 361.9375 547.464844 "/>
<path fill-rule="nonzero" fill="rgb(85.490197%, 74.901962%, 100%)" fill-opacity="1" d="M 366.148438 172.878906 L 400 110.5625 L 332.710938 111.066406 Z M 366.148438 172.878906 "/>
<path fill="none" stroke-width="0.5" stroke-linecap="butt" stroke-linejoin="miter" stroke="rgb(100%, 100%, 100%)" stroke-opacity="1" stroke-miterlimit="2" d="M 366.148438 172.878906 L 400 110.5625 "/>
<path fill="none" stroke-width="0.5" stroke-linecap="butt" stroke-linejoin="miter" stroke="rgb(100%, 100%, 100%)" stroke-opacity="1" stroke-miterlimit="2" d="M 400 110.5625 L 332.710938 111.066406 "/>
<path fill="none" stroke-width="0.5" stroke-linecap="butt" stroke-linejoin="miter" stroke="rgb(100%, 100%, 100%)" stroke-opacity="1" stroke-miterlimit="2" d="M 332.710938 111.066406 L 366.148438 172.878906 "/>
<path fill-rule="nonzero" fill="rgb(56.470591%, 47.843137%, 83.92157%)" fill-opacity="1" d="M 492.769531 585.164062 L 559.90625 585.257812 L 552.828125 497.660156 L 495.128906 498.570312 Z M 492.769531 585.164062 "/>
<path fill="none" stroke-width="0.5" stroke-linecap="butt" stroke-linejoin="miter" stroke="rgb(100%, 100%, 100%)" stroke-opacity="1" stroke-miterlimit="2" d="M 492.769531 585.164062 L 559.90625 585.257812 "/>
<path fill="none" stroke-width="0.5" stroke-linecap="butt" stroke-linejoin="miter" stroke="rgb(100%, 100%, 100%)" stroke-opacity="1" stroke-miterlimit="2" d="M 559.90625 585.257812 L 552.828125 497.660156 "/>
<path fill="none" stroke-width="0.5" stroke-linecap="butt" stroke-linejoin="miter" stroke="rgb(100%, 100%, 100%)" stroke-opacity="1" stroke-miterlimit="2" d="M 552.828125 497.660156 L 495.128906 498.570312 "/>
<path fill="none" stroke-width="0.5" stroke-linecap="butt" stroke-linejoin="miter" stroke="rgb(100%, 100%, 100%)" stroke-opacity="1" stroke-miterlimit="2" d="M 495.128906 498.570312 L 492.769531 585.164062 "/>
<path fill-rule="nonzero" fill="rgb(85.490197%, 74.901962%, 100%)" fill-opacity="1" d="M 400 689.4375 L 366.148438 627.121094 L 332.710938 688.933594 Z M 400 689.4375 "/>
<path fill="none" stroke-width="0.5" stroke-linecap="butt" stroke-linejoin="miter" stroke="rgb(100%, 100%, 100%)" stroke-opacity="1" stroke-miterlimit="2" d="M 400 689.4375 L 366.148438 627.121094 "/>
<path fill="none" stroke-width="0.5" stroke-linecap="butt" stroke-linejoin="miter" stroke="rgb(100%, 100%, 100%)" stroke-opacity="1" stroke-miterlimit="2" d="M 366.148438 627.121094 L 332.710938 688.933594 "/>
<path fill="none" stroke-width="0.5" stroke-linecap="butt" stroke-linejoin="miter" stroke="rgb(100%, 100%, 100%)" stroke-opacity="1" stroke-miterlimit="2" d="M 332.710938 688.933594 L 400 689.4375 "/>
<path fill-rule="nonzero" fill="rgb(85.490197%, 74.901962%, 100%)" fill-opacity="1" d="M 433.851562 172.878906 L 467.289062 111.066406 L 400 110.5625 Z M 433.851562 172.878906 "/>
<path fill="none" stroke-width="0.5" stroke-linecap="butt" stroke-linejoin="miter" stroke="rgb(100%, 100%, 100%)" stroke-opacity="1" stroke-miterlimit="2" d="M 433.851562 172.878906 L 467.289062 111.066406 "/>
<path fill="none" stroke-width="0.5" stroke-linecap="butt" stroke-linejoin="miter" stroke="rgb(100%, 100%, 100%)" stroke-opacity="1" stroke-miterlimit="2" d="M 467.289062 111.066406 L 400 110.5625 "/>
<path fill="none" stroke-width="0.5" stroke-linecap="butt" stroke-linejoin="miter" stroke="rgb(100%, 100%, 100%)" stroke-opacity="1" stroke-miterlimit="2" d="M 400 110.5625 L 433.851562 172.878906 "/>
<path fill-rule="nonzero" fill="rgb(56.470591%, 47.843137%, 83.92157%)" fill-opacity="1" d="M 552.828125 302.339844 L 559.90625 214.742188 L 492.769531 214.835938 L 495.128906 301.429688 Z M 552.828125 302.339844 "/>
<path fill="none" stroke-width="0.5" stroke-linecap="butt" stroke-linejoin="miter" stroke="rgb(100%, 100%, 100%)" stroke-opacity="1" stroke-miterlimit="2" d="M 552.828125 302.339844 L 559.90625 214.742188 "/>
<path fill="none" stroke-width="0.5" stroke-linecap="butt" stroke-linejoin="miter" stroke="rgb(100%, 100%, 100%)" stroke-opacity="1" stroke-miterlimit="2" d="M 559.90625 214.742188 L 492.769531 214.835938 "/>
<path fill="none" stroke-width="0.5" stroke-linecap="butt" stroke-linejoin="miter" stroke="rgb(100%, 100%, 100%)" stroke-opacity="1" stroke-miterlimit="2" d="M 492.769531 214.835938 L 495.128906 301.429688 "/>
<path fill="none" stroke-width="0.5" stroke-linecap="butt" stroke-linejoin="miter" stroke="rgb(100%, 100%, 100%)" stroke-opacity="1" stroke-miterlimit="2" d="M 495.128906 301.429688 L 552.828125 302.339844 "/>
<path fill-rule="nonzero" fill="rgb(85.490197%, 74.901962%, 100%)" fill-opacity="1" d="M 433.734375 749.089844 L 467.289062 688.933594 L 400 689.4375 Z M 433.734375 749.089844 "/>
<path fill="none" stroke-width="0.5" stroke-linecap="butt" stroke-linejoin="miter" stroke="rgb(100%, 100%, 100%)" stroke-opacity="1" stroke-miterlimit="2" d="M 433.734375 749.089844 L 467.289062 688.933594 "/>
<path fill="none" stroke-width="0.5" stroke-linecap="butt" stroke-linejoin="miter" stroke="rgb(100%, 100%, 100%)" stroke-opacity="1" stroke-miterlimit="2" d="M 467.289062 688.933594 L 400 689.4375 "/>
<path fill="none" stroke-width="0.5" stroke-linecap="butt" stroke-linejoin="miter" stroke="rgb(100%, 100%, 100%)" stroke-opacity="1" stroke-miterlimit="2" d="M 400 689.4375 L 433.734375 749.089844 "/>
<path fill-rule="nonzero" fill="rgb(85.490197%, 74.901962%, 100%)" fill-opacity="1" d="M 438.0625 547.464844 L 495.128906 498.570312 L 444.796875 466.390625 Z M 438.0625 547.464844 "/>
<path fill="none" stroke-width="0.5" stroke-linecap="butt" stroke-linejoin="miter" stroke="rgb(100%, 100%, 100%)" stroke-opacity="1" stroke-miterlimit="2" d="M 438.0625 547.464844 L 495.128906 498.570312 "/>
<path fill="none" stroke-width="0.5" stroke-linecap="butt" stroke-linejoin="miter" stroke="rgb(100%, 100%, 100%)" stroke-opacity="1" stroke-miterlimit="2" d="M 495.128906 498.570312 L 444.796875 466.390625 "/>
<path fill="none" stroke-width="0.5" stroke-linecap="butt" stroke-linejoin="miter" stroke="rgb(100%, 100%, 100%)" stroke-opacity="1" stroke-miterlimit="2" d="M 444.796875 466.390625 L 438.0625 547.464844 "/>
<path fill-rule="nonzero" fill="rgb(85.490197%, 74.901962%, 100%)" fill-opacity="1" d="M 495.128906 301.429688 L 438.0625 252.535156 L 444.796875 333.609375 Z M 495.128906 301.429688 "/>
<path fill="none" stroke-width="0.5" stroke-linecap="butt" stroke-linejoin="miter" stroke="rgb(100%, 100%, 100%)" stroke-opacity="1" stroke-miterlimit="2" d="M 495.128906 301.429688 L 438.0625 252.535156 "/>
<path fill="none" stroke-width="0.5" stroke-linecap="butt" stroke-linejoin="miter" stroke="rgb(100%, 100%, 100%)" stroke-opacity="1" stroke-miterlimit="2" d="M 438.0625 252.535156 L 444.796875 333.609375 "/>
<path fill="none" stroke-width="0.5" stroke-linecap="butt" stroke-linejoin="miter" stroke="rgb(100%, 100%, 100%)" stroke-opacity="1" stroke-miterlimit="2" d="M 444.796875 333.609375 L 495.128906 301.429688 "/>
<path fill-rule="nonzero" fill="rgb(56.470591%, 47.843137%, 83.92157%)" fill-opacity="1" d="M 467.289062 688.933594 L 527.3125 653.179688 L 492.769531 585.164062 L 433.851562 627.121094 Z M 467.289062 688.933594 "/>
<path fill="none" stroke-width="0.5" stroke-linecap="butt" stroke-linejoin="miter" stroke="rgb(100%, 100%, 100%)" stroke-opacity="1" stroke-miterlimit="2" d="M 467.289062 688.933594 L 527.3125 653.179688 "/>
<path fill="none" stroke-width="0.5" stroke-linecap="butt" stroke-linejoin="miter" stroke="rgb(100%, 100%, 100%)" stroke-opacity="1" stroke-miterlimit="2" d="M 527.3125 653.179688 L 492.769531 585.164062 "/>
<path fill="none" stroke-width="0.5" stroke-linecap="butt" stroke-linejoin="miter" stroke="rgb(100%, 100%, 100%)" stroke-opacity="1" stroke-miterlimit="2" d="M 492.769531 585.164062 L 433.851562 627.121094 "/>
<path fill="none" stroke-width="0.5" stroke-linecap="butt" stroke-linejoin="miter" stroke="rgb(100%, 100%, 100%)" stroke-opacity="1" stroke-miterlimit="2" d="M 433.851562 627.121094 L 467.289062 688.933594 "/>
<path fill-rule="nonzero" fill="rgb(56.470591%, 47.843137%, 83.92157%)" fill-opacity="1" d="M 304.871094 301.429688 L 307.230469 214.835938 L 240.09375 214.742188 L 247.171875 302.339844 Z M 304.871094 301.429688 "/>
<path fill="none" stroke-width="0.5" stroke-linecap="butt" stroke-linejoin="miter" stroke="rgb(100%, 100%, 100%)" stroke-opacity="1" stroke-miterlimit="2" d="M 304.871094 301.429688 L 307.230469 214.835938 "/>
<path fill="none" stroke-width="0.5" stroke-linecap="butt" stroke-linejoin="miter" stroke="rgb(100%, 100%, 100%)" stroke-opacity="1" stroke-miterlimit="2" d="M 307.230469 214.835938 L 240.09375 214.742188 "/>
<path fill="none" stroke-width="0.5" stroke-linecap="butt" stroke-linejoin="miter" stroke="rgb(100%, 100%, 100%)" stroke-opacity="1" stroke-miterlimit="2" d="M 240.09375 214.742188 L 247.171875 302.339844 "/>
<path fill="none" stroke-width="0.5" stroke-linecap="butt" stroke-linejoin="miter" stroke="rgb(100%, 100%, 100%)" stroke-opacity="1" stroke-miterlimit="2" d="M 247.171875 302.339844 L 304.871094 301.429688 "/>
<path fill-rule="nonzero" fill="rgb(85.490197%, 74.901962%, 100%)" fill-opacity="1" d="M 307.230469 214.835938 L 272.6875 146.820312 L 240.09375 214.742188 Z M 307.230469 214.835938 "/>
<path fill="none" stroke-width="0.5" stroke-linecap="butt" stroke-linejoin="miter" stroke="rgb(100%, 100%, 100%)" stroke-opacity="1" stroke-miterlimit="2" d="M 307.230469 214.835938 L 272.6875 146.820312 "/>
<path fill="none" stroke-width="0.5" stroke-linecap="butt" stroke-linejoin="miter" stroke="rgb(100%, 100%, 100%)" stroke-opacity="1" stroke-miterlimit="2" d="M 272.6875 146.820312 L 240.09375 214.742188 "/>
<path fill="none" stroke-width="0.5" stroke-linecap="butt" stroke-linejoin="miter" stroke="rgb(100%, 100%, 100%)" stroke-opacity="1" stroke-miterlimit="2" d="M 240.09375 214.742188 L 307.230469 214.835938 "/>
<path fill-rule="nonzero" fill="rgb(85.490197%, 74.901962%, 100%)" fill-opacity="1" d="M 304.871094 301.429688 L 361.9375 252.535156 L 307.230469 214.835938 Z M 304.871094 301.429688 "/>
<path fill="none" stroke-width="0.5" stroke-linecap="butt" stroke-linejoin="miter" stroke="rgb(100%, 100%, 100%)" stroke-opacity="1" stroke-miterlimit="2" d="M 304.871094 301.429688 L 361.9375 252.535156 "/>
<path fill="none" stroke-width="0.5" stroke-linecap="butt" stroke-linejoin="miter" stroke="rgb(100%, 100%, 100%)" stroke-opacity="1" stroke-miterlimit="2" d="M 361.9375 252.535156 L 307.230469 214.835938 "/>
<path fill="none" stroke-width="0.5" stroke-linecap="butt" stroke-linejoin="miter" stroke="rgb(100%, 100%, 100%)" stroke-opacity="1" stroke-miterlimit="2" d="M 307.230469 214.835938 L 304.871094 301.429688 "/>
<path fill-rule="nonzero" fill="rgb(85.490197%, 74.901962%, 100%)" fill-opacity="1" d="M 355.203125 333.609375 L 361.9375 252.535156 L 304.871094 301.429688 Z M 355.203125 333.609375 "/>
<path fill="none" stroke-width="0.5" stroke-linecap="butt" stroke-linejoin="miter" stroke="rgb(100%, 100%, 100%)" stroke-opacity="1" stroke-miterlimit="2" d="M 355.203125 333.609375 L 361.9375 252.535156 "/>
<path fill="none" stroke-width="0.5" stroke-linecap="butt" stroke-linejoin="miter" stroke="rgb(100%, 100%, 100%)" stroke-opacity="1" stroke-miterlimit="2" d="M 361.9375 252.535156 L 304.871094 301.429688 "/>
<path fill="none" stroke-width="0.5" stroke-linecap="butt" stroke-linejoin="miter" stroke="rgb(100%, 100%, 100%)" stroke-opacity="1" stroke-miterlimit="2" d="M 304.871094 301.429688 L 355.203125 333.609375 "/>
<path fill-rule="nonzero" fill="rgb(85.490197%, 74.901962%, 100%)" fill-opacity="1" d="M 433.734375 749.089844 L 400 689.4375 L 366.265625 749.089844 Z M 433.734375 749.089844 "/>
<path fill="none" stroke-width="0.5" stroke-linecap="butt" stroke-linejoin="miter" stroke="rgb(100%, 100%, 100%)" stroke-opacity="1" stroke-miterlimit="2" d="M 433.734375 749.089844 L 400 689.4375 "/>
<path fill="none" stroke-width="0.5" stroke-linecap="butt" stroke-linejoin="miter" stroke="rgb(100%, 100%, 100%)" stroke-opacity="1" stroke-miterlimit="2" d="M 400 689.4375 L 366.265625 749.089844 "/>
<path fill="none" stroke-width="0.5" stroke-linecap="butt" stroke-linejoin="miter" stroke="rgb(100%, 100%, 100%)" stroke-opacity="1" stroke-miterlimit="2" d="M 366.265625 749.089844 L 433.734375 749.089844 "/>
<path fill-rule="nonzero" fill="rgb(56.470591%, 47.843137%, 83.92157%)" fill-opacity="1" d="M 492.769531 214.835938 L 527.3125 146.820312 L 467.289062 111.066406 L 433.851562 172.878906 Z M 492.769531 214.835938 "/>
<path fill="none" stroke-width="0.5" stroke-linecap="butt" stroke-linejoin="miter" stroke="rgb(100%, 100%, 100%)" stroke-opacity="1" stroke-miterlimit="2" d="M 492.769531 214.835938 L 527.3125 146.820312 "/>
<path fill="none" stroke-width="0.5" stroke-linecap="butt" stroke-linejoin="miter" stroke="rgb(100%, 100%, 100%)" stroke-opacity="1" stroke-miterlimit="2" d="M 527.3125 146.820312 L 467.289062 111.066406 "/>
<path fill="none" stroke-width="0.5" stroke-linecap="butt" stroke-linejoin="miter" stroke="rgb(100%, 100%, 100%)" stroke-opacity="1" stroke-miterlimit="2" d="M 467.289062 111.066406 L 433.851562 172.878906 "/>
<path fill="none" stroke-width="0.5" stroke-linecap="butt" stroke-linejoin="miter" stroke="rgb(100%, 100%, 100%)" stroke-opacity="1" stroke-miterlimit="2" d="M 433.851562 172.878906 L 492.769531 214.835938 "/>
<path fill-rule="nonzero" fill="rgb(17.254902%, 16.470589%, 29.019609%)" fill-opacity="1" d="M 444.796875 466.390625 L 495.128906 498.570312 L 552.828125 497.660156 L 594.386719 473.949219 L 625.53125 425.355469 L 625.53125 374.644531 L 594.386719 326.050781 L 552.828125 302.339844 L 495.128906 301.429688 L 444.796875 333.609375 L 400 382.976562 L 400 417.023438 Z M 444.796875 466.390625 "/>
<path fill="none" stroke-width="0.5" stroke-linecap="butt" stroke-linejoin="miter" stroke="rgb(100%, 100%, 100%)" stroke-opacity="1" stroke-miterlimit="2" d="M 444.796875 466.390625 L 495.128906 498.570312 "/>
<path fill="none" stroke-width="0.5" stroke-linecap="butt" stroke-linejoin="miter" stroke="rgb(100%, 100%, 100%)" stroke-opacity="1" stroke-miterlimit="2" d="M 495.128906 498.570312 L 552.828125 497.660156 "/>
<path fill="none" stroke-width="0.5" stroke-linecap="butt" stroke-linejoin="miter" stroke="rgb(100%, 100%, 100%)" stroke-opacity="1" stroke-miterlimit="2" d="M 552.828125 497.660156 L 594.386719 473.949219 "/>
<path fill="none" stroke-width="0.5" stroke-linecap="butt" stroke-linejoin="miter" stroke="rgb(100%, 100%, 100%)" stroke-opacity="1" stroke-miterlimit="2" d="M 594.386719 473.949219 L 625.53125 425.355469 "/>
<path fill="none" stroke-width="0.5" stroke-linecap="butt" stroke-linejoin="miter" stroke="rgb(100%, 100%, 100%)" stroke-opacity="1" stroke-miterlimit="2" d="M 625.53125 425.355469 L 625.53125 374.644531 "/>
<path fill="none" stroke-width="0.5" stroke-linecap="butt" stroke-linejoin="miter" stroke="rgb(100%, 100%, 100%)" stroke-opacity="1" stroke-miterlimit="2" d="M 625.53125 374.644531 L 594.386719 326.050781 "/>
<path fill="none" stroke-width="0.5" stroke-linecap="butt" stroke-linejoin="miter" stroke="rgb(100%, 100%, 100%)" stroke-opacity="1" stroke-miterlimit="2" d="M 594.386719 326.050781 L 552.828125 302.339844 "/>
<path fill="none" stroke-width="0.5" stroke-linecap="butt" stroke-linejoin="miter" stroke="rgb(100%, 100%, 100%)" stroke-opacity="1" stroke-miterlimit="2" d="M 552.828125 302.339844 L 495.128906 301.429688 "/>
<path fill="none" stroke-width="0.5" stroke-linecap="butt" stroke-linejoin="miter" stroke="rgb(100%, 100%, 100%)" stroke-opacity="1" stroke-miterlimit="2" d="M 495.128906 301.429688 L 444.796875 333.609375 "/>
<path fill="none" stroke-width="0.5" stroke-linecap="butt" stroke-linejoin="miter" stroke="rgb(100%, 100%, 100%)" stroke-opacity="1" stroke-miterlimit="2" d="M 444.796875 333.609375 L 400 382.976562 "/>
<path fill="none" stroke-width="0.5" stroke-linecap="butt" stroke-linejoin="miter" stroke="rgb(100%, 100%, 100%)" stroke-opacity="1" stroke-miterlimit="2" d="M 400 382.976562 L 400 417.023438 "/>
<path fill="none" stroke-width="0.5" stroke-linecap="butt" stroke-linejoin="miter" stroke="rgb(100%, 100%, 100%)" stroke-opacity="1" stroke-miterlimit="2" d="M 400 417.023438 L 444.796875 466.390625 "/>
<path fill-rule="nonzero" fill="rgb(85.490197%, 74.901962%, 100%)" fill-opacity="1" d="M 492.769531 214.835938 L 433.851562 172.878906 L 438.0625 252.535156 Z M 492.769531 214.835938 "/>
<path fill="none" stroke-width="0.5" stroke-linecap="butt" stroke-linejoin="miter" stroke="rgb(100%, 100%, 100%)" stroke-opacity="1" stroke-miterlimit="2" d="M 492.769531 214.835938 L 433.851562 172.878906 "/>
<path fill="none" stroke-width="0.5" stroke-linecap="butt" stroke-linejoin="miter" stroke="rgb(100%, 100%, 100%)" stroke-opacity="1" stroke-miterlimit="2" d="M 433.851562 172.878906 L 438.0625 252.535156 "/>
<path fill="none" stroke-width="0.5" stroke-linecap="butt" stroke-linejoin="miter" stroke="rgb(100%, 100%, 100%)" stroke-opacity="1" stroke-miterlimit="2" d="M 438.0625 252.535156 L 492.769531 214.835938 "/>
<path fill-rule="nonzero" fill="rgb(85.490197%, 74.901962%, 100%)" fill-opacity="1" d="M 400 689.4375 L 433.851562 627.121094 L 366.148438 627.121094 Z M 400 689.4375 "/>
<path fill="none" stroke-width="0.5" stroke-linecap="butt" stroke-linejoin="miter" stroke="rgb(100%, 100%, 100%)" stroke-opacity="1" stroke-miterlimit="2" d="M 400 689.4375 L 433.851562 627.121094 "/>
<path fill="none" stroke-width="0.5" stroke-linecap="butt" stroke-linejoin="miter" stroke="rgb(100%, 100%, 100%)" stroke-opacity="1" stroke-miterlimit="2" d="M 433.851562 627.121094 L 366.148438 627.121094 "/>
<path fill="none" stroke-width="0.5" stroke-linecap="butt" stroke-linejoin="miter" stroke="rgb(100%, 100%, 100%)" stroke-opacity="1" stroke-miterlimit="2" d="M 366.148438 627.121094 L 400 689.4375 "/>
<path fill-rule="nonzero" fill="rgb(85.490197%, 74.901962%, 100%)" fill-opacity="1" d="M 272.6875 653.179688 L 307.230469 585.164062 L 240.09375 585.257812 Z M 272.6875 653.179688 "/>
<path fill="none" stroke-width="0.5" stroke-linecap="butt" stroke-linejoin="miter" stroke="rgb(100%, 100%, 100%)" stroke-opacity="1" stroke-miterlimit="2" d="M 272.6875 653.179688 L 307.230469 585.164062 "/>
<path fill="none" stroke-width="0.5" stroke-linecap="butt" stroke-linejoin="miter" stroke="rgb(100%, 100%, 100%)" stroke-opacity="1" stroke-miterlimit="2" d="M 307.230469 585.164062 L 240.09375 585.257812 "/>
<path fill="none" stroke-width="0.5" stroke-linecap="butt" stroke-linejoin="miter" stroke="rgb(100%, 100%, 100%)" stroke-opacity="1" stroke-miterlimit="2" d="M 240.09375 585.257812 L 272.6875 653.179688 "/>
<path fill-rule="nonzero" fill="rgb(56.470591%, 47.843137%, 83.92157%)" fill-opacity="1" d="M 307.230469 214.835938 L 366.148438 172.878906 L 332.710938 111.066406 L 272.6875 146.820312 Z M 307.230469 214.835938 "/>
<path fill="none" stroke-width="0.5" stroke-linecap="butt" stroke-linejoin="miter" stroke="rgb(100%, 100%, 100%)" stroke-opacity="1" stroke-miterlimit="2" d="M 307.230469 214.835938 L 366.148438 172.878906 "/>
<path fill="none" stroke-width="0.5" stroke-linecap="butt" stroke-linejoin="miter" stroke="rgb(100%, 100%, 100%)" stroke-opacity="1" stroke-miterlimit="2" d="M 366.148438 172.878906 L 332.710938 111.066406 "/>
<path fill="none" stroke-width="0.5" stroke-linecap="butt" stroke-linejoin="miter" stroke="rgb(100%, 100%, 100%)" stroke-opacity="1" stroke-miterlimit="2" d="M 332.710938 111.066406 L 272.6875 146.820312 "/>
<path fill="none" stroke-width="0.5" stroke-linecap="butt" stroke-linejoin="miter" stroke="rgb(100%, 100%, 100%)" stroke-opacity="1" stroke-miterlimit="2" d="M 272.6875 146.820312 L 307.230469 214.835938 "/>
<path fill-rule="nonzero" fill="rgb(85.490197%, 74.901962%, 100%)" fill-opacity="1" d="M 366.148438 627.121094 L 361.9375 547.464844 L 307.230469 585.164062 Z M 366.148438 627.121094 "/>
<path fill="none" stroke-width="0.5" stroke-linecap="butt" stroke-linejoin="miter" stroke="rgb(100%, 100%, 100%)" stroke-opacity="1" stroke-miterlimit="2" d="M 366.148438 627.121094 L 361.9375 547.464844 "/>
<path fill="none" stroke-width="0.5" stroke-linecap="butt" stroke-linejoin="miter" stroke="rgb(100%, 100%, 100%)" stroke-opacity="1" stroke-miterlimit="2" d="M 361.9375 547.464844 L 307.230469 585.164062 "/>
<path fill="none" stroke-width="0.5" stroke-linecap="butt" stroke-linejoin="miter" stroke="rgb(100%, 100%, 100%)" stroke-opacity="1" stroke-miterlimit="2" d="M 307.230469 585.164062 L 366.148438 627.121094 "/>
<path fill-rule="nonzero" fill="rgb(85.490197%, 74.901962%, 100%)" fill-opacity="1" d="M 433.851562 627.121094 L 492.769531 585.164062 L 438.0625 547.464844 Z M 433.851562 627.121094 "/>
<path fill="none" stroke-width="0.5" stroke-linecap="butt" stroke-linejoin="miter" stroke="rgb(100%, 100%, 100%)" stroke-opacity="1" stroke-miterlimit="2" d="M 433.851562 627.121094 L 492.769531 585.164062 "/>
<path fill="none" stroke-width="0.5" stroke-linecap="butt" stroke-linejoin="miter" stroke="rgb(100%, 100%, 100%)" stroke-opacity="1" stroke-miterlimit="2" d="M 492.769531 585.164062 L 438.0625 547.464844 "/>
<path fill="none" stroke-width="0.5" stroke-linecap="butt" stroke-linejoin="miter" stroke="rgb(100%, 100%, 100%)" stroke-opacity="1" stroke-miterlimit="2" d="M 438.0625 547.464844 L 433.851562 627.121094 "/>
<path fill-rule="nonzero" fill="rgb(56.470591%, 47.843137%, 83.92157%)" fill-opacity="1" d="M 332.710938 688.933594 L 366.148438 627.121094 L 307.230469 585.164062 L 272.6875 653.179688 Z M 332.710938 688.933594 "/>
<path fill="none" stroke-width="0.5" stroke-linecap="butt" stroke-linejoin="miter" stroke="rgb(100%, 100%, 100%)" stroke-opacity="1" stroke-miterlimit="2" d="M 332.710938 688.933594 L 366.148438 627.121094 "/>
<path fill="none" stroke-width="0.5" stroke-linecap="butt" stroke-linejoin="miter" stroke="rgb(100%, 100%, 100%)" stroke-opacity="1" stroke-miterlimit="2" d="M 366.148438 627.121094 L 307.230469 585.164062 "/>
<path fill="none" stroke-width="0.5" stroke-linecap="butt" stroke-linejoin="miter" stroke="rgb(100%, 100%, 100%)" stroke-opacity="1" stroke-miterlimit="2" d="M 307.230469 585.164062 L 272.6875 653.179688 "/>
<path fill="none" stroke-width="0.5" stroke-linecap="butt" stroke-linejoin="miter" stroke="rgb(100%, 100%, 100%)" stroke-opacity="1" stroke-miterlimit="2" d="M 272.6875 653.179688 L 332.710938 688.933594 "/>
<path fill-rule="nonzero" fill="rgb(85.490197%, 74.901962%, 100%)" fill-opacity="1" d="M 492.769531 585.164062 L 495.128906 498.570312 L 438.0625 547.464844 Z M 492.769531 585.164062 "/>
<path fill="none" stroke-width="0.5" stroke-linecap="butt" stroke-linejoin="miter" stroke="rgb(100%, 100%, 100%)" stroke-opacity="1" stroke-miterlimit="2" d="M 492.769531 585.164062 L 495.128906 498.570312 "/>
<path fill="none" stroke-width="0.5" stroke-linecap="butt" stroke-linejoin="miter" stroke="rgb(100%, 100%, 100%)" stroke-opacity="1" stroke-miterlimit="2" d="M 495.128906 498.570312 L 438.0625 547.464844 "/>
<path fill="none" stroke-width="0.5" stroke-linecap="butt" stroke-linejoin="miter" stroke="rgb(100%, 100%, 100%)" stroke-opacity="1" stroke-miterlimit="2" d="M 438.0625 547.464844 L 492.769531 585.164062 "/>
<path fill-rule="nonzero" fill="rgb(85.490197%, 74.901962%, 100%)" fill-opacity="1" d="M 467.289062 111.066406 L 433.734375 50.910156 L 400 110.5625 Z M 467.289062 111.066406 "/>
<path fill="none" stroke-width="0.5" stroke-linecap="butt" stroke-linejoin="miter" stroke="rgb(100%, 100%, 100%)" stroke-opacity="1" stroke-miterlimit="2" d="M 467.289062 111.066406 L 433.734375 50.910156 "/>
<path fill="none" stroke-width="0.5" stroke-linecap="butt" stroke-linejoin="miter" stroke="rgb(100%, 100%, 100%)" stroke-opacity="1" stroke-miterlimit="2" d="M 433.734375 50.910156 L 400 110.5625 "/>
<path fill="none" stroke-width="0.5" stroke-linecap="butt" stroke-linejoin="miter" stroke="rgb(100%, 100%, 100%)" stroke-opacity="1" stroke-miterlimit="2" d="M 400 110.5625 L 467.289062 111.066406 "/>
<path fill-rule="nonzero" fill="rgb(85.490197%, 74.901962%, 100%)" fill-opacity="1" d="M 559.90625 214.742188 L 527.3125 146.820312 L 492.769531 214.835938 Z M 559.90625 214.742188 "/>
<path fill="none" stroke-width="0.5" stroke-linecap="butt" stroke-linejoin="miter" stroke="rgb(100%, 100%, 100%)" stroke-opacity="1" stroke-miterlimit="2" d="M 559.90625 214.742188 L 527.3125 146.820312 "/>
<path fill="none" stroke-width="0.5" stroke-linecap="butt" stroke-linejoin="miter" stroke="rgb(100%, 100%, 100%)" stroke-opacity="1" stroke-miterlimit="2" d="M 527.3125 146.820312 L 492.769531 214.835938 "/>
<path fill="none" stroke-width="0.5" stroke-linecap="butt" stroke-linejoin="miter" stroke="rgb(100%, 100%, 100%)" stroke-opacity="1" stroke-miterlimit="2" d="M 492.769531 214.835938 L 559.90625 214.742188 "/>
<path fill-rule="nonzero" fill="rgb(85.490197%, 74.901962%, 100%)" fill-opacity="1" d="M 527.3125 653.179688 L 559.90625 585.257812 L 492.769531 585.164062 Z M 527.3125 653.179688 "/>
<path fill="none" stroke-width="0.5" stroke-linecap="butt" stroke-linejoin="miter" stroke="rgb(100%, 100%, 100%)" stroke-opacity="1" stroke-miterlimit="2" d="M 527.3125 653.179688 L 559.90625 585.257812 "/>
<path fill="none" stroke-width="0.5" stroke-linecap="butt" stroke-linejoin="miter" stroke="rgb(100%, 100%, 100%)" stroke-opacity="1" stroke-miterlimit="2" d="M 559.90625 585.257812 L 492.769531 585.164062 "/>
<path fill="none" stroke-width="0.5" stroke-linecap="butt" stroke-linejoin="miter" stroke="rgb(100%, 100%, 100%)" stroke-opacity="1" stroke-miterlimit="2" d="M 492.769531 585.164062 L 527.3125 653.179688 "/>
<path fill-rule="nonzero" fill="rgb(56.470591%, 47.843137%, 83.92157%)" fill-opacity="1" d="M 355.203125 333.609375 L 444.796875 333.609375 L 438.0625 252.535156 L 361.9375 252.535156 Z M 355.203125 333.609375 "/>
<path fill="none" stroke-width="0.5" stroke-linecap="butt" stroke-linejoin="miter" stroke="rgb(100%, 100%, 100%)" stroke-opacity="1" stroke-miterlimit="2" d="M 355.203125 333.609375 L 444.796875 333.609375 "/>
<path fill="none" stroke-width="0.5" stroke-linecap="butt" stroke-linejoin="miter" stroke="rgb(100%, 100%, 100%)" stroke-opacity="1" stroke-miterlimit="2" d="M 444.796875 333.609375 L 438.0625 252.535156 "/>
<path fill="none" stroke-width="0.5" stroke-linecap="butt" stroke-linejoin="miter" stroke="rgb(100%, 100%, 100%)" stroke-opacity="1" stroke-miterlimit="2" d="M 438.0625 252.535156 L 361.9375 252.535156 "/>
<path fill="none" stroke-width="0.5" stroke-linecap="butt" stroke-linejoin="miter" stroke="rgb(100%, 100%, 100%)" stroke-opacity="1" stroke-miterlimit="2" d="M 361.9375 252.535156 L 355.203125 333.609375 "/>
<path fill-rule="nonzero" fill="rgb(85.490197%, 74.901962%, 100%)" fill-opacity="1" d="M 361.9375 547.464844 L 355.203125 466.390625 L 304.871094 498.570312 Z M 361.9375 547.464844 "/>
<path fill="none" stroke-width="0.5" stroke-linecap="butt" stroke-linejoin="miter" stroke="rgb(100%, 100%, 100%)" stroke-opacity="1" stroke-miterlimit="2" d="M 361.9375 547.464844 L 355.203125 466.390625 "/>
<path fill="none" stroke-width="0.5" stroke-linecap="butt" stroke-linejoin="miter" stroke="rgb(100%, 100%, 100%)" stroke-opacity="1" stroke-miterlimit="2" d="M 355.203125 466.390625 L 304.871094 498.570312 "/>
<path fill="none" stroke-width="0.5" stroke-linecap="butt" stroke-linejoin="miter" stroke="rgb(100%, 100%, 100%)" stroke-opacity="1" stroke-miterlimit="2" d="M 304.871094 498.570312 L 361.9375 547.464844 "/>
<path fill-rule="nonzero" fill="rgb(85.490197%, 74.901962%, 100%)" fill-opacity="1" d="M 174.46875 425.355469 L 174.46875 374.644531 L 98.183594 400 Z M 174.46875 425.355469 "/>
<path fill="none" stroke-width="0.5" stroke-linecap="butt" stroke-linejoin="miter" stroke="rgb(100%, 100%, 100%)" stroke-opacity="1" stroke-miterlimit="2" d="M 174.46875 425.355469 L 174.46875 374.644531 "/>
<path fill="none" stroke-width="0.5" stroke-linecap="butt" stroke-linejoin="miter" stroke="rgb(100%, 100%, 100%)" stroke-opacity="1" stroke-miterlimit="2" d="M 174.46875 374.644531 L 98.183594 400 "/>
<path fill="none" stroke-width="0.5" stroke-linecap="butt" stroke-linejoin="miter" stroke="rgb(100%, 100%, 100%)" stroke-opacity="1" stroke-miterlimit="2" d="M 98.183594 400 L 174.46875 425.355469 "/>
<path fill-rule="nonzero" fill="rgb(85.490197%, 74.901962%, 100%)" fill-opacity="1" d="M 444.796875 466.390625 L 400 417.023438 L 355.203125 466.390625 Z M 444.796875 466.390625 "/>
<path fill="none" stroke-width="0.5" stroke-linecap="butt" stroke-linejoin="miter" stroke="rgb(100%, 100%, 100%)" stroke-opacity="1" stroke-miterlimit="2" d="M 444.796875 466.390625 L 400 417.023438 "/>
<path fill="none" stroke-width="0.5" stroke-linecap="butt" stroke-linejoin="miter" stroke="rgb(100%, 100%, 100%)" stroke-opacity="1" stroke-miterlimit="2" d="M 400 417.023438 L 355.203125 466.390625 "/>
<path fill="none" stroke-width="0.5" stroke-linecap="butt" stroke-linejoin="miter" stroke="rgb(100%, 100%, 100%)" stroke-opacity="1" stroke-miterlimit="2" d="M 355.203125 466.390625 L 444.796875 466.390625 "/>
<path fill-rule="nonzero" fill="rgb(85.490197%, 74.901962%, 100%)" fill-opacity="1" d="M 400 110.5625 L 433.734375 50.910156 L 366.265625 50.910156 Z M 400 110.5625 "/>
<path fill="none" stroke-width="0.5" stroke-linecap="butt" stroke-linejoin="miter" stroke="rgb(100%, 100%, 100%)" stroke-opacity="1" stroke-miterlimit="2" d="M 400 110.5625 L 433.734375 50.910156 "/>
<path fill="none" stroke-width="0.5" stroke-linecap="butt" stroke-linejoin="miter" stroke="rgb(100%, 100%, 100%)" stroke-opacity="1" stroke-miterlimit="2" d="M 433.734375 50.910156 L 366.265625 50.910156 "/>
<path fill="none" stroke-width="0.5" stroke-linecap="butt" stroke-linejoin="miter" stroke="rgb(100%, 100%, 100%)" stroke-opacity="1" stroke-miterlimit="2" d="M 366.265625 50.910156 L 400 110.5625 "/>
<path fill-rule="nonzero" fill="rgb(56.470591%, 47.843137%, 83.92157%)" fill-opacity="1" d="M 433.851562 627.121094 L 438.0625 547.464844 L 361.9375 547.464844 L 366.148438 627.121094 Z M 433.851562 627.121094 "/>
<path fill="none" stroke-width="0.5" stroke-linecap="butt" stroke-linejoin="miter" stroke="rgb(100%, 100%, 100%)" stroke-opacity="1" stroke-miterlimit="2" d="M 433.851562 627.121094 L 438.0625 547.464844 "/>
<path fill="none" stroke-width="0.5" stroke-linecap="butt" stroke-linejoin="miter" stroke="rgb(100%, 100%, 100%)" stroke-opacity="1" stroke-miterlimit="2" d="M 438.0625 547.464844 L 361.9375 547.464844 "/>
<path fill="none" stroke-width="0.5" stroke-linecap="butt" stroke-linejoin="miter" stroke="rgb(100%, 100%, 100%)" stroke-opacity="1" stroke-miterlimit="2" d="M 361.9375 547.464844 L 366.148438 627.121094 "/>
<path fill="none" stroke-width="0.5" stroke-linecap="butt" stroke-linejoin="miter" stroke="rgb(100%, 100%, 100%)" stroke-opacity="1" stroke-miterlimit="2" d="M 366.148438 627.121094 L 433.851562 627.121094 "/>
<path fill-rule="nonzero" fill="rgb(85.490197%, 74.901962%, 100%)" fill-opacity="1" d="M 361.9375 252.535156 L 366.148438 172.878906 L 307.230469 214.835938 Z M 361.9375 252.535156 "/>
<path fill="none" stroke-width="0.5" stroke-linecap="butt" stroke-linejoin="miter" stroke="rgb(100%, 100%, 100%)" stroke-opacity="1" stroke-miterlimit="2" d="M 361.9375 252.535156 L 366.148438 172.878906 "/>
<path fill="none" stroke-width="0.5" stroke-linecap="butt" stroke-linejoin="miter" stroke="rgb(100%, 100%, 100%)" stroke-opacity="1" stroke-miterlimit="2" d="M 366.148438 172.878906 L 307.230469 214.835938 "/>
<path fill="none" stroke-width="0.5" stroke-linecap="butt" stroke-linejoin="miter" stroke="rgb(100%, 100%, 100%)" stroke-opacity="1" stroke-miterlimit="2" d="M 307.230469 214.835938 L 361.9375 252.535156 "/>
<path fill-rule="nonzero" fill="rgb(85.490197%, 74.901962%, 100%)" fill-opacity="1" d="M 495.128906 301.429688 L 492.769531 214.835938 L 438.0625 252.535156 Z M 495.128906 301.429688 "/>
<path fill="none" stroke-width="0.5" stroke-linecap="butt" stroke-linejoin="miter" stroke="rgb(100%, 100%, 100%)" stroke-opacity="1" stroke-miterlimit="2" d="M 495.128906 301.429688 L 492.769531 214.835938 "/>
<path fill="none" stroke-width="0.5" stroke-linecap="butt" stroke-linejoin="miter" stroke="rgb(100%, 100%, 100%)" stroke-opacity="1" stroke-miterlimit="2" d="M 492.769531 214.835938 L 438.0625 252.535156 "/>
<path fill="none" stroke-width="0.5" stroke-linecap="butt" stroke-linejoin="miter" stroke="rgb(100%, 100%, 100%)" stroke-opacity="1" stroke-miterlimit="2" d="M 438.0625 252.535156 L 495.128906 301.429688 "/>
<path fill-rule="nonzero" fill="rgb(56.470591%, 47.843137%, 83.92157%)" fill-opacity="1" d="M 240.09375 585.257812 L 307.230469 585.164062 L 304.871094 498.570312 L 247.171875 497.660156 Z M 240.09375 585.257812 "/>
<path fill="none" stroke-width="0.5" stroke-linecap="butt" stroke-linejoin="miter" stroke="rgb(100%, 100%, 100%)" stroke-opacity="1" stroke-miterlimit="2" d="M 240.09375 585.257812 L 307.230469 585.164062 "/>
<path fill="none" stroke-width="0.5" stroke-linecap="butt" stroke-linejoin="miter" stroke="rgb(100%, 100%, 100%)" stroke-opacity="1" stroke-miterlimit="2" d="M 307.230469 585.164062 L 304.871094 498.570312 "/>
<path fill="none" stroke-width="0.5" stroke-linecap="butt" stroke-linejoin="miter" stroke="rgb(100%, 100%, 100%)" stroke-opacity="1" stroke-miterlimit="2" d="M 304.871094 498.570312 L 247.171875 497.660156 "/>
<path fill="none" stroke-width="0.5" stroke-linecap="butt" stroke-linejoin="miter" stroke="rgb(100%, 100%, 100%)" stroke-opacity="1" stroke-miterlimit="2" d="M 247.171875 497.660156 L 240.09375 585.257812 "/>
<path fill-rule="nonzero" fill="rgb(85.490197%, 74.901962%, 100%)" fill-opacity="1" d="M 467.289062 688.933594 L 433.851562 627.121094 L 400 689.4375 Z M 467.289062 688.933594 "/>
<path fill="none" stroke-width="0.5" stroke-linecap="butt" stroke-linejoin="miter" stroke="rgb(100%, 100%, 100%)" stroke-opacity="1" stroke-miterlimit="2" d="M 467.289062 688.933594 L 433.851562 627.121094 "/>
<path fill="none" stroke-width="0.5" stroke-linecap="butt" stroke-linejoin="miter" stroke="rgb(100%, 100%, 100%)" stroke-opacity="1" stroke-miterlimit="2" d="M 433.851562 627.121094 L 400 689.4375 "/>
<path fill="none" stroke-width="0.5" stroke-linecap="butt" stroke-linejoin="miter" stroke="rgb(100%, 100%, 100%)" stroke-opacity="1" stroke-miterlimit="2" d="M 400 689.4375 L 467.289062 688.933594 "/>
<path fill-rule="nonzero" fill="rgb(85.490197%, 74.901962%, 100%)" fill-opacity="1" d="M 400 382.976562 L 444.796875 333.609375 L 355.203125 333.609375 Z M 400 382.976562 "/>
<path fill="none" stroke-width="0.5" stroke-linecap="butt" stroke-linejoin="miter" stroke="rgb(100%, 100%, 100%)" stroke-opacity="1" stroke-miterlimit="2" d="M 400 382.976562 L 444.796875 333.609375 "/>
<path fill="none" stroke-width="0.5" stroke-linecap="butt" stroke-linejoin="miter" stroke="rgb(100%, 100%, 100%)" stroke-opacity="1" stroke-miterlimit="2" d="M 444.796875 333.609375 L 355.203125 333.609375 "/>
<path fill="none" stroke-width="0.5" stroke-linecap="butt" stroke-linejoin="miter" stroke="rgb(100%, 100%, 100%)" stroke-opacity="1" stroke-miterlimit="2" d="M 355.203125 333.609375 L 400 382.976562 "/>
<path fill-rule="nonzero" fill="rgb(56.470591%, 47.843137%, 83.92157%)" fill-opacity="1" d="M 361.9375 252.535156 L 438.0625 252.535156 L 433.851562 172.878906 L 366.148438 172.878906 Z M 361.9375 252.535156 "/>
<path fill="none" stroke-width="0.5" stroke-linecap="butt" stroke-linejoin="miter" stroke="rgb(100%, 100%, 100%)" stroke-opacity="1" stroke-miterlimit="2" d="M 361.9375 252.535156 L 438.0625 252.535156 "/>
<path fill="none" stroke-width="0.5" stroke-linecap="butt" stroke-linejoin="miter" stroke="rgb(100%, 100%, 100%)" stroke-opacity="1" stroke-miterlimit="2" d="M 438.0625 252.535156 L 433.851562 172.878906 "/>
<path fill="none" stroke-width="0.5" stroke-linecap="butt" stroke-linejoin="miter" stroke="rgb(100%, 100%, 100%)" stroke-opacity="1" stroke-miterlimit="2" d="M 433.851562 172.878906 L 366.148438 172.878906 "/>
<path fill="none" stroke-width="0.5" stroke-linecap="butt" stroke-linejoin="miter" stroke="rgb(100%, 100%, 100%)" stroke-opacity="1" stroke-miterlimit="2" d="M 366.148438 172.878906 L 361.9375 252.535156 "/>
<path fill-rule="nonzero" fill="rgb(85.490197%, 74.901962%, 100%)" fill-opacity="1" d="M 400 110.5625 L 366.265625 50.910156 L 332.710938 111.066406 Z M 400 110.5625 "/>
<path fill="none" stroke-width="0.5" stroke-linecap="butt" stroke-linejoin="miter" stroke="rgb(100%, 100%, 100%)" stroke-opacity="1" stroke-miterlimit="2" d="M 400 110.5625 L 366.265625 50.910156 "/>
<path fill="none" stroke-width="0.5" stroke-linecap="butt" stroke-linejoin="miter" stroke="rgb(100%, 100%, 100%)" stroke-opacity="1" stroke-miterlimit="2" d="M 366.265625 50.910156 L 332.710938 111.066406 "/>
<path fill="none" stroke-width="0.5" stroke-linecap="butt" stroke-linejoin="miter" stroke="rgb(100%, 100%, 100%)" stroke-opacity="1" stroke-miterlimit="2" d="M 332.710938 111.066406 L 400 110.5625 "/>
<path fill-rule="nonzero" fill="rgb(56.470591%, 47.843137%, 83.92157%)" fill-opacity="1" d="M 438.0625 547.464844 L 444.796875 466.390625 L 355.203125 466.390625 L 361.9375 547.464844 Z M 438.0625 547.464844 "/>
<path fill="none" stroke-width="0.5" stroke-linecap="butt" stroke-linejoin="miter" stroke="rgb(100%, 100%, 100%)" stroke-opacity="1" stroke-miterlimit="2" d="M 438.0625 547.464844 L 444.796875 466.390625 "/>
<path fill="none" stroke-width="0.5" stroke-linecap="butt" stroke-linejoin="miter" stroke="rgb(100%, 100%, 100%)" stroke-opacity="1" stroke-miterlimit="2" d="M 444.796875 466.390625 L 355.203125 466.390625 "/>
<path fill="none" stroke-width="0.5" stroke-linecap="butt" stroke-linejoin="miter" stroke="rgb(100%, 100%, 100%)" stroke-opacity="1" stroke-miterlimit="2" d="M 355.203125 466.390625 L 361.9375 547.464844 "/>
<path fill="none" stroke-width="0.5" stroke-linecap="butt" stroke-linejoin="miter" stroke="rgb(100%, 100%, 100%)" stroke-opacity="1" stroke-miterlimit="2" d="M 361.9375 547.464844 L 438.0625 547.464844 "/>
<path fill-rule="nonzero" fill="rgb(85.490197%, 74.901962%, 100%)" fill-opacity="1" d="M 701.816406 400 L 625.53125 374.644531 L 625.53125 425.355469 Z M 701.816406 400 "/>
<path fill="none" stroke-width="0.5" stroke-linecap="butt" stroke-linejoin="miter" stroke="rgb(100%, 100%, 100%)" stroke-opacity="1" stroke-miterlimit="2" d="M 701.816406 400 L 625.53125 374.644531 "/>
<path fill="none" stroke-width="0.5" stroke-linecap="butt" stroke-linejoin="miter" stroke="rgb(100%, 100%, 100%)" stroke-opacity="1" stroke-miterlimit="2" d="M 625.53125 374.644531 L 625.53125 425.355469 "/>
<path fill="none" stroke-width="0.5" stroke-linecap="butt" stroke-linejoin="miter" stroke="rgb(100%, 100%, 100%)" stroke-opacity="1" stroke-miterlimit="2" d="M 625.53125 425.355469 L 701.816406 400 "/>
<path fill-rule="nonzero" fill="rgb(85.490197%, 74.901962%, 100%)" fill-opacity="1" d="M 366.265625 749.089844 L 400 689.4375 L 332.710938 688.933594 Z M 366.265625 749.089844 "/>
<path fill="none" stroke-width="0.5" stroke-linecap="butt" stroke-linejoin="miter" stroke="rgb(100%, 100%, 100%)" stroke-opacity="1" stroke-miterlimit="2" d="M 366.265625 749.089844 L 400 689.4375 "/>
<path fill="none" stroke-width="0.5" stroke-linecap="butt" stroke-linejoin="miter" stroke="rgb(100%, 100%, 100%)" stroke-opacity="1" stroke-miterlimit="2" d="M 400 689.4375 L 332.710938 688.933594 "/>
<path fill="none" stroke-width="0.5" stroke-linecap="butt" stroke-linejoin="miter" stroke="rgb(100%, 100%, 100%)" stroke-opacity="1" stroke-miterlimit="2" d="M 332.710938 688.933594 L 366.265625 749.089844 "/>
<path fill-rule="nonzero" fill="rgb(85.490197%, 74.901962%, 100%)" fill-opacity="1" d="M 433.851562 172.878906 L 400 110.5625 L 366.148438 172.878906 Z M 433.851562 172.878906 "/>
<path fill="none" stroke-width="0.5" stroke-linecap="butt" stroke-linejoin="miter" stroke="rgb(100%, 100%, 100%)" stroke-opacity="1" stroke-miterlimit="2" d="M 433.851562 172.878906 L 400 110.5625 "/>
<path fill="none" stroke-width="0.5" stroke-linecap="butt" stroke-linejoin="miter" stroke="rgb(100%, 100%, 100%)" stroke-opacity="1" stroke-miterlimit="2" d="M 400 110.5625 L 366.148438 172.878906 "/>
<path fill="none" stroke-width="0.5" stroke-linecap="butt" stroke-linejoin="miter" stroke="rgb(100%, 100%, 100%)" stroke-opacity="1" stroke-miterlimit="2" d="M 366.148438 172.878906 L 433.851562 172.878906 "/>
</svg>
