<?xml version="1.0" encoding="UTF-8"?>
<svg xmlns="http://www.w3.org/2000/svg" xmlns:xlink="http://www.w3.org/1999/xlink" width="800" height="800" viewBox="0 0 800 800">
<rect x="-80" y="-80" width="960" height="960" fill="rgb(100%, 100%, 100%)" fill-opacity="1"/>
<path fill-rule="nonzero" fill="rgb(100%, 100%, 100%)" fill-opacity="1" d="M 16 784 L 784 784 L 784 16 L 16 16 Z M 16 784 "/>
<path fill-rule="nonzero" fill="rgb(30.980393%, 31.764707%, 54.901963%)" fill-opacity="1" d="M 571.941406 665.726562 L 665.726562 571.941406 L 657.910156 407.816406 L 478.15625 415.632812 L 394.789062 498.996094 L 400 665.726562 Z M 571.941406 665.726562 "/>
<path fill="none" stroke-width="0.5" stroke-linecap="butt" stroke-linejoin="miter" stroke="rgb(100%, 100%, 100%)" stroke-opacity="1" stroke-miterlimit="2" d="M 571.941406 665.726562 L 665.726562 571.941406 "/>
<path fill="none" stroke-width="0.5" stroke-linecap="butt" stroke-linejoin="miter" stroke="rgb(100%, 100%, 100%)" stroke-opacity="1" stroke-miterlimit="2" d="M 665.726562 571.941406 L 657.910156 407.816406 "/>
<path fill="none" stroke-width="0.5" stroke-linecap="butt" stroke-linejoin="miter" stroke="rgb(100%, 100%, 100%)" stroke-opacity="1" stroke-miterlimit="2" d="M 657.910156 407.816406 L 478.15625 415.632812 "/>
<path fill="none" stroke-width="0.5" stroke-linecap="butt" stroke-linejoin="miter" stroke="rgb(100%, 100%, 100%)" stroke-opacity="1" stroke-miterlimit="2" d="M 478.15625 415.632812 L 394.789062 498.996094 "/>
<path fill="none" stroke-width="0.5" stroke-linecap="butt" stroke-linejoin="miter" stroke="rgb(100%, 100%, 100%)" stroke-opacity="1" stroke-miterlimit="2" d="M 394.789062 498.996094 L 400 665.726562 "/>
<path fill="none" stroke-width="0.5" stroke-linecap="butt" stroke-linejoin="miter" stroke="rgb(100%, 100%, 100%)" stroke-opacity="1" stroke-miterlimit="2" d="M 400 665.726562 L 571.941406 665.726562 "/>
<path fill-rule="nonzero" fill="rgb(56.470591%, 47.843137%, 83.92157%)" fill-opacity="1" d="M 134.273438 228.058594 L 228.058594 134.273438 L 144.695312 50.910156 L 50.910156 144.695312 Z M 134.273438 228.058594 "/>
<path fill="none" stroke-width="0.5" stroke-linecap="butt" stroke-linejoin="miter" stroke="rgb(100%, 100%, 100%)" stroke-opacity="1" stroke-miterlimit="2" d="M 134.273438 228.058594 L 228.058594 134.273438 "/>
<path fill="none" stroke-width="0.5" stroke-linecap="butt" stroke-linejoin="miter" stroke="rgb(100%, 100%, 100%)" stroke-opacity="1" stroke-miterlimit="2" d="M 228.058594 134.273438 L 144.695312 50.910156 "/>
<path fill="none" stroke-width="0.5" stroke-linecap="butt" stroke-linejoin="miter" stroke="rgb(100%, 100%, 100%)" stroke-opacity="1" stroke-miterlimit="2" d="M 144.695312 50.910156 L 50.910156 144.695312 "/>
<path fill="none" stroke-width="0.5" stroke-linecap="butt" stroke-linejoin="miter" stroke="rgb(100%, 100%, 100%)" stroke-opacity="1" stroke-miterlimit="2" d="M 50.910156 144.695312 L 134.273438 228.058594 "/>
<path fill-rule="nonzero" fill="rgb(56.470591%, 47.843137%, 83.92157%)" fill-opacity="1" d="M 644.882812 248.902344 L 728.25 165.535156 L 634.464844 71.75 L 551.097656 155.117188 Z M 644.882812 248.902344 "/>
<path fill="none" stroke-width="0.5" stroke-linecap="butt" stroke-linejoin="miter" stroke="rgb(100%, 100%, 100%)" stroke-opacity="1" stroke-miterlimit="2" d="M 644.882812 248.902344 L 728.25 165.535156 "/>
<path fill="none" stroke-width="0.5" stroke-linecap="butt" stroke-linejoin="miter" stroke="rgb(100%, 100%, 100%)" stroke-opacity="1" stroke-miterlimit="2" d="M 728.25 165.535156 L 634.464844 71.75 "/>
<path fill="none" stroke-width="0.5" stroke-linecap="butt" stroke-linejoin="miter" stroke="rgb(100%, 100%, 100%)" stroke-opacity="1" stroke-miterlimit="2" d="M 634.464844 71.75 L 551.097656 155.117188 "/>
<path fill="none" stroke-width="0.5" stroke-linecap="butt" stroke-linejoin="miter" stroke="rgb(100%, 100%, 100%)" stroke-opacity="1" stroke-miterlimit="2" d="M 551.097656 155.117188 L 644.882812 248.902344 "/>
<path fill-rule="nonzero" fill="rgb(56.470591%, 47.843137%, 83.92157%)" fill-opacity="1" d="M 394.789062 498.996094 L 478.15625 415.632812 L 384.367188 321.84375 L 301.003906 405.210938 Z M 394.789062 498.996094 "/>
<path fill="none" stroke-width="0.5" stroke-linecap="butt" stroke-linejoin="miter" stroke="rgb(100%, 100%, 100%)" stroke-opacity="1" stroke-miterlimit="2" d="M 394.789062 498.996094 L 478.15625 415.632812 "/>
<path fill="none" stroke-width="0.5" stroke-linecap="butt" stroke-linejoin="miter" stroke="rgb(100%, 100%, 100%)" stroke-opacity="1" stroke-miterlimit="2" d="M 478.15625 415.632812 L 384.367188 321.84375 "/>
<path fill="none" stroke-width="0.5" stroke-linecap="butt" stroke-linejoin="miter" stroke="rgb(100%, 100%, 100%)" stroke-opacity="1" stroke-miterlimit="2" d="M 384.367188 321.84375 L 301.003906 405.210938 "/>
<path fill="none" stroke-width="0.5" stroke-linecap="butt" stroke-linejoin="miter" stroke="rgb(100%, 100%, 100%)" stroke-opacity="1" stroke-miterlimit="2" d="M 301.003906 405.210938 L 394.789062 498.996094 "/>
<path fill-rule="nonzero" fill="rgb(30.980393%, 31.764707%, 54.901963%)" fill-opacity="1" d="M 478.15625 415.632812 L 657.910156 407.816406 L 644.882812 248.902344 L 551.097656 155.117188 L 392.183594 142.089844 L 384.367188 321.84375 Z M 478.15625 415.632812 "/>
<path fill="none" stroke-width="0.5" stroke-linecap="butt" stroke-linejoin="miter" stroke="rgb(100%, 100%, 100%)" stroke-opacity="1" stroke-miterlimit="2" d="M 478.15625 415.632812 L 657.910156 407.816406 "/>
<path fill="none" stroke-width="0.5" stroke-linecap="butt" stroke-linejoin="miter" stroke="rgb(100%, 100%, 100%)" stroke-opacity="1" stroke-miterlimit="2" d="M 657.910156 407.816406 L 644.882812 248.902344 "/>
<path fill="none" stroke-width="0.5" stroke-linecap="butt" stroke-linejoin="miter" stroke="rgb(100%, 100%, 100%)" stroke-opacity="1" stroke-miterlimit="2" d="M 644.882812 248.902344 L 551.097656 155.117188 "/>
<path fill="none" stroke-width="0.5" stroke-linecap="butt" stroke-linejoin="miter" stroke="rgb(100%, 100%, 100%)" stroke-opacity="1" stroke-miterlimit="2" d="M 551.097656 155.117188 L 392.183594 142.089844 "/>
<path fill="none" stroke-width="0.5" stroke-linecap="butt" stroke-linejoin="miter" stroke="rgb(100%, 100%, 100%)" stroke-opacity="1" stroke-miterlimit="2" d="M 392.183594 142.089844 L 384.367188 321.84375 "/>
<path fill="none" stroke-width="0.5" stroke-linecap="butt" stroke-linejoin="miter" stroke="rgb(100%, 100%, 100%)" stroke-opacity="1" stroke-miterlimit="2" d="M 384.367188 321.84375 L 478.15625 415.632812 "/>
<path fill-rule="nonzero" fill="rgb(56.470591%, 47.843137%, 83.92157%)" fill-opacity="1" d="M 655.304688 749.089844 L 749.089844 655.304688 L 665.726562 571.941406 L 571.941406 665.726562 Z M 655.304688 749.089844 "/>
<path fill="none" stroke-width="0.5" stroke-linecap="butt" stroke-linejoin="miter" stroke="rgb(100%, 100%, 100%)" stroke-opacity="1" stroke-miterlimit="2" d="M 655.304688 749.089844 L 749.089844 655.304688 "/>
<path fill="none" stroke-width="0.5" stroke-linecap="butt" stroke-linejoin="miter" stroke="rgb(100%, 100%, 100%)" stroke-opacity="1" stroke-miterlimit="2" d="M 749.089844 655.304688 L 665.726562 571.941406 "/>
<path fill="none" stroke-width="0.5" stroke-linecap="butt" stroke-linejoin="miter" stroke="rgb(100%, 100%, 100%)" stroke-opacity="1" stroke-miterlimit="2" d="M 665.726562 571.941406 L 571.941406 665.726562 "/>
<path fill="none" stroke-width="0.5" stroke-linecap="butt" stroke-linejoin="miter" stroke="rgb(100%, 100%, 100%)" stroke-opacity="1" stroke-miterlimit="2" d="M 571.941406 665.726562 L 655.304688 749.089844 "/>
<path fill-rule="nonzero" fill="rgb(56.470591%, 47.843137%, 83.92157%)" fill-opacity="1" d="M 144.695312 749.089844 L 228.058594 665.726562 L 134.273438 571.941406 L 50.910156 655.304688 Z M 144.695312 749.089844 "/>
<path fill="none" stroke-width="0.5" stroke-linecap="butt" stroke-linejoin="miter" stroke="rgb(100%, 100%, 100%)" stroke-opacity="1" stroke-miterlimit="2" d="M 144.695312 749.089844 L 228.058594 665.726562 "/>
<path fill="none" stroke-width="0.5" stroke-linecap="butt" stroke-linejoin="miter" stroke="rgb(100%, 100%, 100%)" stroke-opacity="1" stroke-miterlimit="2" d="M 228.058594 665.726562 L 134.273438 571.941406 "/>
<path fill="none" stroke-width="0.5" stroke-linecap="butt" stroke-linejoin="miter" stroke="rgb(100%, 100%, 100%)" stroke-opacity="1" stroke-miterlimit="2" d="M 134.273438 571.941406 L 50.910156 655.304688 "/>
<path fill="none" stroke-width="0.5" stroke-linecap="butt" stroke-linejoin="miter" stroke="rgb(100%, 100%, 100%)" stroke-opacity="1" stroke-miterlimit="2" d="M 50.910156 655.304688 L 144.695312 749.089844 "/>
<path fill-rule="nonzero" fill="rgb(30.980393%, 31.764707%, 54.901963%)" fill-opacity="1" d="M 134.273438 400 L 301.003906 405.210938 L 384.367188 321.84375 L 392.183594 142.089844 L 228.058594 134.273438 L 134.273438 228.058594 Z M 134.273438 400 "/>
<path fill="none" stroke-width="0.5" stroke-linecap="butt" stroke-linejoin="miter" stroke="rgb(100%, 100%, 100%)" stroke-opacity="1" stroke-miterlimit="2" d="M 134.273438 400 L 301.003906 405.210938 "/>
<path fill="none" stroke-width="0.5" stroke-linecap="butt" stroke-linejoin="miter" stroke="rgb(100%, 100%, 100%)" stroke-opacity="1" stroke-miterlimit="2" d="M 301.003906 405.210938 L 384.367188 321.84375 "/>
<path fill="none" stroke-width="0.5" stroke-linecap="butt" stroke-linejoin="miter" stroke="rgb(100%, 100%, 100%)" stroke-opacity="1" stroke-miterlimit="2" d="M 384.367188 321.84375 L 392.183594 142.089844 "/>
<path fill="none" stroke-width="0.5" stroke-linecap="butt" stroke-linejoin="miter" stroke="rgb(100%, 100%, 100%)" stroke-opacity="1" stroke-miterlimit="2" d="M 392.183594 142.089844 L 228.058594 134.273438 "/>
<path fill="none" stroke-width="0.5" stroke-linecap="butt" stroke-linejoin="miter" stroke="rgb(100%, 100%, 100%)" stroke-opacity="1" stroke-miterlimit="2" d="M 228.058594 134.273438 L 134.273438 228.058594 "/>
<path fill="none" stroke-width="0.5" stroke-linecap="butt" stroke-linejoin="miter" stroke="rgb(100%, 100%, 100%)" stroke-opacity="1" stroke-miterlimit="2" d="M 134.273438 228.058594 L 134.273438 400 "/>
<path fill-rule="nonzero" fill="rgb(30.980393%, 31.764707%, 54.901963%)" fill-opacity="1" d="M 228.058594 665.726562 L 400 665.726562 L 394.789062 498.996094 L 301.003906 405.210938 L 134.273438 400 L 134.273438 571.941406 Z M 228.058594 665.726562 "/>
<path fill="none" stroke-width="0.5" stroke-linecap="butt" stroke-linejoin="miter" stroke="rgb(100%, 100%, 100%)" stroke-opacity="1" stroke-miterlimit="2" d="M 228.058594 665.726562 L 400 665.726562 "/>
<path fill="none" stroke-width="0.5" stroke-linecap="butt" stroke-linejoin="miter" stroke="rgb(100%, 100%, 100%)" stroke-opacity="1" stroke-miterlimit="2" d="M 400 665.726562 L 394.789062 498.996094 "/>
<path fill="none" stroke-width="0.5" stroke-linecap="butt" stroke-linejoin="miter" stroke="rgb(100%, 100%, 100%)" stroke-opacity="1" stroke-miterlimit="2" d="M 394.789062 498.996094 L 301.003906 405.210938 "/>
<path fill="none" stroke-width="0.5" stroke-linecap="butt" stroke-linejoin="miter" stroke="rgb(100%, 100%, 100%)" stroke-opacity="1" stroke-miterlimit="2" d="M 301.003906 405.210938 L 134.273438 400 "/>
<path fill="none" stroke-width="0.5" stroke-linecap="butt" stroke-linejoin="miter" stroke="rgb(100%, 100%, 100%)" stroke-opacity="1" stroke-miterlimit="2" d="M 134.273438 400 L 134.273438 571.941406 "/>
<path fill="none" stroke-width="0.5" stroke-linecap="butt" stroke-linejoin="miter" stroke="rgb(100%, 100%, 100%)" stroke-opacity="1" stroke-miterlimit="2" d="M 134.273438 571.941406 L 228.058594 665.726562 "/>
</svg>
