<?xml version="1.0" encoding="UTF-8"?>
<svg xmlns="http://www.w3.org/2000/svg" xmlns:xlink="http://www.w3.org/1999/xlink" width="800" height="800" viewBox="0 0 800 800">
<rect x="-80" y="-80" width="960" height="960" fill="rgb(100%, 100%, 100%)" fill-opacity="1"/>
<path fill-rule="nonzero" fill="rgb(100%, 100%, 100%)" fill-opacity="1" d="M 24 784 L 776 784 L 776 16 L 24 16 Z M 24 784 "/>
<path fill-rule="nonzero" fill="rgb(17.254902%, 16.470589%, 29.019609%)" fill-opacity="1" d="M 298.160156 438.652344 L 319.933594 451.042969 L 350.164062 451.519531 L 376.53125 434.699219 L 400 408.898438 L 400 391.101562 L 376.53125 365.300781 L 350.164062 348.480469 L 319.933594 348.957031 L 298.160156 361.347656 L 281.84375 386.746094 L 281.84375 413.253906 Z M 298.160156 438.652344 "/>
<path fill="none" stroke-width="0.5" stroke-linecap="butt" stroke-linejoin="miter" stroke="rgb(100%, 100%, 100%)" stroke-opacity="1" stroke-miterlimit="2" d="M 298.160156 438.652344 L 319.933594 451.042969 "/>
<path fill="none" stroke-width="0.5" stroke-linecap="butt" stroke-linejoin="miter" stroke="rgb(100%, 100%, 100%)" stroke-opacity="1" stroke-miterlimit="2" d="M 319.933594 451.042969 L 350.164062 451.519531 "/>
<path fill="none" stroke-width="0.5" stroke-linecap="butt" stroke-linejoin="miter" stroke="rgb(100%, 100%, 100%)" stroke-opacity="1" stroke-miterlimit="2" d="M 350.164062 451.519531 L 376.53125 434.699219 "/>
<path fill="none" stroke-width="0.5" stroke-linecap="butt" stroke-linejoin="miter" stroke="rgb(100%, 100%, 100%)" stroke-opacity="1" stroke-miterlimit="2" d="M 376.53125 434.699219 L 400 408.898438 "/>
<path fill="none" stroke-width="0.5" stroke-linecap="butt" stroke-linejoin="miter" stroke="rgb(100%, 100%, 100%)" stroke-opacity="1" stroke-miterlimit="2" d="M 400 408.898438 L 400 391.101562 "/>
<path fill="none" stroke-width="0.5" stroke-linecap="butt" stroke-linejoin="miter" stroke="rgb(100%, 100%, 100%)" stroke-opacity="1" stroke-miterlimit="2" d="M 400 391.101562 L 376.53125 365.300781 "/>
<path fill="none" stroke-width="0.5" stroke-linecap="butt" stroke-linejoin="miter" stroke="rgb(100%, 100%, 100%)" stroke-opacity="1" stroke-miterlimit="2" d="M 376.53125 365.300781 L 350.164062 348.480469 "/>
<path fill="none" stroke-width="0.5" stroke-linecap="butt" stroke-linejoin="miter" stroke="rgb(100%, 100%, 100%)" stroke-opacity="1" stroke-miterlimit="2" d="M 350.164062 348.480469 L 319.933594 348.957031 "/>
<path fill="none" stroke-width="0.5" stroke-linecap="butt" stroke-linejoin="miter" stroke="rgb(100%, 100%, 100%)" stroke-opacity="1" stroke-miterlimit="2" d="M 319.933594 348.957031 L 298.160156 361.347656 "/>
<path fill="none" stroke-width="0.5" stroke-linecap="butt" stroke-linejoin="miter" stroke="rgb(100%, 100%, 100%)" stroke-opacity="1" stroke-miterlimit="2" d="M 298.160156 361.347656 L 281.84375 386.746094 "/>
<path fill="none" stroke-width="0.5" stroke-linecap="butt" stroke-linejoin="miter" stroke="rgb(100%, 100%, 100%)" stroke-opacity="1" stroke-miterlimit="2" d="M 281.84375 386.746094 L 281.84375 413.253906 "/>
<path fill="none" stroke-width="0.5" stroke-linecap="butt" stroke-linejoin="miter" stroke="rgb(100%, 100%, 100%)" stroke-opacity="1" stroke-miterlimit="2" d="M 281.84375 413.253906 L 298.160156 438.652344 "/>
<path fill-rule="nonzero" fill="rgb(85.490197%, 74.901962%, 100%)" fill-opacity="1" d="M 380.058594 477.074219 L 350.164062 451.519531 L 351.398438 496.777344 Z M 380.058594 477.074219 "/>
<path fill="none" stroke-width="0.5" stroke-linecap="butt" stroke-linejoin="miter" stroke="rgb(100%, 100%, 100%)" stroke-opacity="1" stroke-miterlimit="2" d="M 380.058594 477.074219 L 350.164062 451.519531 "/>
<path fill="none" stroke-width="0.5" stroke-linecap="butt" stroke-linejoin="miter" stroke="rgb(100%, 100%, 100%)" stroke-opacity="1" stroke-miterlimit="2" d="M 350.164062 451.519531 L 351.398438 496.777344 "/>
<path fill="none" stroke-width="0.5" stroke-linecap="butt" stroke-linejoin="miter" stroke="rgb(100%, 100%, 100%)" stroke-opacity="1" stroke-miterlimit="2" d="M 351.398438 496.777344 L 380.058594 477.074219 "/>
<path fill-rule="nonzero" fill="rgb(85.490197%, 74.901962%, 100%)" fill-opacity="1" d="M 382.265625 281.292969 L 400 248.71875 L 364.746094 248.984375 Z M 382.265625 281.292969 "/>
<path fill="none" stroke-width="0.5" stroke-linecap="butt" stroke-linejoin="miter" stroke="rgb(100%, 100%, 100%)" stroke-opacity="1" stroke-miterlimit="2" d="M 382.265625 281.292969 L 400 248.71875 "/>
<path fill="none" stroke-width="0.5" stroke-linecap="butt" stroke-linejoin="miter" stroke="rgb(100%, 100%, 100%)" stroke-opacity="1" stroke-miterlimit="2" d="M 400 248.71875 L 364.746094 248.984375 "/>
<path fill="none" stroke-width="0.5" stroke-linecap="butt" stroke-linejoin="miter" stroke="rgb(100%, 100%, 100%)" stroke-opacity="1" stroke-miterlimit="2" d="M 364.746094 248.984375 L 382.265625 281.292969 "/>
<path fill-rule="nonzero" fill="rgb(56.470591%, 47.843137%, 83.92157%)" fill-opacity="1" d="M 448.601562 496.777344 L 483.773438 496.828125 L 480.066406 451.042969 L 449.835938 451.519531 Z M 448.601562 496.777344 "/>
<path fill="none" stroke-width="0.5" stroke-linecap="butt" stroke-linejoin="miter" stroke="rgb(100%, 100%, 100%)" stroke-opacity="1" stroke-miterlimit="2" d="M 448.601562 496.777344 L 483.773438 496.828125 "/>
<path fill="none" stroke-width="0.5" stroke-linecap="butt" stroke-linejoin="miter" stroke="rgb(100%, 100%, 100%)" stroke-opacity="1" stroke-miterlimit="2" d="M 483.773438 496.828125 L 480.066406 451.042969 "/>
<path fill="none" stroke-width="0.5" stroke-linecap="butt" stroke-linejoin="miter" stroke="rgb(100%, 100%, 100%)" stroke-opacity="1" stroke-miterlimit="2" d="M 480.066406 451.042969 L 449.835938 451.519531 "/>
<path fill="none" stroke-width="0.5" stroke-linecap="butt" stroke-linejoin="miter" stroke="rgb(100%, 100%, 100%)" stroke-opacity="1" stroke-miterlimit="2" d="M 449.835938 451.519531 L 448.601562 496.777344 "/>
<path fill-rule="nonzero" fill="rgb(85.490197%, 74.901962%, 100%)" fill-opacity="1" d="M 400 551.28125 L 382.265625 518.707031 L 364.746094 551.015625 Z M 400 551.28125 "/>
<path fill="none" stroke-width="0.5" stroke-linecap="butt" stroke-linejoin="miter" stroke="rgb(100%, 100%, 100%)" stroke-opacity="1" stroke-miterlimit="2" d="M 400 551.28125 L 382.265625 518.707031 "/>
<path fill="none" stroke-width="0.5" stroke-linecap="butt" stroke-linejoin="miter" stroke="rgb(100%, 100%, 100%)" stroke-opacity="1" stroke-miterlimit="2" d="M 382.265625 518.707031 L 364.746094 551.015625 "/>
<path fill="none" stroke-width="0.5" stroke-linecap="butt" stroke-linejoin="miter" stroke="rgb(100%, 100%, 100%)" stroke-opacity="1" stroke-miterlimit="2" d="M 364.746094 551.015625 L 400 551.28125 "/>
<path fill-rule="nonzero" fill="rgb(85.490197%, 74.901962%, 100%)" fill-opacity="1" d="M 417.734375 281.292969 L 435.253906 248.984375 L 400 248.71875 Z M 417.734375 281.292969 "/>
<path fill="none" stroke-width="0.5" stroke-linecap="butt" stroke-linejoin="miter" stroke="rgb(100%, 100%, 100%)" stroke-opacity="1" stroke-miterlimit="2" d="M 417.734375 281.292969 L 435.253906 248.984375 "/>
<path fill="none" stroke-width="0.5" stroke-linecap="butt" stroke-linejoin="miter" stroke="rgb(100%, 100%, 100%)" stroke-opacity="1" stroke-miterlimit="2" d="M 435.253906 248.984375 L 400 248.71875 "/>
<path fill="none" stroke-width="0.5" stroke-linecap="butt" stroke-linejoin="miter" stroke="rgb(100%, 100%, 100%)" stroke-opacity="1" stroke-miterlimit="2" d="M 400 248.71875 L 417.734375 281.292969 "/>
<path fill-rule="nonzero" fill="rgb(56.470591%, 47.843137%, 83.92157%)" fill-opacity="1" d="M 480.066406 348.957031 L 483.773438 303.171875 L 448.601562 303.222656 L 449.835938 348.480469 Z M 480.066406 348.957031 "/>
<path fill="none" stroke-width="0.5" stroke-linecap="butt" stroke-linejoin="miter" stroke="rgb(100%, 100%, 100%)" stroke-opacity="1" stroke-miterlimit="2" d="M 480.066406 348.957031 L 483.773438 303.171875 "/>
<path fill="none" stroke-width="0.5" stroke-linecap="butt" stroke-linejoin="miter" stroke="rgb(100%, 100%, 100%)" stroke-opacity="1" stroke-miterlimit="2" d="M 483.773438 303.171875 L 448.601562 303.222656 "/>
<path fill="none" stroke-width="0.5" stroke-linecap="butt" stroke-linejoin="miter" stroke="rgb(100%, 100%, 100%)" stroke-opacity="1" stroke-miterlimit="2" d="M 448.601562 303.222656 L 449.835938 348.480469 "/>
<path fill="none" stroke-width="0.5" stroke-linecap="butt" stroke-linejoin="miter" stroke="rgb(100%, 100%, 100%)" stroke-opacity="1" stroke-miterlimit="2" d="M 449.835938 348.480469 L 480.066406 348.957031 "/>
<path fill-rule="nonzero" fill="rgb(85.490197%, 74.901962%, 100%)" fill-opacity="1" d="M 417.671875 582.457031 L 435.253906 551.015625 L 400 551.28125 Z M 417.671875 582.457031 "/>
<path fill="none" stroke-width="0.5" stroke-linecap="butt" stroke-linejoin="miter" stroke="rgb(100%, 100%, 100%)" stroke-opacity="1" stroke-miterlimit="2" d="M 417.671875 582.457031 L 435.253906 551.015625 "/>
<path fill="none" stroke-width="0.5" stroke-linecap="butt" stroke-linejoin="miter" stroke="rgb(100%, 100%, 100%)" stroke-opacity="1" stroke-miterlimit="2" d="M 435.253906 551.015625 L 400 551.28125 "/>
<path fill="none" stroke-width="0.5" stroke-linecap="butt" stroke-linejoin="miter" stroke="rgb(100%, 100%, 100%)" stroke-opacity="1" stroke-miterlimit="2" d="M 400 551.28125 L 417.671875 582.457031 "/>
<path fill-rule="nonzero" fill="rgb(85.490197%, 74.901962%, 100%)" fill-opacity="1" d="M 419.941406 477.074219 L 449.835938 451.519531 L 423.46875 434.699219 Z M 419.941406 477.074219 "/>
<path fill="none" stroke-width="0.5" stroke-linecap="butt" stroke-linejoin="miter" stroke="rgb(100%, 100%, 100%)" stroke-opacity="1" stroke-miterlimit="2" d="M 419.941406 477.074219 L 449.835938 451.519531 "/>
<path fill="none" stroke-width="0.5" stroke-linecap="butt" stroke-linejoin="miter" stroke="rgb(100%, 100%, 100%)" stroke-opacity="1" stroke-miterlimit="2" d="M 449.835938 451.519531 L 423.46875 434.699219 "/>
<path fill="none" stroke-width="0.5" stroke-linecap="butt" stroke-linejoin="miter" stroke="rgb(100%, 100%, 100%)" stroke-opacity="1" stroke-miterlimit="2" d="M 423.46875 434.699219 L 419.941406 477.074219 "/>
<path fill-rule="nonzero" fill="rgb(85.490197%, 74.901962%, 100%)" fill-opacity="1" d="M 449.835938 348.480469 L 419.941406 322.925781 L 423.46875 365.300781 Z M 449.835938 348.480469 "/>
<path fill="none" stroke-width="0.5" stroke-linecap="butt" stroke-linejoin="miter" stroke="rgb(100%, 100%, 100%)" stroke-opacity="1" stroke-miterlimit="2" d="M 449.835938 348.480469 L 419.941406 322.925781 "/>
<path fill="none" stroke-width="0.5" stroke-linecap="butt" stroke-linejoin="miter" stroke="rgb(100%, 100%, 100%)" stroke-opacity="1" stroke-miterlimit="2" d="M 419.941406 322.925781 L 423.46875 365.300781 "/>
<path fill="none" stroke-width="0.5" stroke-linecap="butt" stroke-linejoin="miter" stroke="rgb(100%, 100%, 100%)" stroke-opacity="1" stroke-miterlimit="2" d="M 423.46875 365.300781 L 449.835938 348.480469 "/>
<path fill-rule="nonzero" fill="rgb(56.470591%, 47.843137%, 83.92157%)" fill-opacity="1" d="M 435.253906 551.015625 L 466.699219 532.328125 L 448.601562 496.777344 L 417.734375 518.707031 Z M 435.253906 551.015625 "/>
<path fill="none" stroke-width="0.5" stroke-linecap="butt" stroke-linejoin="miter" stroke="rgb(100%, 100%, 100%)" stroke-opacity="1" stroke-miterlimit="2" d="M 435.253906 551.015625 L 466.699219 532.328125 "/>
<path fill="none" stroke-width="0.5" stroke-linecap="butt" stroke-linejoin="miter" stroke="rgb(100%, 100%, 100%)" stroke-opacity="1" stroke-miterlimit="2" d="M 466.699219 532.328125 L 448.601562 496.777344 "/>
<path fill="none" stroke-width="0.5" stroke-linecap="butt" stroke-linejoin="miter" stroke="rgb(100%, 100%, 100%)" stroke-opacity="1" stroke-miterlimit="2" d="M 448.601562 496.777344 L 417.734375 518.707031 "/>
<path fill="none" stroke-width="0.5" stroke-linecap="butt" stroke-linejoin="miter" stroke="rgb(100%, 100%, 100%)" stroke-opacity="1" stroke-miterlimit="2" d="M 417.734375 518.707031 L 435.253906 551.015625 "/>
<path fill-rule="nonzero" fill="rgb(56.470591%, 47.843137%, 83.92157%)" fill-opacity="1" d="M 350.164062 348.480469 L 351.398438 303.222656 L 316.226562 303.171875 L 319.933594 348.957031 Z M 350.164062 348.480469 "/>
<path fill="none" stroke-width="0.5" stroke-linecap="butt" stroke-linejoin="miter" stroke="rgb(100%, 100%, 100%)" stroke-opacity="1" stroke-miterlimit="2" d="M 350.164062 348.480469 L 351.398438 303.222656 "/>
<path fill="none" stroke-width="0.5" stroke-linecap="butt" stroke-linejoin="miter" stroke="rgb(100%, 100%, 100%)" stroke-opacity="1" stroke-miterlimit="2" d="M 351.398438 303.222656 L 316.226562 303.171875 "/>
<path fill="none" stroke-width="0.5" stroke-linecap="butt" stroke-linejoin="miter" stroke="rgb(100%, 100%, 100%)" stroke-opacity="1" stroke-miterlimit="2" d="M 316.226562 303.171875 L 319.933594 348.957031 "/>
<path fill="none" stroke-width="0.5" stroke-linecap="butt" stroke-linejoin="miter" stroke="rgb(100%, 100%, 100%)" stroke-opacity="1" stroke-miterlimit="2" d="M 319.933594 348.957031 L 350.164062 348.480469 "/>
<path fill-rule="nonzero" fill="rgb(85.490197%, 74.901962%, 100%)" fill-opacity="1" d="M 351.398438 303.222656 L 333.300781 267.671875 L 316.226562 303.171875 Z M 351.398438 303.222656 "/>
<path fill="none" stroke-width="0.5" stroke-linecap="butt" stroke-linejoin="miter" stroke="rgb(100%, 100%, 100%)" stroke-opacity="1" stroke-miterlimit="2" d="M 351.398438 303.222656 L 333.300781 267.671875 "/>
<path fill="none" stroke-width="0.5" stroke-linecap="butt" stroke-linejoin="miter" stroke="rgb(100%, 100%, 100%)" stroke-opacity="1" stroke-miterlimit="2" d="M 333.300781 267.671875 L 316.226562 303.171875 "/>
<path fill="none" stroke-width="0.5" stroke-linecap="butt" stroke-linejoin="miter" stroke="rgb(100%, 100%, 100%)" stroke-opacity="1" stroke-miterlimit="2" d="M 316.226562 303.171875 L 351.398438 303.222656 "/>
<path fill-rule="nonzero" fill="rgb(85.490197%, 74.901962%, 100%)" fill-opacity="1" d="M 350.164062 348.480469 L 380.058594 322.925781 L 351.398438 303.222656 Z M 350.164062 348.480469 "/>
<path fill="none" stroke-width="0.5" stroke-linecap="butt" stroke-linejoin="miter" stroke="rgb(100%, 100%, 100%)" stroke-opacity="1" stroke-miterlimit="2" d="M 350.164062 348.480469 L 380.058594 322.925781 "/>
<path fill="none" stroke-width="0.5" stroke-linecap="butt" stroke-linejoin="miter" stroke="rgb(100%, 100%, 100%)" stroke-opacity="1" stroke-miterlimit="2" d="M 380.058594 322.925781 L 351.398438 303.222656 "/>
<path fill="none" stroke-width="0.5" stroke-linecap="butt" stroke-linejoin="miter" stroke="rgb(100%, 100%, 100%)" stroke-opacity="1" stroke-miterlimit="2" d="M 351.398438 303.222656 L 350.164062 348.480469 "/>
<path fill-rule="nonzero" fill="rgb(85.490197%, 74.901962%, 100%)" fill-opacity="1" d="M 376.53125 365.300781 L 380.058594 322.925781 L 350.164062 348.480469 Z M 376.53125 365.300781 "/>
<path fill="none" stroke-width="0.5" stroke-linecap="butt" stroke-linejoin="miter" stroke="rgb(100%, 100%, 100%)" stroke-opacity="1" stroke-miterlimit="2" d="M 376.53125 365.300781 L 380.058594 322.925781 "/>
<path fill="none" stroke-width="0.5" stroke-linecap="butt" stroke-linejoin="miter" stroke="rgb(100%, 100%, 100%)" stroke-opacity="1" stroke-miterlimit="2" d="M 380.058594 322.925781 L 350.164062 348.480469 "/>
<path fill="none" stroke-width="0.5" stroke-linecap="butt" stroke-linejoin="miter" stroke="rgb(100%, 100%, 100%)" stroke-opacity="1" stroke-miterlimit="2" d="M 350.164062 348.480469 L 376.53125 365.300781 "/>
<path fill-rule="nonzero" fill="rgb(85.490197%, 74.901962%, 100%)" fill-opacity="1" d="M 417.671875 582.457031 L 400 551.28125 L 382.324219 582.457031 Z M 417.671875 582.457031 "/>
<path fill="none" stroke-width="0.5" stroke-linecap="butt" stroke-linejoin="miter" stroke="rgb(100%, 100%, 100%)" stroke-opacity="1" stroke-miterlimit="2" d="M 417.671875 582.457031 L 400 551.28125 "/>
<path fill="none" stroke-width="0.5" stroke-linecap="butt" stroke-linejoin="miter" stroke="rgb(100%, 100%, 100%)" stroke-opacity="1" stroke-miterlimit="2" d="M 400 551.28125 L 382.324219 582.457031 "/>
<path fill="none" stroke-width="0.5" stroke-linecap="butt" stroke-linejoin="miter" stroke="rgb(100%, 100%, 100%)" stroke-opacity="1" stroke-miterlimit="2" d="M 382.324219 582.457031 L 417.671875 582.457031 "/>
<path fill-rule="nonzero" fill="rgb(56.470591%, 47.843137%, 83.92157%)" fill-opacity="1" d="M 448.601562 303.222656 L 466.699219 267.671875 L 435.253906 248.984375 L 417.734375 281.292969 Z M 448.601562 303.222656 "/>
<path fill="none" stroke-width="0.5" stroke-linecap="butt" stroke-linejoin="miter" stroke="rgb(100%, 100%, 100%)" stroke-opacity="1" stroke-miterlimit="2" d="M 448.601562 303.222656 L 466.699219 267.671875 "/>
<path fill="none" stroke-width="0.5" stroke-linecap="butt" stroke-linejoin="miter" stroke="rgb(100%, 100%, 100%)" stroke-opacity="1" stroke-miterlimit="2" d="M 466.699219 267.671875 L 435.253906 248.984375 "/>
<path fill="none" stroke-width="0.5" stroke-linecap="butt" stroke-linejoin="miter" stroke="rgb(100%, 100%, 100%)" stroke-opacity="1" stroke-miterlimit="2" d="M 435.253906 248.984375 L 417.734375 281.292969 "/>
<path fill="none" stroke-width="0.5" stroke-linecap="butt" stroke-linejoin="miter" stroke="rgb(100%, 100%, 100%)" stroke-opacity="1" stroke-miterlimit="2" d="M 417.734375 281.292969 L 448.601562 303.222656 "/>
<path fill-rule="nonzero" fill="rgb(17.254902%, 16.470589%, 29.019609%)" fill-opacity="1" d="M 423.46875 434.699219 L 449.835938 451.519531 L 480.066406 451.042969 L 501.839844 438.652344 L 518.15625 413.253906 L 518.15625 386.746094 L 501.839844 361.347656 L 480.066406 348.957031 L 449.835938 348.480469 L 423.46875 365.300781 L 400 391.101562 L 400 408.898438 Z M 423.46875 434.699219 "/>
<path fill="none" stroke-width="0.5" stroke-linecap="butt" stroke-linejoin="miter" stroke="rgb(100%, 100%, 100%)" stroke-opacity="1" stroke-miterlimit="2" d="M 423.46875 434.699219 L 449.835938 451.519531 "/>
<path fill="none" stroke-width="0.5" stroke-linecap="butt" stroke-linejoin="miter" stroke="rgb(100%, 100%, 100%)" stroke-opacity="1" stroke-miterlimit="2" d="M 449.835938 451.519531 L 480.066406 451.042969 "/>
<path fill="none" stroke-width="0.5" stroke-linecap="butt" stroke-linejoin="miter" stroke="rgb(100%, 100%, 100%)" stroke-opacity="1" stroke-miterlimit="2" d="M 480.066406 451.042969 L 501.839844 438.652344 "/>
<path fill="none" stroke-width="0.5" stroke-linecap="butt" stroke-linejoin="miter" stroke="rgb(100%, 100%, 100%)" stroke-opacity="1" stroke-miterlimit="2" d="M 501.839844 438.652344 L 518.15625 413.253906 "/>
<path fill="none" stroke-width="0.5" stroke-linecap="butt" stroke-linejoin="miter" stroke="rgb(100%, 100%, 100%)" stroke-opacity="1" stroke-miterlimit="2" d="M 518.15625 413.253906 L 518.15625 386.746094 "/>
<path fill="none" stroke-width="0.5" stroke-linecap="butt" stroke-linejoin="miter" stroke="rgb(100%, 100%, 100%)" stroke-opacity="1" stroke-miterlimit="2" d="M 518.15625 386.746094 L 501.839844 361.347656 "/>
<path fill="none" stroke-width="0.5" stroke-linecap="butt" stroke-linejoin="miter" stroke="rgb(100%, 100%, 100%)" stroke-opacity="1" stroke-miterlimit="2" d="M 501.839844 361.347656 L 480.066406 348.957031 "/>
<path fill="none" stroke-width="0.5" stroke-linecap="butt" stroke-linejoin="miter" stroke="rgb(100%, 100%, 100%)" stroke-opacity="1" stroke-miterlimit="2" d="M 480.066406 348.957031 L 449.835938 348.480469 "/>
<path fill="none" stroke-width="0.5" stroke-linecap="butt" stroke-linejoin="miter" stroke="rgb(100%, 100%, 100%)" stroke-opacity="1" stroke-miterlimit="2" d="M 449.835938 348.480469 L 423.46875 365.300781 "/>
<path fill="none" stroke-width="0.5" stroke-linecap="butt" stroke-linejoin="miter" stroke="rgb(100%, 100%, 100%)" stroke-opacity="1" stroke-miterlimit="2" d="M 423.46875 365.300781 L 400 391.101562 "/>
<path fill="none" stroke-width="0.5" stroke-linecap="butt" stroke-linejoin="miter" stroke="rgb(100%, 100%, 100%)" stroke-opacity="1" stroke-miterlimit="2" d="M 400 391.101562 L 400 408.898438 "/>
<path fill="none" stroke-width="0.5" stroke-linecap="butt" stroke-linejoin="miter" stroke="rgb(100%, 100%, 100%)" stroke-opacity="1" stroke-miterlimit="2" d="M 400 408.898438 L 423.46875 434.699219 "/>
<path fill-rule="nonzero" fill="rgb(85.490197%, 74.901962%, 100%)" fill-opacity="1" d="M 448.601562 303.222656 L 417.734375 281.292969 L 419.941406 322.925781 Z M 448.601562 303.222656 "/>
<path fill="none" stroke-width="0.5" stroke-linecap="butt" stroke-linejoin="miter" stroke="rgb(100%, 100%, 100%)" stroke-opacity="1" stroke-miterlimit="2" d="M 448.601562 303.222656 L 417.734375 281.292969 "/>
<path fill="none" stroke-width="0.5" stroke-linecap="butt" stroke-linejoin="miter" stroke="rgb(100%, 100%, 100%)" stroke-opacity="1" stroke-miterlimit="2" d="M 417.734375 281.292969 L 419.941406 322.925781 "/>
<path fill="none" stroke-width="0.5" stroke-linecap="butt" stroke-linejoin="miter" stroke="rgb(100%, 100%, 100%)" stroke-opacity="1" stroke-miterlimit="2" d="M 419.941406 322.925781 L 448.601562 303.222656 "/>
<path fill-rule="nonzero" fill="rgb(85.490197%, 74.901962%, 100%)" fill-opacity="1" d="M 400 551.28125 L 417.734375 518.707031 L 382.265625 518.707031 Z M 400 551.28125 "/>
<path fill="none" stroke-width="0.5" stroke-linecap="butt" stroke-linejoin="miter" stroke="rgb(100%, 100%, 100%)" stroke-opacity="1" stroke-miterlimit="2" d="M 400 551.28125 L 417.734375 518.707031 "/>
<path fill="none" stroke-width="0.5" stroke-linecap="butt" stroke-linejoin="miter" stroke="rgb(100%, 100%, 100%)" stroke-opacity="1" stroke-miterlimit="2" d="M 417.734375 518.707031 L 382.265625 518.707031 "/>
<path fill="none" stroke-width="0.5" stroke-linecap="butt" stroke-linejoin="miter" stroke="rgb(100%, 100%, 100%)" stroke-opacity="1" stroke-miterlimit="2" d="M 382.265625 518.707031 L 400 551.28125 "/>
<path fill-rule="nonzero" fill="rgb(85.490197%, 74.901962%, 100%)" fill-opacity="1" d="M 333.300781 532.328125 L 351.398438 496.777344 L 316.226562 496.828125 Z M 333.300781 532.328125 "/>
<path fill="none" stroke-width="0.5" stroke-linecap="butt" stroke-linejoin="miter" stroke="rgb(100%, 100%, 100%)" stroke-opacity="1" stroke-miterlimit="2" d="M 333.300781 532.328125 L 351.398438 496.777344 "/>
<path fill="none" stroke-width="0.5" stroke-linecap="butt" stroke-linejoin="miter" stroke="rgb(100%, 100%, 100%)" stroke-opacity="1" stroke-miterlimit="2" d="M 351.398438 496.777344 L 316.226562 496.828125 "/>
<path fill="none" stroke-width="0.5" stroke-linecap="butt" stroke-linejoin="miter" stroke="rgb(100%, 100%, 100%)" stroke-opacity="1" stroke-miterlimit="2" d="M 316.226562 496.828125 L 333.300781 532.328125 "/>
<path fill-rule="nonzero" fill="rgb(56.470591%, 47.843137%, 83.92157%)" fill-opacity="1" d="M 351.398438 303.222656 L 382.265625 281.292969 L 364.746094 248.984375 L 333.300781 267.671875 Z M 351.398438 303.222656 "/>
<path fill="none" stroke-width="0.5" stroke-linecap="butt" stroke-linejoin="miter" stroke="rgb(100%, 100%, 100%)" stroke-opacity="1" stroke-miterlimit="2" d="M 351.398438 303.222656 L 382.265625 281.292969 "/>
<path fill="none" stroke-width="0.5" stroke-linecap="butt" stroke-linejoin="miter" stroke="rgb(100%, 100%, 100%)" stroke-opacity="1" stroke-miterlimit="2" d="M 382.265625 281.292969 L 364.746094 248.984375 "/>
<path fill="none" stroke-width="0.5" stroke-linecap="butt" stroke-linejoin="miter" stroke="rgb(100%, 100%, 100%)" stroke-opacity="1" stroke-miterlimit="2" d="M 364.746094 248.984375 L 333.300781 267.671875 "/>
<path fill="none" stroke-width="0.5" stroke-linecap="butt" stroke-linejoin="miter" stroke="rgb(100%, 100%, 100%)" stroke-opacity="1" stroke-miterlimit="2" d="M 333.300781 267.671875 L 351.398438 303.222656 "/>
<path fill-rule="nonzero" fill="rgb(85.490197%, 74.901962%, 100%)" fill-opacity="1" d="M 382.265625 518.707031 L 380.058594 477.074219 L 351.398438 496.777344 Z M 382.265625 518.707031 "/>
<path fill="none" stroke-width="0.5" stroke-linecap="butt" stroke-linejoin="miter" stroke="rgb(100%, 100%, 100%)" stroke-opacity="1" stroke-miterlimit="2" d="M 382.265625 518.707031 L 380.058594 477.074219 "/>
<path fill="none" stroke-width="0.5" stroke-linecap="butt" stroke-linejoin="miter" stroke="rgb(100%, 100%, 100%)" stroke-opacity="1" stroke-miterlimit="2" d="M 380.058594 477.074219 L 351.398438 496.777344 "/>
<path fill="none" stroke-width="0.5" stroke-linecap="butt" stroke-linejoin="miter" stroke="rgb(100%, 100%, 100%)" stroke-opacity="1" stroke-miterlimit="2" d="M 351.398438 496.777344 L 382.265625 518.707031 "/>
<path fill-rule="nonzero" fill="rgb(85.490197%, 74.901962%, 100%)" fill-opacity="1" d="M 417.734375 518.707031 L 448.601562 496.777344 L 419.941406 477.074219 Z M 417.734375 518.707031 "/>
<path fill="none" stroke-width="0.5" stroke-linecap="butt" stroke-linejoin="miter" stroke="rgb(100%, 100%, 100%)" stroke-opacity="1" stroke-miterlimit="2" d="M 417.734375 518.707031 L 448.601562 496.777344 "/>
<path fill="none" stroke-width="0.5" stroke-linecap="butt" stroke-linejoin="miter" stroke="rgb(100%, 100%, 100%)" stroke-opacity="1" stroke-miterlimit="2" d="M 448.601562 496.777344 L 419.941406 477.074219 "/>
<path fill="none" stroke-width="0.5" stroke-linecap="butt" stroke-linejoin="miter" stroke="rgb(100%, 100%, 100%)" stroke-opacity="1" stroke-miterlimit="2" d="M 419.941406 477.074219 L 417.734375 518.707031 "/>
<path fill-rule="nonzero" fill="rgb(56.470591%, 47.843137%, 83.92157%)" fill-opacity="1" d="M 364.746094 551.015625 L 382.265625 518.707031 L 351.398438 496.777344 L 333.300781 532.328125 Z M 364.746094 551.015625 "/>
<path fill="none" stroke-width="0.5" stroke-linecap="butt" stroke-linejoin="miter" stroke="rgb(100%, 100%, 100%)" stroke-opacity="1" stroke-miterlimit="2" d="M 364.746094 551.015625 L 382.265625 518.707031 "/>
<path fill="none" stroke-width="0.5" stroke-linecap="butt" stroke-linejoin="miter" stroke="rgb(100%, 100%, 100%)" stroke-opacity="1" stroke-miterlimit="2" d="M 382.265625 518.707031 L 351.398438 496.777344 "/>
<path fill="none" stroke-width="0.5" stroke-linecap="butt" stroke-linejoin="miter" stroke="rgb(100%, 100%, 100%)" stroke-opacity="1" stroke-miterlimit="2" d="M 351.398438 496.777344 L 333.300781 532.328125 "/>
<path fill="none" stroke-width="0.5" stroke-linecap="butt" stroke-linejoin="miter" stroke="rgb(100%, 100%, 100%)" stroke-opacity="1" stroke-miterlimit="2" d="M 333.300781 532.328125 L 364.746094 551.015625 "/>
<path fill-rule="nonzero" fill="rgb(85.490197%, 74.901962%, 100%)" fill-opacity="1" d="M 448.601562 496.777344 L 449.835938 451.519531 L 419.941406 477.074219 Z M 448.601562 496.777344 "/>
<path fill="none" stroke-width="0.5" stroke-linecap="butt" stroke-linejoin="miter" stroke="rgb(100%, 100%, 100%)" stroke-opacity="1" stroke-miterlimit="2" d="M 448.601562 496.777344 L 449.835938 451.519531 "/>
<path fill="none" stroke-width="0.5" stroke-linecap="butt" stroke-linejoin="miter" stroke="rgb(100%, 100%, 100%)" stroke-opacity="1" stroke-miterlimit="2" d="M 449.835938 451.519531 L 419.941406 477.074219 "/>
<path fill="none" stroke-width="0.5" stroke-linecap="butt" stroke-linejoin="miter" stroke="rgb(100%, 100%, 100%)" stroke-opacity="1" stroke-miterlimit="2" d="M 419.941406 477.074219 L 448.601562 496.777344 "/>
<path fill-rule="nonzero" fill="rgb(85.490197%, 74.901962%, 100%)" fill-opacity="1" d="M 435.253906 248.984375 L 417.671875 217.542969 L 400 248.71875 Z M 435.253906 248.984375 "/>
<path fill="none" stroke-width="0.5" stroke-linecap="butt" stroke-linejoin="miter" stroke="rgb(100%, 100%, 100%)" stroke-opacity="1" stroke-miterlimit="2" d="M 435.253906 248.984375 L 417.671875 217.542969 "/>
<path fill="none" stroke-width="0.5" stroke-linecap="butt" stroke-linejoin="miter" stroke="rgb(100%, 100%, 100%)" stroke-opacity="1" stroke-miterlimit="2" d="M 417.671875 217.542969 L 400 248.71875 "/>
<path fill="none" stroke-width="0.5" stroke-linecap="butt" stroke-linejoin="miter" stroke="rgb(100%, 100%, 100%)" stroke-opacity="1" stroke-miterlimit="2" d="M 400 248.71875 L 435.253906 248.984375 "/>
<path fill-rule="nonzero" fill="rgb(85.490197%, 74.901962%, 100%)" fill-opacity="1" d="M 483.773438 303.171875 L 466.699219 267.671875 L 448.601562 303.222656 Z M 483.773438 303.171875 "/>
<path fill="none" stroke-width="0.5" stroke-linecap="butt" stroke-linejoin="miter" stroke="rgb(100%, 100%, 100%)" stroke-opacity="1" stroke-miterlimit="2" d="M 483.773438 303.171875 L 466.699219 267.671875 "/>
<path fill="none" stroke-width="0.5" stroke-linecap="butt" stroke-linejoin="miter" stroke="rgb(100%, 100%, 100%)" stroke-opacity="1" stroke-miterlimit="2" d="M 466.699219 267.671875 L 448.601562 303.222656 "/>
<path fill="none" stroke-width="0.5" stroke-linecap="butt" stroke-linejoin="miter" stroke="rgb(100%, 100%, 100%)" stroke-opacity="1" stroke-miterlimit="2" d="M 448.601562 303.222656 L 483.773438 303.171875 "/>
<path fill-rule="nonzero" fill="rgb(85.490197%, 74.901962%, 100%)" fill-opacity="1" d="M 466.699219 532.328125 L 483.773438 496.828125 L 448.601562 496.777344 Z M 466.699219 532.328125 "/>
<path fill="none" stroke-width="0.5" stroke-linecap="butt" stroke-linejoin="miter" stroke="rgb(100%, 100%, 100%)" stroke-opacity="1" stroke-miterlimit="2" d="M 466.699219 532.328125 L 483.773438 496.828125 "/>
<path fill="none" stroke-width="0.5" stroke-linecap="butt" stroke-linejoin="miter" stroke="rgb(100%, 100%, 100%)" stroke-opacity="1" stroke-miterlimit="2" d="M 483.773438 496.828125 L 448.601562 496.777344 "/>
<path fill="none" stroke-width="0.5" stroke-linecap="butt" stroke-linejoin="miter" stroke="rgb(100%, 100%, 100%)" stroke-opacity="1" stroke-miterlimit="2" d="M 448.601562 496.777344 L 466.699219 532.328125 "/>
<path fill-rule="nonzero" fill="rgb(56.470591%, 47.843137%, 83.92157%)" fill-opacity="1" d="M 376.53125 365.300781 L 423.46875 365.300781 L 419.941406 322.925781 L 380.058594 322.925781 Z M 376.53125 365.300781 "/>
<path fill="none" stroke-width="0.5" stroke-linecap="butt" stroke-linejoin="miter" stroke="rgb(100%, 100%, 100%)" stroke-opacity="1" stroke-miterlimit="2" d="M 376.53125 365.300781 L 423.46875 365.300781 "/>
<path fill="none" stroke-width="0.5" stroke-linecap="butt" stroke-linejoin="miter" stroke="rgb(100%, 100%, 100%)" stroke-opacity="1" stroke-miterlimit="2" d="M 423.46875 365.300781 L 419.941406 322.925781 "/>
<path fill="none" stroke-width="0.5" stroke-linecap="butt" stroke-linejoin="miter" stroke="rgb(100%, 100%, 100%)" stroke-opacity="1" stroke-miterlimit="2" d="M 419.941406 322.925781 L 380.058594 322.925781 "/>
<path fill="none" stroke-width="0.5" stroke-linecap="butt" stroke-linejoin="miter" stroke="rgb(100%, 100%, 100%)" stroke-opacity="1" stroke-miterlimit="2" d="M 380.058594 322.925781 L 376.53125 365.300781 "/>
<path fill-rule="nonzero" fill="rgb(85.490197%, 74.901962%, 100%)" fill-opacity="1" d="M 380.058594 477.074219 L 376.53125 434.699219 L 350.164062 451.519531 Z M 380.058594 477.074219 "/>
<path fill="none" stroke-width="0.5" stroke-linecap="butt" stroke-linejoin="miter" stroke="rgb(100%, 100%, 100%)" stroke-opacity="1" stroke-miterlimit="2" d="M 380.058594 477.074219 L 376.53125 434.699219 "/>
<path fill="none" stroke-width="0.5" stroke-linecap="butt" stroke-linejoin="miter" stroke="rgb(100%, 100%, 100%)" stroke-opacity="1" stroke-miterlimit="2" d="M 376.53125 434.699219 L 350.164062 451.519531 "/>
<path fill="none" stroke-width="0.5" stroke-linecap="butt" stroke-linejoin="miter" stroke="rgb(100%, 100%, 100%)" stroke-opacity="1" stroke-miterlimit="2" d="M 350.164062 451.519531 L 380.058594 477.074219 "/>
<path fill-rule="nonzero" fill="rgb(85.490197%, 74.901962%, 100%)" fill-opacity="1" d="M 281.84375 413.253906 L 281.84375 386.746094 L 241.878906 400 Z M 281.84375 413.253906 "/>
<path fill="none" stroke-width="0.5" stroke-linecap="butt" stroke-linejoin="miter" stroke="rgb(100%, 100%, 100%)" stroke-opacity="1" stroke-miterlimit="2" d="M 281.84375 413.253906 L 281.84375 386.746094 "/>
<path fill="none" stroke-width="0.5" stroke-linecap="butt" stroke-linejoin="miter" stroke="rgb(100%, 100%, 100%)" stroke-opacity="1" stroke-miterlimit="2" d="M 281.84375 386.746094 L 241.878906 400 "/>
<path fill="none" stroke-width="0.5" stroke-linecap="butt" stroke-linejoin="miter" stroke="rgb(100%, 100%, 100%)" stroke-opacity="1" stroke-miterlimit="2" d="M 241.878906 400 L 281.84375 413.253906 "/>
<path fill-rule="nonzero" fill="rgb(85.490197%, 74.901962%, 100%)" fill-opacity="1" d="M 423.46875 434.699219 L 400 408.898438 L 376.53125 434.699219 Z M 423.46875 434.699219 "/>
<path fill="none" stroke-width="0.5" stroke-linecap="butt" stroke-linejoin="miter" stroke="rgb(100%, 100%, 100%)" stroke-opacity="1" stroke-miterlimit="2" d="M 423.46875 434.699219 L 400 408.898438 "/>
<path fill="none" stroke-width="0.5" stroke-linecap="butt" stroke-linejoin="miter" stroke="rgb(100%, 100%, 100%)" stroke-opacity="1" stroke-miterlimit="2" d="M 400 408.898438 L 376.53125 434.699219 "/>
<path fill="none" stroke-width="0.5" stroke-linecap="butt" stroke-linejoin="miter" stroke="rgb(100%, 100%, 100%)" stroke-opacity="1" stroke-miterlimit="2" d="M 376.53125 434.699219 L 423.46875 434.699219 "/>
<path fill-rule="nonzero" fill="rgb(85.490197%, 74.901962%, 100%)" fill-opacity="1" d="M 400 248.71875 L 417.671875 217.542969 L 382.324219 217.542969 Z M 400 248.71875 "/>
<path fill="none" stroke-width="0.5" stroke-linecap="butt" stroke-linejoin="miter" stroke="rgb(100%, 100%, 100%)" stroke-opacity="1" stroke-miterlimit="2" d="M 400 248.71875 L 417.671875 217.542969 "/>
<path fill="none" stroke-width="0.5" stroke-linecap="butt" stroke-linejoin="miter" stroke="rgb(100%, 100%, 100%)" stroke-opacity="1" stroke-miterlimit="2" d="M 417.671875 217.542969 L 382.324219 217.542969 "/>
<path fill="none" stroke-width="0.5" stroke-linecap="butt" stroke-linejoin="miter" stroke="rgb(100%, 100%, 100%)" stroke-opacity="1" stroke-miterlimit="2" d="M 382.324219 217.542969 L 400 248.71875 "/>
<path fill-rule="nonzero" fill="rgb(56.470591%, 47.843137%, 83.92157%)" fill-opacity="1" d="M 417.734375 518.707031 L 419.941406 477.074219 L 380.058594 477.074219 L 382.265625 518.707031 Z M 417.734375 518.707031 "/>
<path fill="none" stroke-width="0.5" stroke-linecap="butt" stroke-linejoin="miter" stroke="rgb(100%, 100%, 100%)" stroke-opacity="1" stroke-miterlimit="2" d="M 417.734375 518.707031 L 419.941406 477.074219 "/>
<path fill="none" stroke-width="0.5" stroke-linecap="butt" stroke-linejoin="miter" stroke="rgb(100%, 100%, 100%)" stroke-opacity="1" stroke-miterlimit="2" d="M 419.941406 477.074219 L 380.058594 477.074219 "/>
<path fill="none" stroke-width="0.5" stroke-linecap="butt" stroke-linejoin="miter" stroke="rgb(100%, 100%, 100%)" stroke-opacity="1" stroke-miterlimit="2" d="M 380.058594 477.074219 L 382.265625 518.707031 "/>
<path fill="none" stroke-width="0.5" stroke-linecap="butt" stroke-linejoin="miter" stroke="rgb(100%, 100%, 100%)" stroke-opacity="1" stroke-miterlimit="2" d="M 382.265625 518.707031 L 417.734375 518.707031 "/>
<path fill-rule="nonzero" fill="rgb(85.490197%, 74.901962%, 100%)" fill-opacity="1" d="M 380.058594 322.925781 L 382.265625 281.292969 L 351.398438 303.222656 Z M 380.058594 322.925781 "/>
<path fill="none" stroke-width="0.5" stroke-linecap="butt" stroke-linejoin="miter" stroke="rgb(100%, 100%, 100%)" stroke-opacity="1" stroke-miterlimit="2" d="M 380.058594 322.925781 L 382.265625 281.292969 "/>
<path fill="none" stroke-width="0.5" stroke-linecap="butt" stroke-linejoin="miter" stroke="rgb(100%, 100%, 100%)" stroke-opacity="1" stroke-miterlimit="2" d="M 382.265625 281.292969 L 351.398438 303.222656 "/>
<path fill="none" stroke-width="0.5" stroke-linecap="butt" stroke-linejoin="miter" stroke="rgb(100%, 100%, 100%)" stroke-opacity="1" stroke-miterlimit="2" d="M 351.398438 303.222656 L 380.058594 322.925781 "/>
<path fill-rule="nonzero" fill="rgb(85.490197%, 74.901962%, 100%)" fill-opacity="1" d="M 449.835938 348.480469 L 448.601562 303.222656 L 419.941406 322.925781 Z M 449.835938 348.480469 "/>
<path fill="none" stroke-width="0.5" stroke-linecap="butt" stroke-linejoin="miter" stroke="rgb(100%, 100%, 100%)" stroke-opacity="1" stroke-miterlimit="2" d="M 449.835938 348.480469 L 448.601562 303.222656 "/>
<path fill="none" stroke-width="0.5" stroke-linecap="butt" stroke-linejoin="miter" stroke="rgb(100%, 100%, 100%)" stroke-opacity="1" stroke-miterlimit="2" d="M 448.601562 303.222656 L 419.941406 322.925781 "/>
<path fill="none" stroke-width="0.5" stroke-linecap="butt" stroke-linejoin="miter" stroke="rgb(100%, 100%, 100%)" stroke-opacity="1" stroke-miterlimit="2" d="M 419.941406 322.925781 L 449.835938 348.480469 "/>
<path fill-rule="nonzero" fill="rgb(56.470591%, 47.843137%, 83.92157%)" fill-opacity="1" d="M 316.226562 496.828125 L 351.398438 496.777344 L 350.164062 451.519531 L 319.933594 451.042969 Z M 316.226562 496.828125 "/>
<path fill="none" stroke-width="0.5" stroke-linecap="butt" stroke-linejoin="miter" stroke="rgb(100%, 100%, 100%)" stroke-opacity="1" stroke-miterlimit="2" d="M 316.226562 496.828125 L 351.398438 496.777344 "/>
<path fill="none" stroke-width="0.5" stroke-linecap="butt" stroke-linejoin="miter" stroke="rgb(100%, 100%, 100%)" stroke-opacity="1" stroke-miterlimit="2" d="M 351.398438 496.777344 L 350.164062 451.519531 "/>
<path fill="none" stroke-width="0.5" stroke-linecap="butt" stroke-linejoin="miter" stroke="rgb(100%, 100%, 100%)" stroke-opacity="1" stroke-miterlimit="2" d="M 350.164062 451.519531 L 319.933594 451.042969 "/>
<path fill="none" stroke-width="0.5" stroke-linecap="butt" stroke-linejoin="miter" stroke="rgb(100%, 100%, 100%)" stroke-opacity="1" stroke-miterlimit="2" d="M 319.933594 451.042969 L 316.226562 496.828125 "/>
<path fill-rule="nonzero" fill="rgb(85.490197%, 74.901962%, 100%)" fill-opacity="1" d="M 435.253906 551.015625 L 417.734375 518.707031 L 400 551.28125 Z M 435.253906 551.015625 "/>
<path fill="none" stroke-width="0.5" stroke-linecap="butt" stroke-linejoin="miter" stroke="rgb(100%, 100%, 100%)" stroke-opacity="1" stroke-miterlimit="2" d="M 435.253906 551.015625 L 417.734375 518.707031 "/>
<path fill="none" stroke-width="0.5" stroke-linecap="butt" stroke-linejoin="miter" stroke="rgb(100%, 100%, 100%)" stroke-opacity="1" stroke-miterlimit="2" d="M 417.734375 518.707031 L 400 551.28125 "/>
<path fill="none" stroke-width="0.5" stroke-linecap="butt" stroke-linejoin="miter" stroke="rgb(100%, 100%, 100%)" stroke-opacity="1" stroke-miterlimit="2" d="M 400 551.28125 L 435.253906 551.015625 "/>
<path fill-rule="nonzero" fill="rgb(85.490197%, 74.901962%, 100%)" fill-opacity="1" d="M 400 391.101562 L 423.46875 365.300781 L 376.53125 365.300781 Z M 400 391.101562 "/>
<path fill="none" stroke-width="0.5" stroke-linecap="butt" stroke-linejoin="miter" stroke="rgb(100%, 100%, 100%)" stroke-opacity="1" stroke-miterlimit="2" d="M 400 391.101562 L 423.46875 365.300781 "/>
<path fill="none" stroke-width="0.5" stroke-linecap="butt" stroke-linejoin="miter" stroke="rgb(100%, 100%, 100%)" stroke-opacity="1" stroke-miterlimit="2" d="M 423.46875 365.300781 L 376.53125 365.300781 "/>
<path fill="none" stroke-width="0.5" stroke-linecap="butt" stroke-linejoin="miter" stroke="rgb(100%, 100%, 100%)" stroke-opacity="1" stroke-miterlimit="2" d="M 376.53125 365.300781 L 400 391.101562 "/>
<path fill-rule="nonzero" fill="rgb(56.470591%, 47.843137%, 83.92157%)" fill-opacity="1" d="M 380.058594 322.925781 L 419.941406 322.925781 L 417.734375 281.292969 L 382.265625 281.292969 Z M 380.058594 322.925781 "/>
<path fill="none" stroke-width="0.5" stroke-linecap="butt" stroke-linejoin="miter" stroke="rgb(100%, 100%, 100%)" stroke-opacity="1" stroke-miterlimit="2" d="M 380.058594 322.925781 L 419.941406 322.925781 "/>
<path fill="none" stroke-width="0.5" stroke-linecap="butt" stroke-linejoin="miter" stroke="rgb(100%, 100%, 100%)" stroke-opacity="1" stroke-miterlimit="2" d="M 419.941406 322.925781 L 417.734375 281.292969 "/>
<path fill="none" stroke-width="0.5" stroke-linecap="butt" stroke-linejoin="miter" stroke="rgb(100%, 100%, 100%)" stroke-opacity="1" stroke-miterlimit="2" d="M 417.734375 281.292969 L 382.265625 281.292969 "/>
<path fill="none" stroke-width="0.5" stroke-linecap="butt" stroke-linejoin="miter" stroke="rgb(100%, 100%, 100%)" stroke-opacity="1" stroke-miterlimit="2" d="M 382.265625 281.292969 L 380.058594 322.925781 "/>
<path fill-rule="nonzero" fill="rgb(85.490197%, 74.901962%, 100%)" fill-opacity="1" d="M 400 248.71875 L 382.324219 217.542969 L 364.746094 248.984375 Z M 400 248.71875 "/>
<path fill="none" stroke-width="0.5" stroke-linecap="butt" stroke-linejoin="miter" stroke="rgb(100%, 100%, 100%)" stroke-opacity="1" stroke-miterlimit="2" d="M 400 248.71875 L 382.324219 217.542969 "/>
<path fill="none" stroke-width="0.5" stroke-linecap="butt" stroke-linejoin="miter" stroke="rgb(100%, 100%, 100%)" stroke-opacity="1" stroke-miterlimit="2" d="M 382.324219 217.542969 L 364.746094 248.984375 "/>
<path fill="none" stroke-width="0.5" stroke-linecap="butt" stroke-linejoin="miter" stroke="rgb(100%, 100%, 100%)" stroke-opacity="1" stroke-miterlimit="2" d="M 364.746094 248.984375 L 400 248.71875 "/>
<path fill-rule="nonzero" fill="rgb(56.470591%, 47.843137%, 83.92157%)" fill-opacity="1" d="M 419.941406 477.074219 L 423.46875 434.699219 L 376.53125 434.699219 L 380.058594 477.074219 Z M 419.941406 477.074219 "/>
<path fill="none" stroke-width="0.5" stroke-linecap="butt" stroke-linejoin="miter" stroke="rgb(100%, 100%, 100%)" stroke-opacity="1" stroke-miterlimit="2" d="M 419.941406 477.074219 L 423.46875 434.699219 "/>
<path fill="none" stroke-width="0.5" stroke-linecap="butt" stroke-linejoin="miter" stroke="rgb(100%, 100%, 100%)" stroke-opacity="1" stroke-miterlimit="2" d="M 423.46875 434.699219 L 376.53125 434.699219 "/>
<path fill="none" stroke-width="0.5" stroke-linecap="butt" stroke-linejoin="miter" stroke="rgb(100%, 100%, 100%)" stroke-opacity="1" stroke-miterlimit="2" d="M 376.53125 434.699219 L 380.058594 477.074219 "/>
<path fill="none" stroke-width="0.5" stroke-linecap="butt" stroke-linejoin="miter" stroke="rgb(100%, 100%, 100%)" stroke-opacity="1" stroke-miterlimit="2" d="M 380.058594 477.074219 L 419.941406 477.074219 "/>
<path fill-rule="nonzero" fill="rgb(85.490197%, 74.901962%, 100%)" fill-opacity="1" d="M 558.121094 400 L 518.15625 386.746094 L 518.15625 413.253906 Z M 558.121094 400 "/>
<path fill="none" stroke-width="0.5" stroke-linecap="butt" stroke-linejoin="miter" stroke="rgb(100%, 100%, 100%)" stroke-opacity="1" stroke-miterlimit="2" d="M 558.121094 400 L 518.15625 386.746094 "/>
<path fill="none" stroke-width="0.5" stroke-linecap="butt" stroke-linejoin="miter" stroke="rgb(100%, 100%, 100%)" stroke-opacity="1" stroke-miterlimit="2" d="M 518.15625 386.746094 L 518.15625 413.253906 "/>
<path fill="none" stroke-width="0.5" stroke-linecap="butt" stroke-linejoin="miter" stroke="rgb(100%, 100%, 100%)" stroke-opacity="1" stroke-miterlimit="2" d="M 518.15625 413.253906 L 558.121094 400 "/>
<path fill-rule="nonzero" fill="rgb(85.490197%, 74.901962%, 100%)" fill-opacity="1" d="M 382.324219 582.457031 L 400 551.28125 L 364.746094 551.015625 Z M 382.324219 582.457031 "/>
<path fill="none" stroke-width="0.5" stroke-linecap="butt" stroke-linejoin="miter" stroke="rgb(100%, 100%, 100%)" stroke-opacity="1" stroke-miterlimit="2" d="M 382.324219 582.457031 L 400 551.28125 "/>
<path fill="none" stroke-width="0.5" stroke-linecap="butt" stroke-linejoin="miter" stroke="rgb(100%, 100%, 100%)" stroke-opacity="1" stroke-miterlimit="2" d="M 400 551.28125 L 364.746094 551.015625 "/>
<path fill="none" stroke-width="0.5" stroke-linecap="butt" stroke-linejoin="miter" stroke="rgb(100%, 100%, 100%)" stroke-opacity="1" stroke-miterlimit="2" d="M 364.746094 551.015625 L 382.324219 582.457031 "/>
<path fill-rule="nonzero" fill="rgb(85.490197%, 74.901962%, 100%)" fill-opacity="1" d="M 417.734375 281.292969 L 400 248.71875 L 382.265625 281.292969 Z M 417.734375 281.292969 "/>
<path fill="none" stroke-width="0.5" stroke-linecap="butt" stroke-linejoin="miter" stroke="rgb(100%, 100%, 100%)" stroke-opacity="1" stroke-miterlimit="2" d="M 417.734375 281.292969 L 400 248.71875 "/>
<path fill="none" stroke-width="0.5" stroke-linecap="butt" stroke-linejoin="miter" stroke="rgb(100%, 100%, 100%)" stroke-opacity="1" stroke-miterlimit="2" d="M 400 248.71875 L 382.265625 281.292969 "/>
<path fill="none" stroke-width="0.5" stroke-linecap="butt" stroke-linejoin="miter" stroke="rgb(100%, 100%, 100%)" stroke-opacity="1" stroke-miterlimit="2" d="M 382.265625 281.292969 L 417.734375 281.292969 "/>
</svg>
