<?xml version="1.0" encoding="UTF-8"?>
<svg xmlns="http://www.w3.org/2000/svg" xmlns:xlink="http://www.w3.org/1999/xlink" width="800" height="800" viewBox="0 0 800 800">
<rect x="-80" y="-80" width="960" height="960" fill="rgb(100%, 100%, 100%)" fill-opacity="1"/>
<path fill-rule="nonzero" fill="rgb(100%, 100%, 100%)" fill-opacity="1" d="M 252 784 L 548 784 L 548 16 L 252 16 Z M 252 784 "/>
<path fill-rule="nonzero" fill="rgb(56.470591%, 47.843137%, 83.92157%)" fill-opacity="1" d="M 273.828125 400 L 336.976562 289.570312 L 319.992188 247.585938 L 267.054688 249.78125 Z M 273.828125 400 "/>
<path fill="none" stroke-width="0.5" stroke-linecap="butt" stroke-linejoin="miter" stroke="rgb(100%, 100%, 100%)" stroke-opacity="1" stroke-miterlimit="2" d="M 273.828125 400 L 336.976562 289.570312 "/>
<path fill="none" stroke-width="0.5" stroke-linecap="butt" stroke-linejoin="miter" stroke="rgb(100%, 100%, 100%)" stroke-opacity="1" stroke-miterlimit="2" d="M 336.976562 289.570312 L 319.992188 247.585938 "/>
<path fill="none" stroke-width="0.5" stroke-linecap="butt" stroke-linejoin="miter" stroke="rgb(100%, 100%, 100%)" stroke-opacity="1" stroke-miterlimit="2" d="M 319.992188 247.585938 L 267.054688 249.78125 "/>
<path fill="none" stroke-width="0.5" stroke-linecap="butt" stroke-linejoin="miter" stroke="rgb(100%, 100%, 100%)" stroke-opacity="1" stroke-miterlimit="2" d="M 267.054688 249.78125 L 273.828125 400 "/>
<path fill-rule="nonzero" fill="rgb(100%, 64.705884%, 0%)" fill-opacity="1" d="M 485.304688 653.011719 L 534.546875 620.421875 L 532.945312 550.21875 L 480.007812 552.414062 L 458.3125 597.851562 Z M 485.304688 653.011719 "/>
<path fill="none" stroke-width="0.5" stroke-linecap="butt" stroke-linejoin="miter" stroke="rgb(100%, 100%, 100%)" stroke-opacity="1" stroke-miterlimit="2" d="M 485.304688 653.011719 L 534.546875 620.421875 "/>
<path fill="none" stroke-width="0.5" stroke-linecap="butt" stroke-linejoin="miter" stroke="rgb(100%, 100%, 100%)" stroke-opacity="1" stroke-miterlimit="2" d="M 534.546875 620.421875 L 532.945312 550.21875 "/>
<path fill="none" stroke-width="0.5" stroke-linecap="butt" stroke-linejoin="miter" stroke="rgb(100%, 100%, 100%)" stroke-opacity="1" stroke-miterlimit="2" d="M 532.945312 550.21875 L 480.007812 552.414062 "/>
<path fill="none" stroke-width="0.5" stroke-linecap="butt" stroke-linejoin="miter" stroke="rgb(100%, 100%, 100%)" stroke-opacity="1" stroke-miterlimit="2" d="M 480.007812 552.414062 L 458.3125 597.851562 "/>
<path fill="none" stroke-width="0.5" stroke-linecap="butt" stroke-linejoin="miter" stroke="rgb(100%, 100%, 100%)" stroke-opacity="1" stroke-miterlimit="2" d="M 458.3125 597.851562 L 485.304688 653.011719 "/>
<path fill-rule="nonzero" fill="rgb(56.470591%, 47.843137%, 83.92157%)" fill-opacity="1" d="M 319.992188 552.414062 L 336.976562 510.429688 L 273.828125 400 L 267.054688 550.21875 Z M 319.992188 552.414062 "/>
<path fill="none" stroke-width="0.5" stroke-linecap="butt" stroke-linejoin="miter" stroke="rgb(100%, 100%, 100%)" stroke-opacity="1" stroke-miterlimit="2" d="M 319.992188 552.414062 L 336.976562 510.429688 "/>
<path fill="none" stroke-width="0.5" stroke-linecap="butt" stroke-linejoin="miter" stroke="rgb(100%, 100%, 100%)" stroke-opacity="1" stroke-miterlimit="2" d="M 336.976562 510.429688 L 273.828125 400 "/>
<path fill="none" stroke-width="0.5" stroke-linecap="butt" stroke-linejoin="miter" stroke="rgb(100%, 100%, 100%)" stroke-opacity="1" stroke-miterlimit="2" d="M 273.828125 400 L 267.054688 550.21875 "/>
<path fill="none" stroke-width="0.5" stroke-linecap="butt" stroke-linejoin="miter" stroke="rgb(100%, 100%, 100%)" stroke-opacity="1" stroke-miterlimit="2" d="M 267.054688 550.21875 L 319.992188 552.414062 "/>
<path fill-rule="nonzero" fill="rgb(85.490197%, 74.901962%, 100%)" fill-opacity="1" d="M 400 452.949219 L 526.171875 400 L 273.828125 400 Z M 400 452.949219 "/>
<path fill="none" stroke-width="0.5" stroke-linecap="butt" stroke-linejoin="miter" stroke="rgb(100%, 100%, 100%)" stroke-opacity="1" stroke-miterlimit="2" d="M 400 452.949219 L 526.171875 400 "/>
<path fill="none" stroke-width="0.5" stroke-linecap="butt" stroke-linejoin="miter" stroke="rgb(100%, 100%, 100%)" stroke-opacity="1" stroke-miterlimit="2" d="M 526.171875 400 L 273.828125 400 "/>
<path fill="none" stroke-width="0.5" stroke-linecap="butt" stroke-linejoin="miter" stroke="rgb(100%, 100%, 100%)" stroke-opacity="1" stroke-miterlimit="2" d="M 273.828125 400 L 400 452.949219 "/>
<path fill-rule="nonzero" fill="rgb(100%, 64.705884%, 0%)" fill-opacity="1" d="M 364.1875 684.714844 L 400 662.867188 L 400 598.605469 L 341.6875 597.851562 L 314.695312 653.011719 Z M 364.1875 684.714844 "/>
<path fill="none" stroke-width="0.5" stroke-linecap="butt" stroke-linejoin="miter" stroke="rgb(100%, 100%, 100%)" stroke-opacity="1" stroke-miterlimit="2" d="M 364.1875 684.714844 L 400 662.867188 "/>
<path fill="none" stroke-width="0.5" stroke-linecap="butt" stroke-linejoin="miter" stroke="rgb(100%, 100%, 100%)" stroke-opacity="1" stroke-miterlimit="2" d="M 400 662.867188 L 400 598.605469 "/>
<path fill="none" stroke-width="0.5" stroke-linecap="butt" stroke-linejoin="miter" stroke="rgb(100%, 100%, 100%)" stroke-opacity="1" stroke-miterlimit="2" d="M 400 598.605469 L 341.6875 597.851562 "/>
<path fill="none" stroke-width="0.5" stroke-linecap="butt" stroke-linejoin="miter" stroke="rgb(100%, 100%, 100%)" stroke-opacity="1" stroke-miterlimit="2" d="M 341.6875 597.851562 L 314.695312 653.011719 "/>
<path fill="none" stroke-width="0.5" stroke-linecap="butt" stroke-linejoin="miter" stroke="rgb(100%, 100%, 100%)" stroke-opacity="1" stroke-miterlimit="2" d="M 314.695312 653.011719 L 364.1875 684.714844 "/>
<path fill-rule="nonzero" fill="rgb(100%, 64.705884%, 0%)" fill-opacity="1" d="M 265.453125 620.421875 L 314.695312 653.011719 L 341.6875 597.851562 L 319.992188 552.414062 L 267.054688 550.21875 Z M 265.453125 620.421875 "/>
<path fill="none" stroke-width="0.5" stroke-linecap="butt" stroke-linejoin="miter" stroke="rgb(100%, 100%, 100%)" stroke-opacity="1" stroke-miterlimit="2" d="M 265.453125 620.421875 L 314.695312 653.011719 "/>
<path fill="none" stroke-width="0.5" stroke-linecap="butt" stroke-linejoin="miter" stroke="rgb(100%, 100%, 100%)" stroke-opacity="1" stroke-miterlimit="2" d="M 314.695312 653.011719 L 341.6875 597.851562 "/>
<path fill="none" stroke-width="0.5" stroke-linecap="butt" stroke-linejoin="miter" stroke="rgb(100%, 100%, 100%)" stroke-opacity="1" stroke-miterlimit="2" d="M 341.6875 597.851562 L 319.992188 552.414062 "/>
<path fill="none" stroke-width="0.5" stroke-linecap="butt" stroke-linejoin="miter" stroke="rgb(100%, 100%, 100%)" stroke-opacity="1" stroke-miterlimit="2" d="M 319.992188 552.414062 L 267.054688 550.21875 "/>
<path fill="none" stroke-width="0.5" stroke-linecap="butt" stroke-linejoin="miter" stroke="rgb(100%, 100%, 100%)" stroke-opacity="1" stroke-miterlimit="2" d="M 267.054688 550.21875 L 265.453125 620.421875 "/>
<path fill-rule="nonzero" fill="rgb(100%, 64.705884%, 0%)" fill-opacity="1" d="M 463.023438 289.570312 L 480.007812 247.585938 L 458.3125 202.148438 L 400 201.394531 L 400 286.613281 Z M 463.023438 289.570312 "/>
<path fill="none" stroke-width="0.5" stroke-linecap="butt" stroke-linejoin="miter" stroke="rgb(100%, 100%, 100%)" stroke-opacity="1" stroke-miterlimit="2" d="M 463.023438 289.570312 L 480.007812 247.585938 "/>
<path fill="none" stroke-width="0.5" stroke-linecap="butt" stroke-linejoin="miter" stroke="rgb(100%, 100%, 100%)" stroke-opacity="1" stroke-miterlimit="2" d="M 480.007812 247.585938 L 458.3125 202.148438 "/>
<path fill="none" stroke-width="0.5" stroke-linecap="butt" stroke-linejoin="miter" stroke="rgb(100%, 100%, 100%)" stroke-opacity="1" stroke-miterlimit="2" d="M 458.3125 202.148438 L 400 201.394531 "/>
<path fill="none" stroke-width="0.5" stroke-linecap="butt" stroke-linejoin="miter" stroke="rgb(100%, 100%, 100%)" stroke-opacity="1" stroke-miterlimit="2" d="M 400 201.394531 L 400 286.613281 "/>
<path fill="none" stroke-width="0.5" stroke-linecap="butt" stroke-linejoin="miter" stroke="rgb(100%, 100%, 100%)" stroke-opacity="1" stroke-miterlimit="2" d="M 400 286.613281 L 463.023438 289.570312 "/>
<path fill-rule="nonzero" fill="rgb(30.980393%, 31.764707%, 54.901963%)" fill-opacity="1" d="M 400 749.089844 L 435.769531 727.828125 L 435.8125 684.714844 L 400 662.867188 L 364.1875 684.714844 L 364.230469 727.828125 Z M 400 749.089844 "/>
<path fill="none" stroke-width="0.5" stroke-linecap="butt" stroke-linejoin="miter" stroke="rgb(100%, 100%, 100%)" stroke-opacity="1" stroke-miterlimit="2" d="M 400 749.089844 L 435.769531 727.828125 "/>
<path fill="none" stroke-width="0.5" stroke-linecap="butt" stroke-linejoin="miter" stroke="rgb(100%, 100%, 100%)" stroke-opacity="1" stroke-miterlimit="2" d="M 435.769531 727.828125 L 435.8125 684.714844 "/>
<path fill="none" stroke-width="0.5" stroke-linecap="butt" stroke-linejoin="miter" stroke="rgb(100%, 100%, 100%)" stroke-opacity="1" stroke-miterlimit="2" d="M 435.8125 684.714844 L 400 662.867188 "/>
<path fill="none" stroke-width="0.5" stroke-linecap="butt" stroke-linejoin="miter" stroke="rgb(100%, 100%, 100%)" stroke-opacity="1" stroke-miterlimit="2" d="M 400 662.867188 L 364.1875 684.714844 "/>
<path fill="none" stroke-width="0.5" stroke-linecap="butt" stroke-linejoin="miter" stroke="rgb(100%, 100%, 100%)" stroke-opacity="1" stroke-miterlimit="2" d="M 364.1875 684.714844 L 364.230469 727.828125 "/>
<path fill="none" stroke-width="0.5" stroke-linecap="butt" stroke-linejoin="miter" stroke="rgb(100%, 100%, 100%)" stroke-opacity="1" stroke-miterlimit="2" d="M 364.230469 727.828125 L 400 749.089844 "/>
<path fill-rule="nonzero" fill="rgb(85.490197%, 74.901962%, 100%)" fill-opacity="1" d="M 526.171875 400 L 400 347.050781 L 273.828125 400 Z M 526.171875 400 "/>
<path fill="none" stroke-width="0.5" stroke-linecap="butt" stroke-linejoin="miter" stroke="rgb(100%, 100%, 100%)" stroke-opacity="1" stroke-miterlimit="2" d="M 526.171875 400 L 400 347.050781 "/>
<path fill="none" stroke-width="0.5" stroke-linecap="butt" stroke-linejoin="miter" stroke="rgb(100%, 100%, 100%)" stroke-opacity="1" stroke-miterlimit="2" d="M 400 347.050781 L 273.828125 400 "/>
<path fill="none" stroke-width="0.5" stroke-linecap="butt" stroke-linejoin="miter" stroke="rgb(100%, 100%, 100%)" stroke-opacity="1" stroke-miterlimit="2" d="M 273.828125 400 L 526.171875 400 "/>
<path fill-rule="nonzero" fill="rgb(56.470591%, 47.843137%, 83.92157%)" fill-opacity="1" d="M 463.023438 510.429688 L 526.171875 400 L 400 452.949219 L 400 513.386719 Z M 463.023438 510.429688 "/>
<path fill="none" stroke-width="0.5" stroke-linecap="butt" stroke-linejoin="miter" stroke="rgb(100%, 100%, 100%)" stroke-opacity="1" stroke-miterlimit="2" d="M 463.023438 510.429688 L 526.171875 400 "/>
<path fill="none" stroke-width="0.5" stroke-linecap="butt" stroke-linejoin="miter" stroke="rgb(100%, 100%, 100%)" stroke-opacity="1" stroke-miterlimit="2" d="M 526.171875 400 L 400 452.949219 "/>
<path fill="none" stroke-width="0.5" stroke-linecap="butt" stroke-linejoin="miter" stroke="rgb(100%, 100%, 100%)" stroke-opacity="1" stroke-miterlimit="2" d="M 400 452.949219 L 400 513.386719 "/>
<path fill="none" stroke-width="0.5" stroke-linecap="butt" stroke-linejoin="miter" stroke="rgb(100%, 100%, 100%)" stroke-opacity="1" stroke-miterlimit="2" d="M 400 513.386719 L 463.023438 510.429688 "/>
<path fill-rule="nonzero" fill="rgb(56.470591%, 47.843137%, 83.92157%)" fill-opacity="1" d="M 526.171875 400 L 463.023438 289.570312 L 400 286.613281 L 400 347.050781 Z M 526.171875 400 "/>
<path fill="none" stroke-width="0.5" stroke-linecap="butt" stroke-linejoin="miter" stroke="rgb(100%, 100%, 100%)" stroke-opacity="1" stroke-miterlimit="2" d="M 526.171875 400 L 463.023438 289.570312 "/>
<path fill="none" stroke-width="0.5" stroke-linecap="butt" stroke-linejoin="miter" stroke="rgb(100%, 100%, 100%)" stroke-opacity="1" stroke-miterlimit="2" d="M 463.023438 289.570312 L 400 286.613281 "/>
<path fill="none" stroke-width="0.5" stroke-linecap="butt" stroke-linejoin="miter" stroke="rgb(100%, 100%, 100%)" stroke-opacity="1" stroke-miterlimit="2" d="M 400 286.613281 L 400 347.050781 "/>
<path fill="none" stroke-width="0.5" stroke-linecap="butt" stroke-linejoin="miter" stroke="rgb(100%, 100%, 100%)" stroke-opacity="1" stroke-miterlimit="2" d="M 400 347.050781 L 526.171875 400 "/>
<path fill-rule="nonzero" fill="rgb(100%, 64.705884%, 0%)" fill-opacity="1" d="M 458.3125 597.851562 L 480.007812 552.414062 L 463.023438 510.429688 L 400 513.386719 L 400 598.605469 Z M 458.3125 597.851562 "/>
<path fill="none" stroke-width="0.5" stroke-linecap="butt" stroke-linejoin="miter" stroke="rgb(100%, 100%, 100%)" stroke-opacity="1" stroke-miterlimit="2" d="M 458.3125 597.851562 L 480.007812 552.414062 "/>
<path fill="none" stroke-width="0.5" stroke-linecap="butt" stroke-linejoin="miter" stroke="rgb(100%, 100%, 100%)" stroke-opacity="1" stroke-miterlimit="2" d="M 480.007812 552.414062 L 463.023438 510.429688 "/>
<path fill="none" stroke-width="0.5" stroke-linecap="butt" stroke-linejoin="miter" stroke="rgb(100%, 100%, 100%)" stroke-opacity="1" stroke-miterlimit="2" d="M 463.023438 510.429688 L 400 513.386719 "/>
<path fill="none" stroke-width="0.5" stroke-linecap="butt" stroke-linejoin="miter" stroke="rgb(100%, 100%, 100%)" stroke-opacity="1" stroke-miterlimit="2" d="M 400 513.386719 L 400 598.605469 "/>
<path fill="none" stroke-width="0.5" stroke-linecap="butt" stroke-linejoin="miter" stroke="rgb(100%, 100%, 100%)" stroke-opacity="1" stroke-miterlimit="2" d="M 400 598.605469 L 458.3125 597.851562 "/>
<path fill-rule="nonzero" fill="rgb(56.470591%, 47.843137%, 83.92157%)" fill-opacity="1" d="M 480.007812 552.414062 L 532.945312 550.21875 L 526.171875 400 L 463.023438 510.429688 Z M 480.007812 552.414062 "/>
<path fill="none" stroke-width="0.5" stroke-linecap="butt" stroke-linejoin="miter" stroke="rgb(100%, 100%, 100%)" stroke-opacity="1" stroke-miterlimit="2" d="M 480.007812 552.414062 L 532.945312 550.21875 "/>
<path fill="none" stroke-width="0.5" stroke-linecap="butt" stroke-linejoin="miter" stroke="rgb(100%, 100%, 100%)" stroke-opacity="1" stroke-miterlimit="2" d="M 532.945312 550.21875 L 526.171875 400 "/>
<path fill="none" stroke-width="0.5" stroke-linecap="butt" stroke-linejoin="miter" stroke="rgb(100%, 100%, 100%)" stroke-opacity="1" stroke-miterlimit="2" d="M 526.171875 400 L 463.023438 510.429688 "/>
<path fill="none" stroke-width="0.5" stroke-linecap="butt" stroke-linejoin="miter" stroke="rgb(100%, 100%, 100%)" stroke-opacity="1" stroke-miterlimit="2" d="M 463.023438 510.429688 L 480.007812 552.414062 "/>
<path fill-rule="nonzero" fill="rgb(100%, 64.705884%, 0%)" fill-opacity="1" d="M 341.6875 597.851562 L 400 598.605469 L 400 513.386719 L 336.976562 510.429688 L 319.992188 552.414062 Z M 341.6875 597.851562 "/>
<path fill="none" stroke-width="0.5" stroke-linecap="butt" stroke-linejoin="miter" stroke="rgb(100%, 100%, 100%)" stroke-opacity="1" stroke-miterlimit="2" d="M 341.6875 597.851562 L 400 598.605469 "/>
<path fill="none" stroke-width="0.5" stroke-linecap="butt" stroke-linejoin="miter" stroke="rgb(100%, 100%, 100%)" stroke-opacity="1" stroke-miterlimit="2" d="M 400 598.605469 L 400 513.386719 "/>
<path fill="none" stroke-width="0.5" stroke-linecap="butt" stroke-linejoin="miter" stroke="rgb(100%, 100%, 100%)" stroke-opacity="1" stroke-miterlimit="2" d="M 400 513.386719 L 336.976562 510.429688 "/>
<path fill="none" stroke-width="0.5" stroke-linecap="butt" stroke-linejoin="miter" stroke="rgb(100%, 100%, 100%)" stroke-opacity="1" stroke-miterlimit="2" d="M 336.976562 510.429688 L 319.992188 552.414062 "/>
<path fill="none" stroke-width="0.5" stroke-linecap="butt" stroke-linejoin="miter" stroke="rgb(100%, 100%, 100%)" stroke-opacity="1" stroke-miterlimit="2" d="M 319.992188 552.414062 L 341.6875 597.851562 "/>
<path fill-rule="nonzero" fill="rgb(100%, 64.705884%, 0%)" fill-opacity="1" d="M 319.992188 247.585938 L 341.6875 202.148438 L 314.695312 146.988281 L 265.453125 179.578125 L 267.054688 249.78125 Z M 319.992188 247.585938 "/>
<path fill="none" stroke-width="0.5" stroke-linecap="butt" stroke-linejoin="miter" stroke="rgb(100%, 100%, 100%)" stroke-opacity="1" stroke-miterlimit="2" d="M 319.992188 247.585938 L 341.6875 202.148438 "/>
<path fill="none" stroke-width="0.5" stroke-linecap="butt" stroke-linejoin="miter" stroke="rgb(100%, 100%, 100%)" stroke-opacity="1" stroke-miterlimit="2" d="M 341.6875 202.148438 L 314.695312 146.988281 "/>
<path fill="none" stroke-width="0.5" stroke-linecap="butt" stroke-linejoin="miter" stroke="rgb(100%, 100%, 100%)" stroke-opacity="1" stroke-miterlimit="2" d="M 314.695312 146.988281 L 265.453125 179.578125 "/>
<path fill="none" stroke-width="0.5" stroke-linecap="butt" stroke-linejoin="miter" stroke="rgb(100%, 100%, 100%)" stroke-opacity="1" stroke-miterlimit="2" d="M 265.453125 179.578125 L 267.054688 249.78125 "/>
<path fill="none" stroke-width="0.5" stroke-linecap="butt" stroke-linejoin="miter" stroke="rgb(100%, 100%, 100%)" stroke-opacity="1" stroke-miterlimit="2" d="M 267.054688 249.78125 L 319.992188 247.585938 "/>
<path fill-rule="nonzero" fill="rgb(100%, 64.705884%, 0%)" fill-opacity="1" d="M 341.6875 202.148438 L 400 201.394531 L 400 137.132812 L 364.1875 115.285156 L 314.695312 146.988281 Z M 341.6875 202.148438 "/>
<path fill="none" stroke-width="0.5" stroke-linecap="butt" stroke-linejoin="miter" stroke="rgb(100%, 100%, 100%)" stroke-opacity="1" stroke-miterlimit="2" d="M 341.6875 202.148438 L 400 201.394531 "/>
<path fill="none" stroke-width="0.5" stroke-linecap="butt" stroke-linejoin="miter" stroke="rgb(100%, 100%, 100%)" stroke-opacity="1" stroke-miterlimit="2" d="M 400 201.394531 L 400 137.132812 "/>
<path fill="none" stroke-width="0.5" stroke-linecap="butt" stroke-linejoin="miter" stroke="rgb(100%, 100%, 100%)" stroke-opacity="1" stroke-miterlimit="2" d="M 400 137.132812 L 364.1875 115.285156 "/>
<path fill="none" stroke-width="0.5" stroke-linecap="butt" stroke-linejoin="miter" stroke="rgb(100%, 100%, 100%)" stroke-opacity="1" stroke-miterlimit="2" d="M 364.1875 115.285156 L 314.695312 146.988281 "/>
<path fill="none" stroke-width="0.5" stroke-linecap="butt" stroke-linejoin="miter" stroke="rgb(100%, 100%, 100%)" stroke-opacity="1" stroke-miterlimit="2" d="M 314.695312 146.988281 L 341.6875 202.148438 "/>
<path fill-rule="nonzero" fill="rgb(100%, 64.705884%, 0%)" fill-opacity="1" d="M 480.007812 247.585938 L 532.945312 249.78125 L 534.546875 179.578125 L 485.304688 146.988281 L 458.3125 202.148438 Z M 480.007812 247.585938 "/>
<path fill="none" stroke-width="0.5" stroke-linecap="butt" stroke-linejoin="miter" stroke="rgb(100%, 100%, 100%)" stroke-opacity="1" stroke-miterlimit="2" d="M 480.007812 247.585938 L 532.945312 249.78125 "/>
<path fill="none" stroke-width="0.5" stroke-linecap="butt" stroke-linejoin="miter" stroke="rgb(100%, 100%, 100%)" stroke-opacity="1" stroke-miterlimit="2" d="M 532.945312 249.78125 L 534.546875 179.578125 "/>
<path fill="none" stroke-width="0.5" stroke-linecap="butt" stroke-linejoin="miter" stroke="rgb(100%, 100%, 100%)" stroke-opacity="1" stroke-miterlimit="2" d="M 534.546875 179.578125 L 485.304688 146.988281 "/>
<path fill="none" stroke-width="0.5" stroke-linecap="butt" stroke-linejoin="miter" stroke="rgb(100%, 100%, 100%)" stroke-opacity="1" stroke-miterlimit="2" d="M 485.304688 146.988281 L 458.3125 202.148438 "/>
<path fill="none" stroke-width="0.5" stroke-linecap="butt" stroke-linejoin="miter" stroke="rgb(100%, 100%, 100%)" stroke-opacity="1" stroke-miterlimit="2" d="M 458.3125 202.148438 L 480.007812 247.585938 "/>
<path fill-rule="nonzero" fill="rgb(56.470591%, 47.843137%, 83.92157%)" fill-opacity="1" d="M 526.171875 400 L 532.945312 249.78125 L 480.007812 247.585938 L 463.023438 289.570312 Z M 526.171875 400 "/>
<path fill="none" stroke-width="0.5" stroke-linecap="butt" stroke-linejoin="miter" stroke="rgb(100%, 100%, 100%)" stroke-opacity="1" stroke-miterlimit="2" d="M 526.171875 400 L 532.945312 249.78125 "/>
<path fill="none" stroke-width="0.5" stroke-linecap="butt" stroke-linejoin="miter" stroke="rgb(100%, 100%, 100%)" stroke-opacity="1" stroke-miterlimit="2" d="M 532.945312 249.78125 L 480.007812 247.585938 "/>
<path fill="none" stroke-width="0.5" stroke-linecap="butt" stroke-linejoin="miter" stroke="rgb(100%, 100%, 100%)" stroke-opacity="1" stroke-miterlimit="2" d="M 480.007812 247.585938 L 463.023438 289.570312 "/>
<path fill="none" stroke-width="0.5" stroke-linecap="butt" stroke-linejoin="miter" stroke="rgb(100%, 100%, 100%)" stroke-opacity="1" stroke-miterlimit="2" d="M 463.023438 289.570312 L 526.171875 400 "/>
<path fill-rule="nonzero" fill="rgb(100%, 64.705884%, 0%)" fill-opacity="1" d="M 458.3125 202.148438 L 485.304688 146.988281 L 435.8125 115.285156 L 400 137.132812 L 400 201.394531 Z M 458.3125 202.148438 "/>
<path fill="none" stroke-width="0.5" stroke-linecap="butt" stroke-linejoin="miter" stroke="rgb(100%, 100%, 100%)" stroke-opacity="1" stroke-miterlimit="2" d="M 458.3125 202.148438 L 485.304688 146.988281 "/>
<path fill="none" stroke-width="0.5" stroke-linecap="butt" stroke-linejoin="miter" stroke="rgb(100%, 100%, 100%)" stroke-opacity="1" stroke-miterlimit="2" d="M 485.304688 146.988281 L 435.8125 115.285156 "/>
<path fill="none" stroke-width="0.5" stroke-linecap="butt" stroke-linejoin="miter" stroke="rgb(100%, 100%, 100%)" stroke-opacity="1" stroke-miterlimit="2" d="M 435.8125 115.285156 L 400 137.132812 "/>
<path fill="none" stroke-width="0.5" stroke-linecap="butt" stroke-linejoin="miter" stroke="rgb(100%, 100%, 100%)" stroke-opacity="1" stroke-miterlimit="2" d="M 400 137.132812 L 400 201.394531 "/>
<path fill="none" stroke-width="0.5" stroke-linecap="butt" stroke-linejoin="miter" stroke="rgb(100%, 100%, 100%)" stroke-opacity="1" stroke-miterlimit="2" d="M 400 201.394531 L 458.3125 202.148438 "/>
<path fill-rule="nonzero" fill="rgb(100%, 64.705884%, 0%)" fill-opacity="1" d="M 336.976562 289.570312 L 400 286.613281 L 400 201.394531 L 341.6875 202.148438 L 319.992188 247.585938 Z M 336.976562 289.570312 "/>
<path fill="none" stroke-width="0.5" stroke-linecap="butt" stroke-linejoin="miter" stroke="rgb(100%, 100%, 100%)" stroke-opacity="1" stroke-miterlimit="2" d="M 336.976562 289.570312 L 400 286.613281 "/>
<path fill="none" stroke-width="0.5" stroke-linecap="butt" stroke-linejoin="miter" stroke="rgb(100%, 100%, 100%)" stroke-opacity="1" stroke-miterlimit="2" d="M 400 286.613281 L 400 201.394531 "/>
<path fill="none" stroke-width="0.5" stroke-linecap="butt" stroke-linejoin="miter" stroke="rgb(100%, 100%, 100%)" stroke-opacity="1" stroke-miterlimit="2" d="M 400 201.394531 L 341.6875 202.148438 "/>
<path fill="none" stroke-width="0.5" stroke-linecap="butt" stroke-linejoin="miter" stroke="rgb(100%, 100%, 100%)" stroke-opacity="1" stroke-miterlimit="2" d="M 341.6875 202.148438 L 319.992188 247.585938 "/>
<path fill="none" stroke-width="0.5" stroke-linecap="butt" stroke-linejoin="miter" stroke="rgb(100%, 100%, 100%)" stroke-opacity="1" stroke-miterlimit="2" d="M 319.992188 247.585938 L 336.976562 289.570312 "/>
<path fill-rule="nonzero" fill="rgb(56.470591%, 47.843137%, 83.92157%)" fill-opacity="1" d="M 336.976562 510.429688 L 400 513.386719 L 400 452.949219 L 273.828125 400 Z M 336.976562 510.429688 "/>
<path fill="none" stroke-width="0.5" stroke-linecap="butt" stroke-linejoin="miter" stroke="rgb(100%, 100%, 100%)" stroke-opacity="1" stroke-miterlimit="2" d="M 336.976562 510.429688 L 400 513.386719 "/>
<path fill="none" stroke-width="0.5" stroke-linecap="butt" stroke-linejoin="miter" stroke="rgb(100%, 100%, 100%)" stroke-opacity="1" stroke-miterlimit="2" d="M 400 513.386719 L 400 452.949219 "/>
<path fill="none" stroke-width="0.5" stroke-linecap="butt" stroke-linejoin="miter" stroke="rgb(100%, 100%, 100%)" stroke-opacity="1" stroke-miterlimit="2" d="M 400 452.949219 L 273.828125 400 "/>
<path fill="none" stroke-width="0.5" stroke-linecap="butt" stroke-linejoin="miter" stroke="rgb(100%, 100%, 100%)" stroke-opacity="1" stroke-miterlimit="2" d="M 273.828125 400 L 336.976562 510.429688 "/>
<path fill-rule="nonzero" fill="rgb(30.980393%, 31.764707%, 54.901963%)" fill-opacity="1" d="M 364.1875 115.285156 L 400 137.132812 L 435.8125 115.285156 L 435.769531 72.171875 L 400 50.910156 L 364.230469 72.171875 Z M 364.1875 115.285156 "/>
<path fill="none" stroke-width="0.5" stroke-linecap="butt" stroke-linejoin="miter" stroke="rgb(100%, 100%, 100%)" stroke-opacity="1" stroke-miterlimit="2" d="M 364.1875 115.285156 L 400 137.132812 "/>
<path fill="none" stroke-width="0.5" stroke-linecap="butt" stroke-linejoin="miter" stroke="rgb(100%, 100%, 100%)" stroke-opacity="1" stroke-miterlimit="2" d="M 400 137.132812 L 435.8125 115.285156 "/>
<path fill="none" stroke-width="0.5" stroke-linecap="butt" stroke-linejoin="miter" stroke="rgb(100%, 100%, 100%)" stroke-opacity="1" stroke-miterlimit="2" d="M 435.8125 115.285156 L 435.769531 72.171875 "/>
<path fill="none" stroke-width="0.5" stroke-linecap="butt" stroke-linejoin="miter" stroke="rgb(100%, 100%, 100%)" stroke-opacity="1" stroke-miterlimit="2" d="M 435.769531 72.171875 L 400 50.910156 "/>
<path fill="none" stroke-width="0.5" stroke-linecap="butt" stroke-linejoin="miter" stroke="rgb(100%, 100%, 100%)" stroke-opacity="1" stroke-miterlimit="2" d="M 400 50.910156 L 364.230469 72.171875 "/>
<path fill="none" stroke-width="0.5" stroke-linecap="butt" stroke-linejoin="miter" stroke="rgb(100%, 100%, 100%)" stroke-opacity="1" stroke-miterlimit="2" d="M 364.230469 72.171875 L 364.1875 115.285156 "/>
<path fill-rule="nonzero" fill="rgb(100%, 64.705884%, 0%)" fill-opacity="1" d="M 435.8125 684.714844 L 485.304688 653.011719 L 458.3125 597.851562 L 400 598.605469 L 400 662.867188 Z M 435.8125 684.714844 "/>
<path fill="none" stroke-width="0.5" stroke-linecap="butt" stroke-linejoin="miter" stroke="rgb(100%, 100%, 100%)" stroke-opacity="1" stroke-miterlimit="2" d="M 435.8125 684.714844 L 485.304688 653.011719 "/>
<path fill="none" stroke-width="0.5" stroke-linecap="butt" stroke-linejoin="miter" stroke="rgb(100%, 100%, 100%)" stroke-opacity="1" stroke-miterlimit="2" d="M 485.304688 653.011719 L 458.3125 597.851562 "/>
<path fill="none" stroke-width="0.5" stroke-linecap="butt" stroke-linejoin="miter" stroke="rgb(100%, 100%, 100%)" stroke-opacity="1" stroke-miterlimit="2" d="M 458.3125 597.851562 L 400 598.605469 "/>
<path fill="none" stroke-width="0.5" stroke-linecap="butt" stroke-linejoin="miter" stroke="rgb(100%, 100%, 100%)" stroke-opacity="1" stroke-miterlimit="2" d="M 400 598.605469 L 400 662.867188 "/>
<path fill="none" stroke-width="0.5" stroke-linecap="butt" stroke-linejoin="miter" stroke="rgb(100%, 100%, 100%)" stroke-opacity="1" stroke-miterlimit="2" d="M 400 662.867188 L 435.8125 684.714844 "/>
<path fill-rule="nonzero" fill="rgb(56.470591%, 47.843137%, 83.92157%)" fill-opacity="1" d="M 400 347.050781 L 400 286.613281 L 336.976562 289.570312 L 273.828125 400 Z M 400 347.050781 "/>
<path fill="none" stroke-width="0.5" stroke-linecap="butt" stroke-linejoin="miter" stroke="rgb(100%, 100%, 100%)" stroke-opacity="1" stroke-miterlimit="2" d="M 400 347.050781 L 400 286.613281 "/>
<path fill="none" stroke-width="0.5" stroke-linecap="butt" stroke-linejoin="miter" stroke="rgb(100%, 100%, 100%)" stroke-opacity="1" stroke-miterlimit="2" d="M 400 286.613281 L 336.976562 289.570312 "/>
<path fill="none" stroke-width="0.5" stroke-linecap="butt" stroke-linejoin="miter" stroke="rgb(100%, 100%, 100%)" stroke-opacity="1" stroke-miterlimit="2" d="M 336.976562 289.570312 L 273.828125 400 "/>
<path fill="none" stroke-width="0.5" stroke-linecap="butt" stroke-linejoin="miter" stroke="rgb(100%, 100%, 100%)" stroke-opacity="1" stroke-miterlimit="2" d="M 273.828125 400 L 400 347.050781 "/>
</svg>
