<?xml version="1.0" encoding="UTF-8"?>
<svg xmlns="http://www.w3.org/2000/svg" xmlns:xlink="http://www.w3.org/1999/xlink" width="800" height="800" viewBox="0 0 800 800">
<rect x="-80" y="-80" width="960" height="960" fill="rgb(100%, 100%, 100%)" fill-opacity="1"/>
<path fill-rule="nonzero" fill="rgb(100%, 100%, 100%)" fill-opacity="1" d="M 24 784 L 776 784 L 776 16 L 24 16 Z M 24 784 "/>
<path fill-rule="nonzero" fill="rgb(100%, 64.705884%, 0%)" fill-opacity="1" d="M 428.667969 496.726562 L 439.296875 474.359375 L 430.925781 453.726562 L 400 455.136719 L 400 497.085938 Z M 428.667969 496.726562 "/>
<path fill="none" stroke-width="0.5" stroke-linecap="butt" stroke-linejoin="miter" stroke="rgb(100%, 100%, 100%)" stroke-opacity="1" stroke-miterlimit="2" d="M 428.667969 496.726562 L 439.296875 474.359375 "/>
<path fill="none" stroke-width="0.5" stroke-linecap="butt" stroke-linejoin="miter" stroke="rgb(100%, 100%, 100%)" stroke-opacity="1" stroke-miterlimit="2" d="M 439.296875 474.359375 L 430.925781 453.726562 "/>
<path fill="none" stroke-width="0.5" stroke-linecap="butt" stroke-linejoin="miter" stroke="rgb(100%, 100%, 100%)" stroke-opacity="1" stroke-miterlimit="2" d="M 430.925781 453.726562 L 400 455.136719 "/>
<path fill="none" stroke-width="0.5" stroke-linecap="butt" stroke-linejoin="miter" stroke="rgb(100%, 100%, 100%)" stroke-opacity="1" stroke-miterlimit="2" d="M 400 455.136719 L 400 497.085938 "/>
<path fill="none" stroke-width="0.5" stroke-linecap="butt" stroke-linejoin="miter" stroke="rgb(100%, 100%, 100%)" stroke-opacity="1" stroke-miterlimit="2" d="M 400 497.085938 L 428.667969 496.726562 "/>
<path fill-rule="nonzero" fill="rgb(100%, 64.705884%, 0%)" fill-opacity="1" d="M 430.925781 346.273438 L 439.296875 325.640625 L 428.667969 303.273438 L 400 302.914062 L 400 344.863281 Z M 430.925781 346.273438 "/>
<path fill="none" stroke-width="0.5" stroke-linecap="butt" stroke-linejoin="miter" stroke="rgb(100%, 100%, 100%)" stroke-opacity="1" stroke-miterlimit="2" d="M 430.925781 346.273438 L 439.296875 325.640625 "/>
<path fill="none" stroke-width="0.5" stroke-linecap="butt" stroke-linejoin="miter" stroke="rgb(100%, 100%, 100%)" stroke-opacity="1" stroke-miterlimit="2" d="M 439.296875 325.640625 L 428.667969 303.273438 "/>
<path fill="none" stroke-width="0.5" stroke-linecap="butt" stroke-linejoin="miter" stroke="rgb(100%, 100%, 100%)" stroke-opacity="1" stroke-miterlimit="2" d="M 428.667969 303.273438 L 400 302.914062 "/>
<path fill="none" stroke-width="0.5" stroke-linecap="butt" stroke-linejoin="miter" stroke="rgb(100%, 100%, 100%)" stroke-opacity="1" stroke-miterlimit="2" d="M 400 302.914062 L 400 344.863281 "/>
<path fill="none" stroke-width="0.5" stroke-linecap="butt" stroke-linejoin="miter" stroke="rgb(100%, 100%, 100%)" stroke-opacity="1" stroke-miterlimit="2" d="M 400 344.863281 L 430.925781 346.273438 "/>
<path fill-rule="nonzero" fill="rgb(100%, 64.705884%, 0%)" fill-opacity="1" d="M 369.074219 346.273438 L 400 344.863281 L 400 302.914062 L 371.332031 303.273438 L 360.703125 325.640625 Z M 369.074219 346.273438 "/>
<path fill="none" stroke-width="0.5" stroke-linecap="butt" stroke-linejoin="miter" stroke="rgb(100%, 100%, 100%)" stroke-opacity="1" stroke-miterlimit="2" d="M 369.074219 346.273438 L 400 344.863281 "/>
<path fill="none" stroke-width="0.5" stroke-linecap="butt" stroke-linejoin="miter" stroke="rgb(100%, 100%, 100%)" stroke-opacity="1" stroke-miterlimit="2" d="M 400 344.863281 L 400 302.914062 "/>
<path fill="none" stroke-width="0.5" stroke-linecap="butt" stroke-linejoin="miter" stroke="rgb(100%, 100%, 100%)" stroke-opacity="1" stroke-miterlimit="2" d="M 400 302.914062 L 371.332031 303.273438 "/>
<path fill="none" stroke-width="0.5" stroke-linecap="butt" stroke-linejoin="miter" stroke="rgb(100%, 100%, 100%)" stroke-opacity="1" stroke-miterlimit="2" d="M 371.332031 303.273438 L 360.703125 325.640625 "/>
<path fill="none" stroke-width="0.5" stroke-linecap="butt" stroke-linejoin="miter" stroke="rgb(100%, 100%, 100%)" stroke-opacity="1" stroke-miterlimit="2" d="M 360.703125 325.640625 L 369.074219 346.273438 "/>
<path fill-rule="nonzero" fill="rgb(100%, 64.705884%, 0%)" fill-opacity="1" d="M 371.332031 496.726562 L 400 497.085938 L 400 455.136719 L 369.074219 453.726562 L 360.703125 474.359375 Z M 371.332031 496.726562 "/>
<path fill="none" stroke-width="0.5" stroke-linecap="butt" stroke-linejoin="miter" stroke="rgb(100%, 100%, 100%)" stroke-opacity="1" stroke-miterlimit="2" d="M 371.332031 496.726562 L 400 497.085938 "/>
<path fill="none" stroke-width="0.5" stroke-linecap="butt" stroke-linejoin="miter" stroke="rgb(100%, 100%, 100%)" stroke-opacity="1" stroke-miterlimit="2" d="M 400 497.085938 L 400 455.136719 "/>
<path fill="none" stroke-width="0.5" stroke-linecap="butt" stroke-linejoin="miter" stroke="rgb(100%, 100%, 100%)" stroke-opacity="1" stroke-miterlimit="2" d="M 400 455.136719 L 369.074219 453.726562 "/>
<path fill="none" stroke-width="0.5" stroke-linecap="butt" stroke-linejoin="miter" stroke="rgb(100%, 100%, 100%)" stroke-opacity="1" stroke-miterlimit="2" d="M 369.074219 453.726562 L 360.703125 474.359375 "/>
<path fill="none" stroke-width="0.5" stroke-linecap="butt" stroke-linejoin="miter" stroke="rgb(100%, 100%, 100%)" stroke-opacity="1" stroke-miterlimit="2" d="M 360.703125 474.359375 L 371.332031 496.726562 "/>
</svg>
