<?xml version="1.0" encoding="UTF-8"?>
<svg xmlns="http://www.w3.org/2000/svg" xmlns:xlink="http://www.w3.org/1999/xlink" width="800" height="800" viewBox="0 0 800 800">
<rect x="-80" y="-80" width="960" height="960" fill="rgb(100%, 100%, 100%)" fill-opacity="1"/>
<path fill-rule="nonzero" fill="rgb(100%, 100%, 100%)" fill-opacity="1" d="M 16 784 L 784 784 L 784 16 L 16 16 Z M 16 784 "/>
<path fill-rule="nonzero" fill="rgb(56.470591%, 47.843137%, 83.92157%)" fill-opacity="1" d="M 419.199219 419.199219 L 419.199219 380.800781 L 380.800781 380.800781 L 380.800781 419.199219 Z M 419.199219 419.199219 "/>
<path fill="none" stroke-width="0.5" stroke-linecap="butt" stroke-linejoin="miter" stroke="rgb(100%, 100%, 100%)" stroke-opacity="1" stroke-miterlimit="2" d="M 419.199219 419.199219 L 419.199219 380.800781 "/>
<path fill="none" stroke-width="0.5" stroke-linecap="butt" stroke-linejoin="miter" stroke="rgb(100%, 100%, 100%)" stroke-opacity="1" stroke-miterlimit="2" d="M 419.199219 380.800781 L 380.800781 380.800781 "/>
<path fill="none" stroke-width="0.5" stroke-linecap="butt" stroke-linejoin="miter" stroke="rgb(100%, 100%, 100%)" stroke-opacity="1" stroke-miterlimit="2" d="M 380.800781 380.800781 L 380.800781 419.199219 "/>
<path fill="none" stroke-width="0.5" stroke-linecap="butt" stroke-linejoin="miter" stroke="rgb(100%, 100%, 100%)" stroke-opacity="1" stroke-miterlimit="2" d="M 380.800781 419.199219 L 419.199219 419.199219 "/>
<path fill-rule="nonzero" fill="rgb(100%, 54.901963%, 0%)" fill-opacity="1" d="M 419.199219 380.800781 L 419.199219 419.199219 L 446.351562 446.351562 L 484.753906 446.351562 L 511.90625 419.199219 L 511.90625 380.800781 L 484.753906 353.648438 L 446.351562 353.648438 Z M 419.199219 380.800781 "/>
<path fill="none" stroke-width="0.5" stroke-linecap="butt" stroke-linejoin="miter" stroke="rgb(100%, 100%, 100%)" stroke-opacity="1" stroke-miterlimit="2" d="M 419.199219 380.800781 L 419.199219 419.199219 "/>
<path fill="none" stroke-width="0.5" stroke-linecap="butt" stroke-linejoin="miter" stroke="rgb(100%, 100%, 100%)" stroke-opacity="1" stroke-miterlimit="2" d="M 419.199219 419.199219 L 446.351562 446.351562 "/>
<path fill="none" stroke-width="0.5" stroke-linecap="butt" stroke-linejoin="miter" stroke="rgb(100%, 100%, 100%)" stroke-opacity="1" stroke-miterlimit="2" d="M 446.351562 446.351562 L 484.753906 446.351562 "/>
<path fill="none" stroke-width="0.5" stroke-linecap="butt" stroke-linejoin="miter" stroke="rgb(100%, 100%, 100%)" stroke-opacity="1" stroke-miterlimit="2" d="M 484.753906 446.351562 L 511.90625 419.199219 "/>
<path fill="none" stroke-width="0.5" stroke-linecap="butt" stroke-linejoin="miter" stroke="rgb(100%, 100%, 100%)" stroke-opacity="1" stroke-miterlimit="2" d="M 511.90625 419.199219 L 511.90625 380.800781 "/>
<path fill="none" stroke-width="0.5" stroke-linecap="butt" stroke-linejoin="miter" stroke="rgb(100%, 100%, 100%)" stroke-opacity="1" stroke-miterlimit="2" d="M 511.90625 380.800781 L 484.753906 353.648438 "/>
<path fill="none" stroke-width="0.5" stroke-linecap="butt" stroke-linejoin="miter" stroke="rgb(100%, 100%, 100%)" stroke-opacity="1" stroke-miterlimit="2" d="M 484.753906 353.648438 L 446.351562 353.648438 "/>
<path fill="none" stroke-width="0.5" stroke-linecap="butt" stroke-linejoin="miter" stroke="rgb(100%, 100%, 100%)" stroke-opacity="1" stroke-miterlimit="2" d="M 446.351562 353.648438 L 419.199219 380.800781 "/>
<path fill-rule="nonzero" fill="rgb(100%, 54.901963%, 0%)" fill-opacity="1" d="M 380.800781 380.800781 L 419.199219 380.800781 L 446.351562 353.648438 L 446.351562 315.246094 L 419.199219 288.09375 L 380.800781 288.09375 L 353.648438 315.246094 L 353.648438 353.648438 Z M 380.800781 380.800781 "/>
<path fill="none" stroke-width="0.5" stroke-linecap="butt" stroke-linejoin="miter" stroke="rgb(100%, 100%, 100%)" stroke-opacity="1" stroke-miterlimit="2" d="M 380.800781 380.800781 L 419.199219 380.800781 "/>
<path fill="none" stroke-width="0.5" stroke-linecap="butt" stroke-linejoin="miter" stroke="rgb(100%, 100%, 100%)" stroke-opacity="1" stroke-miterlimit="2" d="M 419.199219 380.800781 L 446.351562 353.648438 "/>
<path fill="none" stroke-width="0.5" stroke-linecap="butt" stroke-linejoin="miter" stroke="rgb(100%, 100%, 100%)" stroke-opacity="1" stroke-miterlimit="2" d="M 446.351562 353.648438 L 446.351562 315.246094 "/>
<path fill="none" stroke-width="0.5" stroke-linecap="butt" stroke-linejoin="miter" stroke="rgb(100%, 100%, 100%)" stroke-opacity="1" stroke-miterlimit="2" d="M 446.351562 315.246094 L 419.199219 288.09375 "/>
<path fill="none" stroke-width="0.5" stroke-linecap="butt" stroke-linejoin="miter" stroke="rgb(100%, 100%, 100%)" stroke-opacity="1" stroke-miterlimit="2" d="M 419.199219 288.09375 L 380.800781 288.09375 "/>
<path fill="none" stroke-width="0.5" stroke-linecap="butt" stroke-linejoin="miter" stroke="rgb(100%, 100%, 100%)" stroke-opacity="1" stroke-miterlimit="2" d="M 380.800781 288.09375 L 353.648438 315.246094 "/>
<path fill="none" stroke-width="0.5" stroke-linecap="butt" stroke-linejoin="miter" stroke="rgb(100%, 100%, 100%)" stroke-opacity="1" stroke-miterlimit="2" d="M 353.648438 315.246094 L 353.648438 353.648438 "/>
<path fill="none" stroke-width="0.5" stroke-linecap="butt" stroke-linejoin="miter" stroke="rgb(100%, 100%, 100%)" stroke-opacity="1" stroke-miterlimit="2" d="M 353.648438 353.648438 L 380.800781 380.800781 "/>
<path fill-rule="nonzero" fill="rgb(100%, 54.901963%, 0%)" fill-opacity="1" d="M 380.800781 419.199219 L 380.800781 380.800781 L 353.648438 353.648438 L 315.246094 353.648438 L 288.09375 380.800781 L 288.09375 419.199219 L 315.246094 446.351562 L 353.648438 446.351562 Z M 380.800781 419.199219 "/>
<path fill="none" stroke-width="0.5" stroke-linecap="butt" stroke-linejoin="miter" stroke="rgb(100%, 100%, 100%)" stroke-opacity="1" stroke-miterlimit="2" d="M 380.800781 419.199219 L 380.800781 380.800781 "/>
<path fill="none" stroke-width="0.5" stroke-linecap="butt" stroke-linejoin="miter" stroke="rgb(100%, 100%, 100%)" stroke-opacity="1" stroke-miterlimit="2" d="M 380.800781 380.800781 L 353.648438 353.648438 "/>
<path fill="none" stroke-width="0.5" stroke-linecap="butt" stroke-linejoin="miter" stroke="rgb(100%, 100%, 100%)" stroke-opacity="1" stroke-miterlimit="2" d="M 353.648438 353.648438 L 315.246094 353.648438 "/>
<path fill="none" stroke-width="0.5" stroke-linecap="butt" stroke-linejoin="miter" stroke="rgb(100%, 100%, 100%)" stroke-opacity="1" stroke-miterlimit="2" d="M 315.246094 353.648438 L 288.09375 380.800781 "/>
<path fill="none" stroke-width="0.5" stroke-linecap="butt" stroke-linejoin="miter" stroke="rgb(100%, 100%, 100%)" stroke-opacity="1" stroke-miterlimit="2" d="M 288.09375 380.800781 L 288.09375 419.199219 "/>
<path fill="none" stroke-width="0.5" stroke-linecap="butt" stroke-linejoin="miter" stroke="rgb(100%, 100%, 100%)" stroke-opacity="1" stroke-miterlimit="2" d="M 288.09375 419.199219 L 315.246094 446.351562 "/>
<path fill="none" stroke-width="0.5" stroke-linecap="butt" stroke-linejoin="miter" stroke="rgb(100%, 100%, 100%)" stroke-opacity="1" stroke-miterlimit="2" d="M 315.246094 446.351562 L 353.648438 446.351562 "/>
<path fill="none" stroke-width="0.5" stroke-linecap="butt" stroke-linejoin="miter" stroke="rgb(100%, 100%, 100%)" stroke-opacity="1" stroke-miterlimit="2" d="M 353.648438 446.351562 L 380.800781 419.199219 "/>
<path fill-rule="nonzero" fill="rgb(100%, 54.901963%, 0%)" fill-opacity="1" d="M 419.199219 419.199219 L 380.800781 419.199219 L 353.648438 446.351562 L 353.648438 484.753906 L 380.800781 511.90625 L 419.199219 511.90625 L 446.351562 484.753906 L 446.351562 446.351562 Z M 419.199219 419.199219 "/>
<path fill="none" stroke-width="0.5" stroke-linecap="butt" stroke-linejoin="miter" stroke="rgb(100%, 100%, 100%)" stroke-opacity="1" stroke-miterlimit="2" d="M 419.199219 419.199219 L 380.800781 419.199219 "/>
<path fill="none" stroke-width="0.5" stroke-linecap="butt" stroke-linejoin="miter" stroke="rgb(100%, 100%, 100%)" stroke-opacity="1" stroke-miterlimit="2" d="M 380.800781 419.199219 L 353.648438 446.351562 "/>
<path fill="none" stroke-width="0.5" stroke-linecap="butt" stroke-linejoin="miter" stroke="rgb(100%, 100%, 100%)" stroke-opacity="1" stroke-miterlimit="2" d="M 353.648438 446.351562 L 353.648438 484.753906 "/>
<path fill="none" stroke-width="0.5" stroke-linecap="butt" stroke-linejoin="miter" stroke="rgb(100%, 100%, 100%)" stroke-opacity="1" stroke-miterlimit="2" d="M 353.648438 484.753906 L 380.800781 511.90625 "/>
<path fill="none" stroke-width="0.5" stroke-linecap="butt" stroke-linejoin="miter" stroke="rgb(100%, 100%, 100%)" stroke-opacity="1" stroke-miterlimit="2" d="M 380.800781 511.90625 L 419.199219 511.90625 "/>
<path fill="none" stroke-width="0.5" stroke-linecap="butt" stroke-linejoin="miter" stroke="rgb(100%, 100%, 100%)" stroke-opacity="1" stroke-miterlimit="2" d="M 419.199219 511.90625 L 446.351562 484.753906 "/>
<path fill="none" stroke-width="0.5" stroke-linecap="butt" stroke-linejoin="miter" stroke="rgb(100%, 100%, 100%)" stroke-opacity="1" stroke-miterlimit="2" d="M 446.351562 484.753906 L 446.351562 446.351562 "/>
<path fill="none" stroke-width="0.5" stroke-linecap="butt" stroke-linejoin="miter" stroke="rgb(100%, 100%, 100%)" stroke-opacity="1" stroke-miterlimit="2" d="M 446.351562 446.351562 L 419.199219 419.199219 "/>
<path fill-rule="nonzero" fill="rgb(56.470591%, 47.843137%, 83.92157%)" fill-opacity="1" d="M 484.753906 446.351562 L 446.351562 446.351562 L 446.351562 484.753906 L 484.753906 484.753906 Z M 484.753906 446.351562 "/>
<path fill="none" stroke-width="0.5" stroke-linecap="butt" stroke-linejoin="miter" stroke="rgb(100%, 100%, 100%)" stroke-opacity="1" stroke-miterlimit="2" d="M 484.753906 446.351562 L 446.351562 446.351562 "/>
<path fill="none" stroke-width="0.5" stroke-linecap="butt" stroke-linejoin="miter" stroke="rgb(100%, 100%, 100%)" stroke-opacity="1" stroke-miterlimit="2" d="M 446.351562 446.351562 L 446.351562 484.753906 "/>
<path fill="none" stroke-width="0.5" stroke-linecap="butt" stroke-linejoin="miter" stroke="rgb(100%, 100%, 100%)" stroke-opacity="1" stroke-miterlimit="2" d="M 446.351562 484.753906 L 484.753906 484.753906 "/>
<path fill="none" stroke-width="0.5" stroke-linecap="butt" stroke-linejoin="miter" stroke="rgb(100%, 100%, 100%)" stroke-opacity="1" stroke-miterlimit="2" d="M 484.753906 484.753906 L 484.753906 446.351562 "/>
<path fill-rule="nonzero" fill="rgb(56.470591%, 47.843137%, 83.92157%)" fill-opacity="1" d="M 446.351562 315.246094 L 446.351562 353.648438 L 484.753906 353.648438 L 484.753906 315.246094 Z M 446.351562 315.246094 "/>
<path fill="none" stroke-width="0.5" stroke-linecap="butt" stroke-linejoin="miter" stroke="rgb(100%, 100%, 100%)" stroke-opacity="1" stroke-miterlimit="2" d="M 446.351562 315.246094 L 446.351562 353.648438 "/>
<path fill="none" stroke-width="0.5" stroke-linecap="butt" stroke-linejoin="miter" stroke="rgb(100%, 100%, 100%)" stroke-opacity="1" stroke-miterlimit="2" d="M 446.351562 353.648438 L 484.753906 353.648438 "/>
<path fill="none" stroke-width="0.5" stroke-linecap="butt" stroke-linejoin="miter" stroke="rgb(100%, 100%, 100%)" stroke-opacity="1" stroke-miterlimit="2" d="M 484.753906 353.648438 L 484.753906 315.246094 "/>
<path fill="none" stroke-width="0.5" stroke-linecap="butt" stroke-linejoin="miter" stroke="rgb(100%, 100%, 100%)" stroke-opacity="1" stroke-miterlimit="2" d="M 484.753906 315.246094 L 446.351562 315.246094 "/>
<path fill-rule="nonzero" fill="rgb(56.470591%, 47.843137%, 83.92157%)" fill-opacity="1" d="M 315.246094 353.648438 L 353.648438 353.648438 L 353.648438 315.246094 L 315.246094 315.246094 Z M 315.246094 353.648438 "/>
<path fill="none" stroke-width="0.5" stroke-linecap="butt" stroke-linejoin="miter" stroke="rgb(100%, 100%, 100%)" stroke-opacity="1" stroke-miterlimit="2" d="M 315.246094 353.648438 L 353.648438 353.648438 "/>
<path fill="none" stroke-width="0.5" stroke-linecap="butt" stroke-linejoin="miter" stroke="rgb(100%, 100%, 100%)" stroke-opacity="1" stroke-miterlimit="2" d="M 353.648438 353.648438 L 353.648438 315.246094 "/>
<path fill="none" stroke-width="0.5" stroke-linecap="butt" stroke-linejoin="miter" stroke="rgb(100%, 100%, 100%)" stroke-opacity="1" stroke-miterlimit="2" d="M 353.648438 315.246094 L 315.246094 315.246094 "/>
<path fill="none" stroke-width="0.5" stroke-linecap="butt" stroke-linejoin="miter" stroke="rgb(100%, 100%, 100%)" stroke-opacity="1" stroke-miterlimit="2" d="M 315.246094 315.246094 L 315.246094 353.648438 "/>
<path fill-rule="nonzero" fill="rgb(56.470591%, 47.843137%, 83.92157%)" fill-opacity="1" d="M 353.648438 484.753906 L 353.648438 446.351562 L 315.246094 446.351562 L 315.246094 484.753906 Z M 353.648438 484.753906 "/>
<path fill="none" stroke-width="0.5" stroke-linecap="butt" stroke-linejoin="miter" stroke="rgb(100%, 100%, 100%)" stroke-opacity="1" stroke-miterlimit="2" d="M 353.648438 484.753906 L 353.648438 446.351562 "/>
<path fill="none" stroke-width="0.5" stroke-linecap="butt" stroke-linejoin="miter" stroke="rgb(100%, 100%, 100%)" stroke-opacity="1" stroke-miterlimit="2" d="M 353.648438 446.351562 L 315.246094 446.351562 "/>
<path fill="none" stroke-width="0.5" stroke-linecap="butt" stroke-linejoin="miter" stroke="rgb(100%, 100%, 100%)" stroke-opacity="1" stroke-miterlimit="2" d="M 315.246094 446.351562 L 315.246094 484.753906 "/>
<path fill="none" stroke-width="0.5" stroke-linecap="butt" stroke-linejoin="miter" stroke="rgb(100%, 100%, 100%)" stroke-opacity="1" stroke-miterlimit="2" d="M 315.246094 484.753906 L 353.648438 484.753906 "/>
<path fill-rule="nonzero" fill="rgb(100%, 54.901963%, 0%)" fill-opacity="1" d="M 484.753906 484.753906 L 446.351562 484.753906 L 419.199219 511.90625 L 419.199219 550.304688 L 446.351562 577.457031 L 484.753906 577.457031 L 511.90625 550.304688 L 511.90625 511.90625 Z M 484.753906 484.753906 "/>
<path fill="none" stroke-width="0.5" stroke-linecap="butt" stroke-linejoin="miter" stroke="rgb(100%, 100%, 100%)" stroke-opacity="1" stroke-miterlimit="2" d="M 484.753906 484.753906 L 446.351562 484.753906 "/>
<path fill="none" stroke-width="0.5" stroke-linecap="butt" stroke-linejoin="miter" stroke="rgb(100%, 100%, 100%)" stroke-opacity="1" stroke-miterlimit="2" d="M 446.351562 484.753906 L 419.199219 511.90625 "/>
<path fill="none" stroke-width="0.5" stroke-linecap="butt" stroke-linejoin="miter" stroke="rgb(100%, 100%, 100%)" stroke-opacity="1" stroke-miterlimit="2" d="M 419.199219 511.90625 L 419.199219 550.304688 "/>
<path fill="none" stroke-width="0.5" stroke-linecap="butt" stroke-linejoin="miter" stroke="rgb(100%, 100%, 100%)" stroke-opacity="1" stroke-miterlimit="2" d="M 419.199219 550.304688 L 446.351562 577.457031 "/>
<path fill="none" stroke-width="0.5" stroke-linecap="butt" stroke-linejoin="miter" stroke="rgb(100%, 100%, 100%)" stroke-opacity="1" stroke-miterlimit="2" d="M 446.351562 577.457031 L 484.753906 577.457031 "/>
<path fill="none" stroke-width="0.5" stroke-linecap="butt" stroke-linejoin="miter" stroke="rgb(100%, 100%, 100%)" stroke-opacity="1" stroke-miterlimit="2" d="M 484.753906 577.457031 L 511.90625 550.304688 "/>
<path fill="none" stroke-width="0.5" stroke-linecap="butt" stroke-linejoin="miter" stroke="rgb(100%, 100%, 100%)" stroke-opacity="1" stroke-miterlimit="2" d="M 511.90625 550.304688 L 511.90625 511.90625 "/>
<path fill="none" stroke-width="0.5" stroke-linecap="butt" stroke-linejoin="miter" stroke="rgb(100%, 100%, 100%)" stroke-opacity="1" stroke-miterlimit="2" d="M 511.90625 511.90625 L 484.753906 484.753906 "/>
<path fill-rule="nonzero" fill="rgb(100%, 54.901963%, 0%)" fill-opacity="1" d="M 484.753906 315.246094 L 484.753906 353.648438 L 511.90625 380.800781 L 550.304688 380.800781 L 577.457031 353.648438 L 577.457031 315.246094 L 550.304688 288.09375 L 511.90625 288.09375 Z M 484.753906 315.246094 "/>
<path fill="none" stroke-width="0.5" stroke-linecap="butt" stroke-linejoin="miter" stroke="rgb(100%, 100%, 100%)" stroke-opacity="1" stroke-miterlimit="2" d="M 484.753906 315.246094 L 484.753906 353.648438 "/>
<path fill="none" stroke-width="0.5" stroke-linecap="butt" stroke-linejoin="miter" stroke="rgb(100%, 100%, 100%)" stroke-opacity="1" stroke-miterlimit="2" d="M 484.753906 353.648438 L 511.90625 380.800781 "/>
<path fill="none" stroke-width="0.5" stroke-linecap="butt" stroke-linejoin="miter" stroke="rgb(100%, 100%, 100%)" stroke-opacity="1" stroke-miterlimit="2" d="M 511.90625 380.800781 L 550.304688 380.800781 "/>
<path fill="none" stroke-width="0.5" stroke-linecap="butt" stroke-linejoin="miter" stroke="rgb(100%, 100%, 100%)" stroke-opacity="1" stroke-miterlimit="2" d="M 550.304688 380.800781 L 577.457031 353.648438 "/>
<path fill="none" stroke-width="0.5" stroke-linecap="butt" stroke-linejoin="miter" stroke="rgb(100%, 100%, 100%)" stroke-opacity="1" stroke-miterlimit="2" d="M 577.457031 353.648438 L 577.457031 315.246094 "/>
<path fill="none" stroke-width="0.5" stroke-linecap="butt" stroke-linejoin="miter" stroke="rgb(100%, 100%, 100%)" stroke-opacity="1" stroke-miterlimit="2" d="M 577.457031 315.246094 L 550.304688 288.09375 "/>
<path fill="none" stroke-width="0.5" stroke-linecap="butt" stroke-linejoin="miter" stroke="rgb(100%, 100%, 100%)" stroke-opacity="1" stroke-miterlimit="2" d="M 550.304688 288.09375 L 511.90625 288.09375 "/>
<path fill="none" stroke-width="0.5" stroke-linecap="butt" stroke-linejoin="miter" stroke="rgb(100%, 100%, 100%)" stroke-opacity="1" stroke-miterlimit="2" d="M 511.90625 288.09375 L 484.753906 315.246094 "/>
<path fill-rule="nonzero" fill="rgb(100%, 54.901963%, 0%)" fill-opacity="1" d="M 315.246094 315.246094 L 353.648438 315.246094 L 380.800781 288.09375 L 380.800781 249.695312 L 353.648438 222.542969 L 315.246094 222.542969 L 288.09375 249.695312 L 288.09375 288.09375 Z M 315.246094 315.246094 "/>
<path fill="none" stroke-width="0.5" stroke-linecap="butt" stroke-linejoin="miter" stroke="rgb(100%, 100%, 100%)" stroke-opacity="1" stroke-miterlimit="2" d="M 315.246094 315.246094 L 353.648438 315.246094 "/>
<path fill="none" stroke-width="0.5" stroke-linecap="butt" stroke-linejoin="miter" stroke="rgb(100%, 100%, 100%)" stroke-opacity="1" stroke-miterlimit="2" d="M 353.648438 315.246094 L 380.800781 288.09375 "/>
<path fill="none" stroke-width="0.5" stroke-linecap="butt" stroke-linejoin="miter" stroke="rgb(100%, 100%, 100%)" stroke-opacity="1" stroke-miterlimit="2" d="M 380.800781 288.09375 L 380.800781 249.695312 "/>
<path fill="none" stroke-width="0.5" stroke-linecap="butt" stroke-linejoin="miter" stroke="rgb(100%, 100%, 100%)" stroke-opacity="1" stroke-miterlimit="2" d="M 380.800781 249.695312 L 353.648438 222.542969 "/>
<path fill="none" stroke-width="0.5" stroke-linecap="butt" stroke-linejoin="miter" stroke="rgb(100%, 100%, 100%)" stroke-opacity="1" stroke-miterlimit="2" d="M 353.648438 222.542969 L 315.246094 222.542969 "/>
<path fill="none" stroke-width="0.5" stroke-linecap="butt" stroke-linejoin="miter" stroke="rgb(100%, 100%, 100%)" stroke-opacity="1" stroke-miterlimit="2" d="M 315.246094 222.542969 L 288.09375 249.695312 "/>
<path fill="none" stroke-width="0.5" stroke-linecap="butt" stroke-linejoin="miter" stroke="rgb(100%, 100%, 100%)" stroke-opacity="1" stroke-miterlimit="2" d="M 288.09375 249.695312 L 288.09375 288.09375 "/>
<path fill="none" stroke-width="0.5" stroke-linecap="butt" stroke-linejoin="miter" stroke="rgb(100%, 100%, 100%)" stroke-opacity="1" stroke-miterlimit="2" d="M 288.09375 288.09375 L 315.246094 315.246094 "/>
<path fill-rule="nonzero" fill="rgb(100%, 54.901963%, 0%)" fill-opacity="1" d="M 315.246094 484.753906 L 315.246094 446.351562 L 288.09375 419.199219 L 249.695312 419.199219 L 222.542969 446.351562 L 222.542969 484.753906 L 249.695312 511.90625 L 288.09375 511.90625 Z M 315.246094 484.753906 "/>
<path fill="none" stroke-width="0.5" stroke-linecap="butt" stroke-linejoin="miter" stroke="rgb(100%, 100%, 100%)" stroke-opacity="1" stroke-miterlimit="2" d="M 315.246094 484.753906 L 315.246094 446.351562 "/>
<path fill="none" stroke-width="0.5" stroke-linecap="butt" stroke-linejoin="miter" stroke="rgb(100%, 100%, 100%)" stroke-opacity="1" stroke-miterlimit="2" d="M 315.246094 446.351562 L 288.09375 419.199219 "/>
<path fill="none" stroke-width="0.5" stroke-linecap="butt" stroke-linejoin="miter" stroke="rgb(100%, 100%, 100%)" stroke-opacity="1" stroke-miterlimit="2" d="M 288.09375 419.199219 L 249.695312 419.199219 "/>
<path fill="none" stroke-width="0.5" stroke-linecap="butt" stroke-linejoin="miter" stroke="rgb(100%, 100%, 100%)" stroke-opacity="1" stroke-miterlimit="2" d="M 249.695312 419.199219 L 222.542969 446.351562 "/>
<path fill="none" stroke-width="0.5" stroke-linecap="butt" stroke-linejoin="miter" stroke="rgb(100%, 100%, 100%)" stroke-opacity="1" stroke-miterlimit="2" d="M 222.542969 446.351562 L 222.542969 484.753906 "/>
<path fill="none" stroke-width="0.5" stroke-linecap="butt" stroke-linejoin="miter" stroke="rgb(100%, 100%, 100%)" stroke-opacity="1" stroke-miterlimit="2" d="M 222.542969 484.753906 L 249.695312 511.90625 "/>
<path fill="none" stroke-width="0.5" stroke-linecap="butt" stroke-linejoin="miter" stroke="rgb(100%, 100%, 100%)" stroke-opacity="1" stroke-miterlimit="2" d="M 249.695312 511.90625 L 288.09375 511.90625 "/>
<path fill="none" stroke-width="0.5" stroke-linecap="butt" stroke-linejoin="miter" stroke="rgb(100%, 100%, 100%)" stroke-opacity="1" stroke-miterlimit="2" d="M 288.09375 511.90625 L 315.246094 484.753906 "/>
<path fill-rule="nonzero" fill="rgb(100%, 54.901963%, 0%)" fill-opacity="1" d="M 484.753906 446.351562 L 484.753906 484.753906 L 511.90625 511.90625 L 550.304688 511.90625 L 577.457031 484.753906 L 577.457031 446.351562 L 550.304688 419.199219 L 511.90625 419.199219 Z M 484.753906 446.351562 "/>
<path fill="none" stroke-width="0.5" stroke-linecap="butt" stroke-linejoin="miter" stroke="rgb(100%, 100%, 100%)" stroke-opacity="1" stroke-miterlimit="2" d="M 484.753906 446.351562 L 484.753906 484.753906 "/>
<path fill="none" stroke-width="0.5" stroke-linecap="butt" stroke-linejoin="miter" stroke="rgb(100%, 100%, 100%)" stroke-opacity="1" stroke-miterlimit="2" d="M 484.753906 484.753906 L 511.90625 511.90625 "/>
<path fill="none" stroke-width="0.5" stroke-linecap="butt" stroke-linejoin="miter" stroke="rgb(100%, 100%, 100%)" stroke-opacity="1" stroke-miterlimit="2" d="M 511.90625 511.90625 L 550.304688 511.90625 "/>
<path fill="none" stroke-width="0.5" stroke-linecap="butt" stroke-linejoin="miter" stroke="rgb(100%, 100%, 100%)" stroke-opacity="1" stroke-miterlimit="2" d="M 550.304688 511.90625 L 577.457031 484.753906 "/>
<path fill="none" stroke-width="0.5" stroke-linecap="butt" stroke-linejoin="miter" stroke="rgb(100%, 100%, 100%)" stroke-opacity="1" stroke-miterlimit="2" d="M 577.457031 484.753906 L 577.457031 446.351562 "/>
<path fill="none" stroke-width="0.5" stroke-linecap="butt" stroke-linejoin="miter" stroke="rgb(100%, 100%, 100%)" stroke-opacity="1" stroke-miterlimit="2" d="M 577.457031 446.351562 L 550.304688 419.199219 "/>
<path fill="none" stroke-width="0.5" stroke-linecap="butt" stroke-linejoin="miter" stroke="rgb(100%, 100%, 100%)" stroke-opacity="1" stroke-miterlimit="2" d="M 550.304688 419.199219 L 511.90625 419.199219 "/>
<path fill="none" stroke-width="0.5" stroke-linecap="butt" stroke-linejoin="miter" stroke="rgb(100%, 100%, 100%)" stroke-opacity="1" stroke-miterlimit="2" d="M 511.90625 419.199219 L 484.753906 446.351562 "/>
<path fill-rule="nonzero" fill="rgb(100%, 54.901963%, 0%)" fill-opacity="1" d="M 446.351562 315.246094 L 484.753906 315.246094 L 511.90625 288.09375 L 511.90625 249.695312 L 484.753906 222.542969 L 446.351562 222.542969 L 419.199219 249.695312 L 419.199219 288.09375 Z M 446.351562 315.246094 "/>
<path fill="none" stroke-width="0.5" stroke-linecap="butt" stroke-linejoin="miter" stroke="rgb(100%, 100%, 100%)" stroke-opacity="1" stroke-miterlimit="2" d="M 446.351562 315.246094 L 484.753906 315.246094 "/>
<path fill="none" stroke-width="0.5" stroke-linecap="butt" stroke-linejoin="miter" stroke="rgb(100%, 100%, 100%)" stroke-opacity="1" stroke-miterlimit="2" d="M 484.753906 315.246094 L 511.90625 288.09375 "/>
<path fill="none" stroke-width="0.5" stroke-linecap="butt" stroke-linejoin="miter" stroke="rgb(100%, 100%, 100%)" stroke-opacity="1" stroke-miterlimit="2" d="M 511.90625 288.09375 L 511.90625 249.695312 "/>
<path fill="none" stroke-width="0.5" stroke-linecap="butt" stroke-linejoin="miter" stroke="rgb(100%, 100%, 100%)" stroke-opacity="1" stroke-miterlimit="2" d="M 511.90625 249.695312 L 484.753906 222.542969 "/>
<path fill="none" stroke-width="0.5" stroke-linecap="butt" stroke-linejoin="miter" stroke="rgb(100%, 100%, 100%)" stroke-opacity="1" stroke-miterlimit="2" d="M 484.753906 222.542969 L 446.351562 222.542969 "/>
<path fill="none" stroke-width="0.5" stroke-linecap="butt" stroke-linejoin="miter" stroke="rgb(100%, 100%, 100%)" stroke-opacity="1" stroke-miterlimit="2" d="M 446.351562 222.542969 L 419.199219 249.695312 "/>
<path fill="none" stroke-width="0.5" stroke-linecap="butt" stroke-linejoin="miter" stroke="rgb(100%, 100%, 100%)" stroke-opacity="1" stroke-miterlimit="2" d="M 419.199219 249.695312 L 419.199219 288.09375 "/>
<path fill="none" stroke-width="0.5" stroke-linecap="butt" stroke-linejoin="miter" stroke="rgb(100%, 100%, 100%)" stroke-opacity="1" stroke-miterlimit="2" d="M 419.199219 288.09375 L 446.351562 315.246094 "/>
<path fill-rule="nonzero" fill="rgb(100%, 54.901963%, 0%)" fill-opacity="1" d="M 315.246094 353.648438 L 315.246094 315.246094 L 288.09375 288.09375 L 249.695312 288.09375 L 222.542969 315.246094 L 222.542969 353.648438 L 249.695312 380.800781 L 288.09375 380.800781 Z M 315.246094 353.648438 "/>
<path fill="none" stroke-width="0.5" stroke-linecap="butt" stroke-linejoin="miter" stroke="rgb(100%, 100%, 100%)" stroke-opacity="1" stroke-miterlimit="2" d="M 315.246094 353.648438 L 315.246094 315.246094 "/>
<path fill="none" stroke-width="0.5" stroke-linecap="butt" stroke-linejoin="miter" stroke="rgb(100%, 100%, 100%)" stroke-opacity="1" stroke-miterlimit="2" d="M 315.246094 315.246094 L 288.09375 288.09375 "/>
<path fill="none" stroke-width="0.5" stroke-linecap="butt" stroke-linejoin="miter" stroke="rgb(100%, 100%, 100%)" stroke-opacity="1" stroke-miterlimit="2" d="M 288.09375 288.09375 L 249.695312 288.09375 "/>
<path fill="none" stroke-width="0.5" stroke-linecap="butt" stroke-linejoin="miter" stroke="rgb(100%, 100%, 100%)" stroke-opacity="1" stroke-miterlimit="2" d="M 249.695312 288.09375 L 222.542969 315.246094 "/>
<path fill="none" stroke-width="0.5" stroke-linecap="butt" stroke-linejoin="miter" stroke="rgb(100%, 100%, 100%)" stroke-opacity="1" stroke-miterlimit="2" d="M 222.542969 315.246094 L 222.542969 353.648438 "/>
<path fill="none" stroke-width="0.5" stroke-linecap="butt" stroke-linejoin="miter" stroke="rgb(100%, 100%, 100%)" stroke-opacity="1" stroke-miterlimit="2" d="M 222.542969 353.648438 L 249.695312 380.800781 "/>
<path fill="none" stroke-width="0.5" stroke-linecap="butt" stroke-linejoin="miter" stroke="rgb(100%, 100%, 100%)" stroke-opacity="1" stroke-miterlimit="2" d="M 249.695312 380.800781 L 288.09375 380.800781 "/>
<path fill="none" stroke-width="0.5" stroke-linecap="butt" stroke-linejoin="miter" stroke="rgb(100%, 100%, 100%)" stroke-opacity="1" stroke-miterlimit="2" d="M 288.09375 380.800781 L 315.246094 353.648438 "/>
<path fill-rule="nonzero" fill="rgb(100%, 54.901963%, 0%)" fill-opacity="1" d="M 353.648438 484.753906 L 315.246094 484.753906 L 288.09375 511.90625 L 288.09375 550.304688 L 315.246094 577.457031 L 353.648438 577.457031 L 380.800781 550.304688 L 380.800781 511.90625 Z M 353.648438 484.753906 "/>
<path fill="none" stroke-width="0.5" stroke-linecap="butt" stroke-linejoin="miter" stroke="rgb(100%, 100%, 100%)" stroke-opacity="1" stroke-miterlimit="2" d="M 353.648438 484.753906 L 315.246094 484.753906 "/>
<path fill="none" stroke-width="0.5" stroke-linecap="butt" stroke-linejoin="miter" stroke="rgb(100%, 100%, 100%)" stroke-opacity="1" stroke-miterlimit="2" d="M 315.246094 484.753906 L 288.09375 511.90625 "/>
<path fill="none" stroke-width="0.5" stroke-linecap="butt" stroke-linejoin="miter" stroke="rgb(100%, 100%, 100%)" stroke-opacity="1" stroke-miterlimit="2" d="M 288.09375 511.90625 L 288.09375 550.304688 "/>
<path fill="none" stroke-width="0.5" stroke-linecap="butt" stroke-linejoin="miter" stroke="rgb(100%, 100%, 100%)" stroke-opacity="1" stroke-miterlimit="2" d="M 288.09375 550.304688 L 315.246094 577.457031 "/>
<path fill="none" stroke-width="0.5" stroke-linecap="butt" stroke-linejoin="miter" stroke="rgb(100%, 100%, 100%)" stroke-opacity="1" stroke-miterlimit="2" d="M 315.246094 577.457031 L 353.648438 577.457031 "/>
<path fill="none" stroke-width="0.5" stroke-linecap="butt" stroke-linejoin="miter" stroke="rgb(100%, 100%, 100%)" stroke-opacity="1" stroke-miterlimit="2" d="M 353.648438 577.457031 L 380.800781 550.304688 "/>
<path fill="none" stroke-width="0.5" stroke-linecap="butt" stroke-linejoin="miter" stroke="rgb(100%, 100%, 100%)" stroke-opacity="1" stroke-miterlimit="2" d="M 380.800781 550.304688 L 380.800781 511.90625 "/>
<path fill="none" stroke-width="0.5" stroke-linecap="butt" stroke-linejoin="miter" stroke="rgb(100%, 100%, 100%)" stroke-opacity="1" stroke-miterlimit="2" d="M 380.800781 511.90625 L 353.648438 484.753906 "/>
<path fill-rule="nonzero" fill="rgb(56.470591%, 47.843137%, 83.92157%)" fill-opacity="1" d="M 511.90625 380.800781 L 511.90625 419.199219 L 550.304688 419.199219 L 550.304688 380.800781 Z M 511.90625 380.800781 "/>
<path fill="none" stroke-width="0.5" stroke-linecap="butt" stroke-linejoin="miter" stroke="rgb(100%, 100%, 100%)" stroke-opacity="1" stroke-miterlimit="2" d="M 511.90625 380.800781 L 511.90625 419.199219 "/>
<path fill="none" stroke-width="0.5" stroke-linecap="butt" stroke-linejoin="miter" stroke="rgb(100%, 100%, 100%)" stroke-opacity="1" stroke-miterlimit="2" d="M 511.90625 419.199219 L 550.304688 419.199219 "/>
<path fill="none" stroke-width="0.5" stroke-linecap="butt" stroke-linejoin="miter" stroke="rgb(100%, 100%, 100%)" stroke-opacity="1" stroke-miterlimit="2" d="M 550.304688 419.199219 L 550.304688 380.800781 "/>
<path fill="none" stroke-width="0.5" stroke-linecap="butt" stroke-linejoin="miter" stroke="rgb(100%, 100%, 100%)" stroke-opacity="1" stroke-miterlimit="2" d="M 550.304688 380.800781 L 511.90625 380.800781 "/>
<path fill-rule="nonzero" fill="rgb(56.470591%, 47.843137%, 83.92157%)" fill-opacity="1" d="M 380.800781 288.09375 L 419.199219 288.09375 L 419.199219 249.695312 L 380.800781 249.695312 Z M 380.800781 288.09375 "/>
<path fill="none" stroke-width="0.5" stroke-linecap="butt" stroke-linejoin="miter" stroke="rgb(100%, 100%, 100%)" stroke-opacity="1" stroke-miterlimit="2" d="M 380.800781 288.09375 L 419.199219 288.09375 "/>
<path fill="none" stroke-width="0.5" stroke-linecap="butt" stroke-linejoin="miter" stroke="rgb(100%, 100%, 100%)" stroke-opacity="1" stroke-miterlimit="2" d="M 419.199219 288.09375 L 419.199219 249.695312 "/>
<path fill="none" stroke-width="0.5" stroke-linecap="butt" stroke-linejoin="miter" stroke="rgb(100%, 100%, 100%)" stroke-opacity="1" stroke-miterlimit="2" d="M 419.199219 249.695312 L 380.800781 249.695312 "/>
<path fill="none" stroke-width="0.5" stroke-linecap="butt" stroke-linejoin="miter" stroke="rgb(100%, 100%, 100%)" stroke-opacity="1" stroke-miterlimit="2" d="M 380.800781 249.695312 L 380.800781 288.09375 "/>
<path fill-rule="nonzero" fill="rgb(56.470591%, 47.843137%, 83.92157%)" fill-opacity="1" d="M 288.09375 419.199219 L 288.09375 380.800781 L 249.695312 380.800781 L 249.695312 419.199219 Z M 288.09375 419.199219 "/>
<path fill="none" stroke-width="0.5" stroke-linecap="butt" stroke-linejoin="miter" stroke="rgb(100%, 100%, 100%)" stroke-opacity="1" stroke-miterlimit="2" d="M 288.09375 419.199219 L 288.09375 380.800781 "/>
<path fill="none" stroke-width="0.5" stroke-linecap="butt" stroke-linejoin="miter" stroke="rgb(100%, 100%, 100%)" stroke-opacity="1" stroke-miterlimit="2" d="M 288.09375 380.800781 L 249.695312 380.800781 "/>
<path fill="none" stroke-width="0.5" stroke-linecap="butt" stroke-linejoin="miter" stroke="rgb(100%, 100%, 100%)" stroke-opacity="1" stroke-miterlimit="2" d="M 249.695312 380.800781 L 249.695312 419.199219 "/>
<path fill="none" stroke-width="0.5" stroke-linecap="butt" stroke-linejoin="miter" stroke="rgb(100%, 100%, 100%)" stroke-opacity="1" stroke-miterlimit="2" d="M 249.695312 419.199219 L 288.09375 419.199219 "/>
<path fill-rule="nonzero" fill="rgb(56.470591%, 47.843137%, 83.92157%)" fill-opacity="1" d="M 419.199219 511.90625 L 380.800781 511.90625 L 380.800781 550.304688 L 419.199219 550.304688 Z M 419.199219 511.90625 "/>
<path fill="none" stroke-width="0.5" stroke-linecap="butt" stroke-linejoin="miter" stroke="rgb(100%, 100%, 100%)" stroke-opacity="1" stroke-miterlimit="2" d="M 419.199219 511.90625 L 380.800781 511.90625 "/>
<path fill="none" stroke-width="0.5" stroke-linecap="butt" stroke-linejoin="miter" stroke="rgb(100%, 100%, 100%)" stroke-opacity="1" stroke-miterlimit="2" d="M 380.800781 511.90625 L 380.800781 550.304688 "/>
<path fill="none" stroke-width="0.5" stroke-linecap="butt" stroke-linejoin="miter" stroke="rgb(100%, 100%, 100%)" stroke-opacity="1" stroke-miterlimit="2" d="M 380.800781 550.304688 L 419.199219 550.304688 "/>
<path fill="none" stroke-width="0.5" stroke-linecap="butt" stroke-linejoin="miter" stroke="rgb(100%, 100%, 100%)" stroke-opacity="1" stroke-miterlimit="2" d="M 419.199219 550.304688 L 419.199219 511.90625 "/>
<path fill-rule="nonzero" fill="rgb(100%, 54.901963%, 0%)" fill-opacity="1" d="M 550.304688 380.800781 L 550.304688 419.199219 L 577.457031 446.351562 L 615.859375 446.351562 L 643.011719 419.199219 L 643.011719 380.800781 L 615.859375 353.648438 L 577.457031 353.648438 Z M 550.304688 380.800781 "/>
<path fill="none" stroke-width="0.5" stroke-linecap="butt" stroke-linejoin="miter" stroke="rgb(100%, 100%, 100%)" stroke-opacity="1" stroke-miterlimit="2" d="M 550.304688 380.800781 L 550.304688 419.199219 "/>
<path fill="none" stroke-width="0.5" stroke-linecap="butt" stroke-linejoin="miter" stroke="rgb(100%, 100%, 100%)" stroke-opacity="1" stroke-miterlimit="2" d="M 550.304688 419.199219 L 577.457031 446.351562 "/>
<path fill="none" stroke-width="0.5" stroke-linecap="butt" stroke-linejoin="miter" stroke="rgb(100%, 100%, 100%)" stroke-opacity="1" stroke-miterlimit="2" d="M 577.457031 446.351562 L 615.859375 446.351562 "/>
<path fill="none" stroke-width="0.5" stroke-linecap="butt" stroke-linejoin="miter" stroke="rgb(100%, 100%, 100%)" stroke-opacity="1" stroke-miterlimit="2" d="M 615.859375 446.351562 L 643.011719 419.199219 "/>
<path fill="none" stroke-width="0.5" stroke-linecap="butt" stroke-linejoin="miter" stroke="rgb(100%, 100%, 100%)" stroke-opacity="1" stroke-miterlimit="2" d="M 643.011719 419.199219 L 643.011719 380.800781 "/>
<path fill="none" stroke-width="0.5" stroke-linecap="butt" stroke-linejoin="miter" stroke="rgb(100%, 100%, 100%)" stroke-opacity="1" stroke-miterlimit="2" d="M 643.011719 380.800781 L 615.859375 353.648438 "/>
<path fill="none" stroke-width="0.5" stroke-linecap="butt" stroke-linejoin="miter" stroke="rgb(100%, 100%, 100%)" stroke-opacity="1" stroke-miterlimit="2" d="M 615.859375 353.648438 L 577.457031 353.648438 "/>
<path fill="none" stroke-width="0.5" stroke-linecap="butt" stroke-linejoin="miter" stroke="rgb(100%, 100%, 100%)" stroke-opacity="1" stroke-miterlimit="2" d="M 577.457031 353.648438 L 550.304688 380.800781 "/>
<path fill-rule="nonzero" fill="rgb(100%, 54.901963%, 0%)" fill-opacity="1" d="M 380.800781 249.695312 L 419.199219 249.695312 L 446.351562 222.542969 L 446.351562 184.140625 L 419.199219 156.988281 L 380.800781 156.988281 L 353.648438 184.140625 L 353.648438 222.542969 Z M 380.800781 249.695312 "/>
<path fill="none" stroke-width="0.5" stroke-linecap="butt" stroke-linejoin="miter" stroke="rgb(100%, 100%, 100%)" stroke-opacity="1" stroke-miterlimit="2" d="M 380.800781 249.695312 L 419.199219 249.695312 "/>
<path fill="none" stroke-width="0.5" stroke-linecap="butt" stroke-linejoin="miter" stroke="rgb(100%, 100%, 100%)" stroke-opacity="1" stroke-miterlimit="2" d="M 419.199219 249.695312 L 446.351562 222.542969 "/>
<path fill="none" stroke-width="0.5" stroke-linecap="butt" stroke-linejoin="miter" stroke="rgb(100%, 100%, 100%)" stroke-opacity="1" stroke-miterlimit="2" d="M 446.351562 222.542969 L 446.351562 184.140625 "/>
<path fill="none" stroke-width="0.5" stroke-linecap="butt" stroke-linejoin="miter" stroke="rgb(100%, 100%, 100%)" stroke-opacity="1" stroke-miterlimit="2" d="M 446.351562 184.140625 L 419.199219 156.988281 "/>
<path fill="none" stroke-width="0.5" stroke-linecap="butt" stroke-linejoin="miter" stroke="rgb(100%, 100%, 100%)" stroke-opacity="1" stroke-miterlimit="2" d="M 419.199219 156.988281 L 380.800781 156.988281 "/>
<path fill="none" stroke-width="0.5" stroke-linecap="butt" stroke-linejoin="miter" stroke="rgb(100%, 100%, 100%)" stroke-opacity="1" stroke-miterlimit="2" d="M 380.800781 156.988281 L 353.648438 184.140625 "/>
<path fill="none" stroke-width="0.5" stroke-linecap="butt" stroke-linejoin="miter" stroke="rgb(100%, 100%, 100%)" stroke-opacity="1" stroke-miterlimit="2" d="M 353.648438 184.140625 L 353.648438 222.542969 "/>
<path fill="none" stroke-width="0.5" stroke-linecap="butt" stroke-linejoin="miter" stroke="rgb(100%, 100%, 100%)" stroke-opacity="1" stroke-miterlimit="2" d="M 353.648438 222.542969 L 380.800781 249.695312 "/>
<path fill-rule="nonzero" fill="rgb(100%, 54.901963%, 0%)" fill-opacity="1" d="M 249.695312 419.199219 L 249.695312 380.800781 L 222.542969 353.648438 L 184.140625 353.648438 L 156.988281 380.800781 L 156.988281 419.199219 L 184.140625 446.351562 L 222.542969 446.351562 Z M 249.695312 419.199219 "/>
<path fill="none" stroke-width="0.5" stroke-linecap="butt" stroke-linejoin="miter" stroke="rgb(100%, 100%, 100%)" stroke-opacity="1" stroke-miterlimit="2" d="M 249.695312 419.199219 L 249.695312 380.800781 "/>
<path fill="none" stroke-width="0.5" stroke-linecap="butt" stroke-linejoin="miter" stroke="rgb(100%, 100%, 100%)" stroke-opacity="1" stroke-miterlimit="2" d="M 249.695312 380.800781 L 222.542969 353.648438 "/>
<path fill="none" stroke-width="0.5" stroke-linecap="butt" stroke-linejoin="miter" stroke="rgb(100%, 100%, 100%)" stroke-opacity="1" stroke-miterlimit="2" d="M 222.542969 353.648438 L 184.140625 353.648438 "/>
<path fill="none" stroke-width="0.5" stroke-linecap="butt" stroke-linejoin="miter" stroke="rgb(100%, 100%, 100%)" stroke-opacity="1" stroke-miterlimit="2" d="M 184.140625 353.648438 L 156.988281 380.800781 "/>
<path fill="none" stroke-width="0.5" stroke-linecap="butt" stroke-linejoin="miter" stroke="rgb(100%, 100%, 100%)" stroke-opacity="1" stroke-miterlimit="2" d="M 156.988281 380.800781 L 156.988281 419.199219 "/>
<path fill="none" stroke-width="0.5" stroke-linecap="butt" stroke-linejoin="miter" stroke="rgb(100%, 100%, 100%)" stroke-opacity="1" stroke-miterlimit="2" d="M 156.988281 419.199219 L 184.140625 446.351562 "/>
<path fill="none" stroke-width="0.5" stroke-linecap="butt" stroke-linejoin="miter" stroke="rgb(100%, 100%, 100%)" stroke-opacity="1" stroke-miterlimit="2" d="M 184.140625 446.351562 L 222.542969 446.351562 "/>
<path fill="none" stroke-width="0.5" stroke-linecap="butt" stroke-linejoin="miter" stroke="rgb(100%, 100%, 100%)" stroke-opacity="1" stroke-miterlimit="2" d="M 222.542969 446.351562 L 249.695312 419.199219 "/>
<path fill-rule="nonzero" fill="rgb(100%, 54.901963%, 0%)" fill-opacity="1" d="M 419.199219 550.304688 L 380.800781 550.304688 L 353.648438 577.457031 L 353.648438 615.859375 L 380.800781 643.011719 L 419.199219 643.011719 L 446.351562 615.859375 L 446.351562 577.457031 Z M 419.199219 550.304688 "/>
<path fill="none" stroke-width="0.5" stroke-linecap="butt" stroke-linejoin="miter" stroke="rgb(100%, 100%, 100%)" stroke-opacity="1" stroke-miterlimit="2" d="M 419.199219 550.304688 L 380.800781 550.304688 "/>
<path fill="none" stroke-width="0.5" stroke-linecap="butt" stroke-linejoin="miter" stroke="rgb(100%, 100%, 100%)" stroke-opacity="1" stroke-miterlimit="2" d="M 380.800781 550.304688 L 353.648438 577.457031 "/>
<path fill="none" stroke-width="0.5" stroke-linecap="butt" stroke-linejoin="miter" stroke="rgb(100%, 100%, 100%)" stroke-opacity="1" stroke-miterlimit="2" d="M 353.648438 577.457031 L 353.648438 615.859375 "/>
<path fill="none" stroke-width="0.5" stroke-linecap="butt" stroke-linejoin="miter" stroke="rgb(100%, 100%, 100%)" stroke-opacity="1" stroke-miterlimit="2" d="M 353.648438 615.859375 L 380.800781 643.011719 "/>
<path fill="none" stroke-width="0.5" stroke-linecap="butt" stroke-linejoin="miter" stroke="rgb(100%, 100%, 100%)" stroke-opacity="1" stroke-miterlimit="2" d="M 380.800781 643.011719 L 419.199219 643.011719 "/>
<path fill="none" stroke-width="0.5" stroke-linecap="butt" stroke-linejoin="miter" stroke="rgb(100%, 100%, 100%)" stroke-opacity="1" stroke-miterlimit="2" d="M 419.199219 643.011719 L 446.351562 615.859375 "/>
<path fill="none" stroke-width="0.5" stroke-linecap="butt" stroke-linejoin="miter" stroke="rgb(100%, 100%, 100%)" stroke-opacity="1" stroke-miterlimit="2" d="M 446.351562 615.859375 L 446.351562 577.457031 "/>
<path fill="none" stroke-width="0.5" stroke-linecap="butt" stroke-linejoin="miter" stroke="rgb(100%, 100%, 100%)" stroke-opacity="1" stroke-miterlimit="2" d="M 446.351562 577.457031 L 419.199219 550.304688 "/>
</svg>
