<?xml version="1.0" encoding="UTF-8"?>
<svg xmlns="http://www.w3.org/2000/svg" xmlns:xlink="http://www.w3.org/1999/xlink" width="800" height="800" viewBox="0 0 800 800">
<rect x="-80" y="-80" width="960" height="960" fill="rgb(100%, 100%, 100%)" fill-opacity="1"/>
<path fill-rule="nonzero" fill="rgb(100%, 100%, 100%)" fill-opacity="1" d="M 16 784 L 784 784 L 784 16 L 16 16 Z M 16 784 "/>
<path fill-rule="nonzero" fill="rgb(85.490197%, 74.901962%, 100%)" fill-opacity="1" d="M 531.105469 400 L 531.105469 334.445312 L 465.554688 400 Z M 531.105469 400 "/>
<path fill="none" stroke-width="0.5" stroke-linecap="butt" stroke-linejoin="miter" stroke="rgb(100%, 100%, 100%)" stroke-opacity="1" stroke-miterlimit="2" d="M 531.105469 400 L 531.105469 334.445312 "/>
<path fill="none" stroke-width="0.5" stroke-linecap="butt" stroke-linejoin="miter" stroke="rgb(100%, 100%, 100%)" stroke-opacity="1" stroke-miterlimit="2" d="M 531.105469 334.445312 L 465.554688 400 "/>
<path fill="none" stroke-width="0.5" stroke-linecap="butt" stroke-linejoin="miter" stroke="rgb(100%, 100%, 100%)" stroke-opacity="1" stroke-miterlimit="2" d="M 465.554688 400 L 531.105469 400 "/>
<path fill-rule="nonzero" fill="rgb(85.490197%, 74.901962%, 100%)" fill-opacity="1" d="M 334.445312 400 L 268.894531 400 L 268.894531 465.554688 Z M 334.445312 400 "/>
<path fill="none" stroke-width="0.5" stroke-linecap="butt" stroke-linejoin="miter" stroke="rgb(100%, 100%, 100%)" stroke-opacity="1" stroke-miterlimit="2" d="M 334.445312 400 L 268.894531 400 "/>
<path fill="none" stroke-width="0.5" stroke-linecap="butt" stroke-linejoin="miter" stroke="rgb(100%, 100%, 100%)" stroke-opacity="1" stroke-miterlimit="2" d="M 268.894531 400 L 268.894531 465.554688 "/>
<path fill="none" stroke-width="0.5" stroke-linecap="butt" stroke-linejoin="miter" stroke="rgb(100%, 100%, 100%)" stroke-opacity="1" stroke-miterlimit="2" d="M 268.894531 465.554688 L 334.445312 400 "/>
<path fill-rule="nonzero" fill="rgb(85.490197%, 74.901962%, 100%)" fill-opacity="1" d="M 531.105469 465.554688 L 531.105469 400 L 465.554688 400 Z M 531.105469 465.554688 "/>
<path fill="none" stroke-width="0.5" stroke-linecap="butt" stroke-linejoin="miter" stroke="rgb(100%, 100%, 100%)" stroke-opacity="1" stroke-miterlimit="2" d="M 531.105469 465.554688 L 531.105469 400 "/>
<path fill="none" stroke-width="0.5" stroke-linecap="butt" stroke-linejoin="miter" stroke="rgb(100%, 100%, 100%)" stroke-opacity="1" stroke-miterlimit="2" d="M 531.105469 400 L 465.554688 400 "/>
<path fill="none" stroke-width="0.5" stroke-linecap="butt" stroke-linejoin="miter" stroke="rgb(100%, 100%, 100%)" stroke-opacity="1" stroke-miterlimit="2" d="M 465.554688 400 L 531.105469 465.554688 "/>
<path fill-rule="nonzero" fill="rgb(85.490197%, 74.901962%, 100%)" fill-opacity="1" d="M 465.554688 531.105469 L 465.554688 465.554688 L 400 465.554688 Z M 465.554688 531.105469 "/>
<path fill="none" stroke-width="0.5" stroke-linecap="butt" stroke-linejoin="miter" stroke="rgb(100%, 100%, 100%)" stroke-opacity="1" stroke-miterlimit="2" d="M 465.554688 531.105469 L 465.554688 465.554688 "/>
<path fill="none" stroke-width="0.5" stroke-linecap="butt" stroke-linejoin="miter" stroke="rgb(100%, 100%, 100%)" stroke-opacity="1" stroke-miterlimit="2" d="M 465.554688 465.554688 L 400 465.554688 "/>
<path fill="none" stroke-width="0.5" stroke-linecap="butt" stroke-linejoin="miter" stroke="rgb(100%, 100%, 100%)" stroke-opacity="1" stroke-miterlimit="2" d="M 400 465.554688 L 465.554688 531.105469 "/>
<path fill-rule="nonzero" fill="rgb(85.490197%, 74.901962%, 100%)" fill-opacity="1" d="M 400 400 L 400 334.445312 L 334.445312 400 Z M 400 400 "/>
<path fill="none" stroke-width="0.5" stroke-linecap="butt" stroke-linejoin="miter" stroke="rgb(100%, 100%, 100%)" stroke-opacity="1" stroke-miterlimit="2" d="M 400 400 L 400 334.445312 "/>
<path fill="none" stroke-width="0.5" stroke-linecap="butt" stroke-linejoin="miter" stroke="rgb(100%, 100%, 100%)" stroke-opacity="1" stroke-miterlimit="2" d="M 400 334.445312 L 334.445312 400 "/>
<path fill="none" stroke-width="0.5" stroke-linecap="butt" stroke-linejoin="miter" stroke="rgb(100%, 100%, 100%)" stroke-opacity="1" stroke-miterlimit="2" d="M 334.445312 400 L 400 400 "/>
<path fill-rule="nonzero" fill="rgb(85.490197%, 74.901962%, 100%)" fill-opacity="1" d="M 531.105469 334.445312 L 465.554688 268.894531 L 465.554688 334.445312 Z M 531.105469 334.445312 "/>
<path fill="none" stroke-width="0.5" stroke-linecap="butt" stroke-linejoin="miter" stroke="rgb(100%, 100%, 100%)" stroke-opacity="1" stroke-miterlimit="2" d="M 531.105469 334.445312 L 465.554688 268.894531 "/>
<path fill="none" stroke-width="0.5" stroke-linecap="butt" stroke-linejoin="miter" stroke="rgb(100%, 100%, 100%)" stroke-opacity="1" stroke-miterlimit="2" d="M 465.554688 268.894531 L 465.554688 334.445312 "/>
<path fill="none" stroke-width="0.5" stroke-linecap="butt" stroke-linejoin="miter" stroke="rgb(100%, 100%, 100%)" stroke-opacity="1" stroke-miterlimit="2" d="M 465.554688 334.445312 L 531.105469 334.445312 "/>
<path fill-rule="nonzero" fill="rgb(85.490197%, 74.901962%, 100%)" fill-opacity="1" d="M 400 596.660156 L 400 531.105469 L 334.445312 531.105469 Z M 400 596.660156 "/>
<path fill="none" stroke-width="0.5" stroke-linecap="butt" stroke-linejoin="miter" stroke="rgb(100%, 100%, 100%)" stroke-opacity="1" stroke-miterlimit="2" d="M 400 596.660156 L 400 531.105469 "/>
<path fill="none" stroke-width="0.5" stroke-linecap="butt" stroke-linejoin="miter" stroke="rgb(100%, 100%, 100%)" stroke-opacity="1" stroke-miterlimit="2" d="M 400 531.105469 L 334.445312 531.105469 "/>
<path fill="none" stroke-width="0.5" stroke-linecap="butt" stroke-linejoin="miter" stroke="rgb(100%, 100%, 100%)" stroke-opacity="1" stroke-miterlimit="2" d="M 334.445312 531.105469 L 400 596.660156 "/>
<path fill-rule="nonzero" fill="rgb(85.490197%, 74.901962%, 100%)" fill-opacity="1" d="M 465.554688 400 L 400 400 L 400 465.554688 Z M 465.554688 400 "/>
<path fill="none" stroke-width="0.5" stroke-linecap="butt" stroke-linejoin="miter" stroke="rgb(100%, 100%, 100%)" stroke-opacity="1" stroke-miterlimit="2" d="M 465.554688 400 L 400 400 "/>
<path fill="none" stroke-width="0.5" stroke-linecap="butt" stroke-linejoin="miter" stroke="rgb(100%, 100%, 100%)" stroke-opacity="1" stroke-miterlimit="2" d="M 400 400 L 400 465.554688 "/>
<path fill="none" stroke-width="0.5" stroke-linecap="butt" stroke-linejoin="miter" stroke="rgb(100%, 100%, 100%)" stroke-opacity="1" stroke-miterlimit="2" d="M 400 465.554688 L 465.554688 400 "/>
<path fill-rule="nonzero" fill="rgb(85.490197%, 74.901962%, 100%)" fill-opacity="1" d="M 465.554688 334.445312 L 465.554688 268.894531 L 400 334.445312 Z M 465.554688 334.445312 "/>
<path fill="none" stroke-width="0.5" stroke-linecap="butt" stroke-linejoin="miter" stroke="rgb(100%, 100%, 100%)" stroke-opacity="1" stroke-miterlimit="2" d="M 465.554688 334.445312 L 465.554688 268.894531 "/>
<path fill="none" stroke-width="0.5" stroke-linecap="butt" stroke-linejoin="miter" stroke="rgb(100%, 100%, 100%)" stroke-opacity="1" stroke-miterlimit="2" d="M 465.554688 268.894531 L 400 334.445312 "/>
<path fill="none" stroke-width="0.5" stroke-linecap="butt" stroke-linejoin="miter" stroke="rgb(100%, 100%, 100%)" stroke-opacity="1" stroke-miterlimit="2" d="M 400 334.445312 L 465.554688 334.445312 "/>
<path fill-rule="nonzero" fill="rgb(85.490197%, 74.901962%, 100%)" fill-opacity="1" d="M 596.660156 400 L 531.105469 400 L 531.105469 465.554688 Z M 596.660156 400 "/>
<path fill="none" stroke-width="0.5" stroke-linecap="butt" stroke-linejoin="miter" stroke="rgb(100%, 100%, 100%)" stroke-opacity="1" stroke-miterlimit="2" d="M 596.660156 400 L 531.105469 400 "/>
<path fill="none" stroke-width="0.5" stroke-linecap="butt" stroke-linejoin="miter" stroke="rgb(100%, 100%, 100%)" stroke-opacity="1" stroke-miterlimit="2" d="M 531.105469 400 L 531.105469 465.554688 "/>
<path fill="none" stroke-width="0.5" stroke-linecap="butt" stroke-linejoin="miter" stroke="rgb(100%, 100%, 100%)" stroke-opacity="1" stroke-miterlimit="2" d="M 531.105469 465.554688 L 596.660156 400 "/>
<path fill-rule="nonzero" fill="rgb(85.490197%, 74.901962%, 100%)" fill-opacity="1" d="M 400 334.445312 L 334.445312 268.894531 L 334.445312 334.445312 Z M 400 334.445312 "/>
<path fill="none" stroke-width="0.5" stroke-linecap="butt" stroke-linejoin="miter" stroke="rgb(100%, 100%, 100%)" stroke-opacity="1" stroke-miterlimit="2" d="M 400 334.445312 L 334.445312 268.894531 "/>
<path fill="none" stroke-width="0.5" stroke-linecap="butt" stroke-linejoin="miter" stroke="rgb(100%, 100%, 100%)" stroke-opacity="1" stroke-miterlimit="2" d="M 334.445312 268.894531 L 334.445312 334.445312 "/>
<path fill="none" stroke-width="0.5" stroke-linecap="butt" stroke-linejoin="miter" stroke="rgb(100%, 100%, 100%)" stroke-opacity="1" stroke-miterlimit="2" d="M 334.445312 334.445312 L 400 334.445312 "/>
<path fill-rule="nonzero" fill="rgb(85.490197%, 74.901962%, 100%)" fill-opacity="1" d="M 400 334.445312 L 400 268.894531 L 334.445312 268.894531 Z M 400 334.445312 "/>
<path fill="none" stroke-width="0.5" stroke-linecap="butt" stroke-linejoin="miter" stroke="rgb(100%, 100%, 100%)" stroke-opacity="1" stroke-miterlimit="2" d="M 400 334.445312 L 400 268.894531 "/>
<path fill="none" stroke-width="0.5" stroke-linecap="butt" stroke-linejoin="miter" stroke="rgb(100%, 100%, 100%)" stroke-opacity="1" stroke-miterlimit="2" d="M 400 268.894531 L 334.445312 268.894531 "/>
<path fill="none" stroke-width="0.5" stroke-linecap="butt" stroke-linejoin="miter" stroke="rgb(100%, 100%, 100%)" stroke-opacity="1" stroke-miterlimit="2" d="M 334.445312 268.894531 L 400 334.445312 "/>
<path fill-rule="nonzero" fill="rgb(85.490197%, 74.901962%, 100%)" fill-opacity="1" d="M 465.554688 268.894531 L 400 268.894531 L 400 334.445312 Z M 465.554688 268.894531 "/>
<path fill="none" stroke-width="0.5" stroke-linecap="butt" stroke-linejoin="miter" stroke="rgb(100%, 100%, 100%)" stroke-opacity="1" stroke-miterlimit="2" d="M 465.554688 268.894531 L 400 268.894531 "/>
<path fill="none" stroke-width="0.5" stroke-linecap="butt" stroke-linejoin="miter" stroke="rgb(100%, 100%, 100%)" stroke-opacity="1" stroke-miterlimit="2" d="M 400 268.894531 L 400 334.445312 "/>
<path fill="none" stroke-width="0.5" stroke-linecap="butt" stroke-linejoin="miter" stroke="rgb(100%, 100%, 100%)" stroke-opacity="1" stroke-miterlimit="2" d="M 400 334.445312 L 465.554688 268.894531 "/>
<path fill-rule="nonzero" fill="rgb(85.490197%, 74.901962%, 100%)" fill-opacity="1" d="M 400 465.554688 L 334.445312 465.554688 L 334.445312 531.105469 Z M 400 465.554688 "/>
<path fill="none" stroke-width="0.5" stroke-linecap="butt" stroke-linejoin="miter" stroke="rgb(100%, 100%, 100%)" stroke-opacity="1" stroke-miterlimit="2" d="M 400 465.554688 L 334.445312 465.554688 "/>
<path fill="none" stroke-width="0.5" stroke-linecap="butt" stroke-linejoin="miter" stroke="rgb(100%, 100%, 100%)" stroke-opacity="1" stroke-miterlimit="2" d="M 334.445312 465.554688 L 334.445312 531.105469 "/>
<path fill="none" stroke-width="0.5" stroke-linecap="butt" stroke-linejoin="miter" stroke="rgb(100%, 100%, 100%)" stroke-opacity="1" stroke-miterlimit="2" d="M 334.445312 531.105469 L 400 465.554688 "/>
<path fill-rule="nonzero" fill="rgb(85.490197%, 74.901962%, 100%)" fill-opacity="1" d="M 268.894531 465.554688 L 268.894531 400 L 203.339844 400 Z M 268.894531 465.554688 "/>
<path fill="none" stroke-width="0.5" stroke-linecap="butt" stroke-linejoin="miter" stroke="rgb(100%, 100%, 100%)" stroke-opacity="1" stroke-miterlimit="2" d="M 268.894531 465.554688 L 268.894531 400 "/>
<path fill="none" stroke-width="0.5" stroke-linecap="butt" stroke-linejoin="miter" stroke="rgb(100%, 100%, 100%)" stroke-opacity="1" stroke-miterlimit="2" d="M 268.894531 400 L 203.339844 400 "/>
<path fill="none" stroke-width="0.5" stroke-linecap="butt" stroke-linejoin="miter" stroke="rgb(100%, 100%, 100%)" stroke-opacity="1" stroke-miterlimit="2" d="M 203.339844 400 L 268.894531 465.554688 "/>
<path fill-rule="nonzero" fill="rgb(85.490197%, 74.901962%, 100%)" fill-opacity="1" d="M 400 465.554688 L 334.445312 400 L 334.445312 465.554688 Z M 400 465.554688 "/>
<path fill="none" stroke-width="0.5" stroke-linecap="butt" stroke-linejoin="miter" stroke="rgb(100%, 100%, 100%)" stroke-opacity="1" stroke-miterlimit="2" d="M 400 465.554688 L 334.445312 400 "/>
<path fill="none" stroke-width="0.5" stroke-linecap="butt" stroke-linejoin="miter" stroke="rgb(100%, 100%, 100%)" stroke-opacity="1" stroke-miterlimit="2" d="M 334.445312 400 L 334.445312 465.554688 "/>
<path fill="none" stroke-width="0.5" stroke-linecap="butt" stroke-linejoin="miter" stroke="rgb(100%, 100%, 100%)" stroke-opacity="1" stroke-miterlimit="2" d="M 334.445312 465.554688 L 400 465.554688 "/>
<path fill-rule="nonzero" fill="rgb(85.490197%, 74.901962%, 100%)" fill-opacity="1" d="M 400 334.445312 L 334.445312 334.445312 L 334.445312 400 Z M 400 334.445312 "/>
<path fill="none" stroke-width="0.5" stroke-linecap="butt" stroke-linejoin="miter" stroke="rgb(100%, 100%, 100%)" stroke-opacity="1" stroke-miterlimit="2" d="M 400 334.445312 L 334.445312 334.445312 "/>
<path fill="none" stroke-width="0.5" stroke-linecap="butt" stroke-linejoin="miter" stroke="rgb(100%, 100%, 100%)" stroke-opacity="1" stroke-miterlimit="2" d="M 334.445312 334.445312 L 334.445312 400 "/>
<path fill="none" stroke-width="0.5" stroke-linecap="butt" stroke-linejoin="miter" stroke="rgb(100%, 100%, 100%)" stroke-opacity="1" stroke-miterlimit="2" d="M 334.445312 400 L 400 334.445312 "/>
<path fill-rule="nonzero" fill="rgb(85.490197%, 74.901962%, 100%)" fill-opacity="1" d="M 334.445312 400 L 268.894531 334.445312 L 268.894531 400 Z M 334.445312 400 "/>
<path fill="none" stroke-width="0.5" stroke-linecap="butt" stroke-linejoin="miter" stroke="rgb(100%, 100%, 100%)" stroke-opacity="1" stroke-miterlimit="2" d="M 334.445312 400 L 268.894531 334.445312 "/>
<path fill="none" stroke-width="0.5" stroke-linecap="butt" stroke-linejoin="miter" stroke="rgb(100%, 100%, 100%)" stroke-opacity="1" stroke-miterlimit="2" d="M 268.894531 334.445312 L 268.894531 400 "/>
<path fill="none" stroke-width="0.5" stroke-linecap="butt" stroke-linejoin="miter" stroke="rgb(100%, 100%, 100%)" stroke-opacity="1" stroke-miterlimit="2" d="M 268.894531 400 L 334.445312 400 "/>
<path fill-rule="nonzero" fill="rgb(85.490197%, 74.901962%, 100%)" fill-opacity="1" d="M 334.445312 531.105469 L 334.445312 465.554688 L 268.894531 465.554688 Z M 334.445312 531.105469 "/>
<path fill="none" stroke-width="0.5" stroke-linecap="butt" stroke-linejoin="miter" stroke="rgb(100%, 100%, 100%)" stroke-opacity="1" stroke-miterlimit="2" d="M 334.445312 531.105469 L 334.445312 465.554688 "/>
<path fill="none" stroke-width="0.5" stroke-linecap="butt" stroke-linejoin="miter" stroke="rgb(100%, 100%, 100%)" stroke-opacity="1" stroke-miterlimit="2" d="M 334.445312 465.554688 L 268.894531 465.554688 "/>
<path fill="none" stroke-width="0.5" stroke-linecap="butt" stroke-linejoin="miter" stroke="rgb(100%, 100%, 100%)" stroke-opacity="1" stroke-miterlimit="2" d="M 268.894531 465.554688 L 334.445312 531.105469 "/>
<path fill-rule="nonzero" fill="rgb(85.490197%, 74.901962%, 100%)" fill-opacity="1" d="M 465.554688 531.105469 L 400 465.554688 L 400 531.105469 Z M 465.554688 531.105469 "/>
<path fill="none" stroke-width="0.5" stroke-linecap="butt" stroke-linejoin="miter" stroke="rgb(100%, 100%, 100%)" stroke-opacity="1" stroke-miterlimit="2" d="M 465.554688 531.105469 L 400 465.554688 "/>
<path fill="none" stroke-width="0.5" stroke-linecap="butt" stroke-linejoin="miter" stroke="rgb(100%, 100%, 100%)" stroke-opacity="1" stroke-miterlimit="2" d="M 400 465.554688 L 400 531.105469 "/>
<path fill="none" stroke-width="0.5" stroke-linecap="butt" stroke-linejoin="miter" stroke="rgb(100%, 100%, 100%)" stroke-opacity="1" stroke-miterlimit="2" d="M 400 531.105469 L 465.554688 531.105469 "/>
<path fill-rule="nonzero" fill="rgb(85.490197%, 74.901962%, 100%)" fill-opacity="1" d="M 334.445312 400 L 334.445312 334.445312 L 268.894531 334.445312 Z M 334.445312 400 "/>
<path fill="none" stroke-width="0.5" stroke-linecap="butt" stroke-linejoin="miter" stroke="rgb(100%, 100%, 100%)" stroke-opacity="1" stroke-miterlimit="2" d="M 334.445312 400 L 334.445312 334.445312 "/>
<path fill="none" stroke-width="0.5" stroke-linecap="butt" stroke-linejoin="miter" stroke="rgb(100%, 100%, 100%)" stroke-opacity="1" stroke-miterlimit="2" d="M 334.445312 334.445312 L 268.894531 334.445312 "/>
<path fill="none" stroke-width="0.5" stroke-linecap="butt" stroke-linejoin="miter" stroke="rgb(100%, 100%, 100%)" stroke-opacity="1" stroke-miterlimit="2" d="M 268.894531 334.445312 L 334.445312 400 "/>
<path fill-rule="nonzero" fill="rgb(85.490197%, 74.901962%, 100%)" fill-opacity="1" d="M 531.105469 400 L 596.660156 400 L 531.105469 334.445312 Z M 531.105469 400 "/>
<path fill="none" stroke-width="0.5" stroke-linecap="butt" stroke-linejoin="miter" stroke="rgb(100%, 100%, 100%)" stroke-opacity="1" stroke-miterlimit="2" d="M 531.105469 400 L 596.660156 400 "/>
<path fill="none" stroke-width="0.5" stroke-linecap="butt" stroke-linejoin="miter" stroke="rgb(100%, 100%, 100%)" stroke-opacity="1" stroke-miterlimit="2" d="M 596.660156 400 L 531.105469 334.445312 "/>
<path fill="none" stroke-width="0.5" stroke-linecap="butt" stroke-linejoin="miter" stroke="rgb(100%, 100%, 100%)" stroke-opacity="1" stroke-miterlimit="2" d="M 531.105469 334.445312 L 531.105469 400 "/>
<path fill-rule="nonzero" fill="rgb(85.490197%, 74.901962%, 100%)" fill-opacity="1" d="M 465.554688 400 L 400 334.445312 L 400 400 Z M 465.554688 400 "/>
<path fill="none" stroke-width="0.5" stroke-linecap="butt" stroke-linejoin="miter" stroke="rgb(100%, 100%, 100%)" stroke-opacity="1" stroke-miterlimit="2" d="M 465.554688 400 L 400 334.445312 "/>
<path fill="none" stroke-width="0.5" stroke-linecap="butt" stroke-linejoin="miter" stroke="rgb(100%, 100%, 100%)" stroke-opacity="1" stroke-miterlimit="2" d="M 400 334.445312 L 400 400 "/>
<path fill="none" stroke-width="0.5" stroke-linecap="butt" stroke-linejoin="miter" stroke="rgb(100%, 100%, 100%)" stroke-opacity="1" stroke-miterlimit="2" d="M 400 400 L 465.554688 400 "/>
<path fill-rule="nonzero" fill="rgb(85.490197%, 74.901962%, 100%)" fill-opacity="1" d="M 334.445312 334.445312 L 334.445312 268.894531 L 268.894531 334.445312 Z M 334.445312 334.445312 "/>
<path fill="none" stroke-width="0.5" stroke-linecap="butt" stroke-linejoin="miter" stroke="rgb(100%, 100%, 100%)" stroke-opacity="1" stroke-miterlimit="2" d="M 334.445312 334.445312 L 334.445312 268.894531 "/>
<path fill="none" stroke-width="0.5" stroke-linecap="butt" stroke-linejoin="miter" stroke="rgb(100%, 100%, 100%)" stroke-opacity="1" stroke-miterlimit="2" d="M 334.445312 268.894531 L 268.894531 334.445312 "/>
<path fill="none" stroke-width="0.5" stroke-linecap="butt" stroke-linejoin="miter" stroke="rgb(100%, 100%, 100%)" stroke-opacity="1" stroke-miterlimit="2" d="M 268.894531 334.445312 L 334.445312 334.445312 "/>
<path fill-rule="nonzero" fill="rgb(85.490197%, 74.901962%, 100%)" fill-opacity="1" d="M 334.445312 465.554688 L 334.445312 400 L 268.894531 465.554688 Z M 334.445312 465.554688 "/>
<path fill="none" stroke-width="0.5" stroke-linecap="butt" stroke-linejoin="miter" stroke="rgb(100%, 100%, 100%)" stroke-opacity="1" stroke-miterlimit="2" d="M 334.445312 465.554688 L 334.445312 400 "/>
<path fill="none" stroke-width="0.5" stroke-linecap="butt" stroke-linejoin="miter" stroke="rgb(100%, 100%, 100%)" stroke-opacity="1" stroke-miterlimit="2" d="M 334.445312 400 L 268.894531 465.554688 "/>
<path fill="none" stroke-width="0.5" stroke-linecap="butt" stroke-linejoin="miter" stroke="rgb(100%, 100%, 100%)" stroke-opacity="1" stroke-miterlimit="2" d="M 268.894531 465.554688 L 334.445312 465.554688 "/>
<path fill-rule="nonzero" fill="rgb(85.490197%, 74.901962%, 100%)" fill-opacity="1" d="M 531.105469 465.554688 L 465.554688 465.554688 L 465.554688 531.105469 Z M 531.105469 465.554688 "/>
<path fill="none" stroke-width="0.5" stroke-linecap="butt" stroke-linejoin="miter" stroke="rgb(100%, 100%, 100%)" stroke-opacity="1" stroke-miterlimit="2" d="M 531.105469 465.554688 L 465.554688 465.554688 "/>
<path fill="none" stroke-width="0.5" stroke-linecap="butt" stroke-linejoin="miter" stroke="rgb(100%, 100%, 100%)" stroke-opacity="1" stroke-miterlimit="2" d="M 465.554688 465.554688 L 465.554688 531.105469 "/>
<path fill="none" stroke-width="0.5" stroke-linecap="butt" stroke-linejoin="miter" stroke="rgb(100%, 100%, 100%)" stroke-opacity="1" stroke-miterlimit="2" d="M 465.554688 531.105469 L 531.105469 465.554688 "/>
<path fill-rule="nonzero" fill="rgb(85.490197%, 74.901962%, 100%)" fill-opacity="1" d="M 268.894531 400 L 268.894531 334.445312 L 203.339844 400 Z M 268.894531 400 "/>
<path fill="none" stroke-width="0.5" stroke-linecap="butt" stroke-linejoin="miter" stroke="rgb(100%, 100%, 100%)" stroke-opacity="1" stroke-miterlimit="2" d="M 268.894531 400 L 268.894531 334.445312 "/>
<path fill="none" stroke-width="0.5" stroke-linecap="butt" stroke-linejoin="miter" stroke="rgb(100%, 100%, 100%)" stroke-opacity="1" stroke-miterlimit="2" d="M 268.894531 334.445312 L 203.339844 400 "/>
<path fill="none" stroke-width="0.5" stroke-linecap="butt" stroke-linejoin="miter" stroke="rgb(100%, 100%, 100%)" stroke-opacity="1" stroke-miterlimit="2" d="M 203.339844 400 L 268.894531 400 "/>
<path fill-rule="nonzero" fill="rgb(85.490197%, 74.901962%, 100%)" fill-opacity="1" d="M 531.105469 465.554688 L 465.554688 400 L 465.554688 465.554688 Z M 531.105469 465.554688 "/>
<path fill="none" stroke-width="0.5" stroke-linecap="butt" stroke-linejoin="miter" stroke="rgb(100%, 100%, 100%)" stroke-opacity="1" stroke-miterlimit="2" d="M 531.105469 465.554688 L 465.554688 400 "/>
<path fill="none" stroke-width="0.5" stroke-linecap="butt" stroke-linejoin="miter" stroke="rgb(100%, 100%, 100%)" stroke-opacity="1" stroke-miterlimit="2" d="M 465.554688 400 L 465.554688 465.554688 "/>
<path fill="none" stroke-width="0.5" stroke-linecap="butt" stroke-linejoin="miter" stroke="rgb(100%, 100%, 100%)" stroke-opacity="1" stroke-miterlimit="2" d="M 465.554688 465.554688 L 531.105469 465.554688 "/>
<path fill-rule="nonzero" fill="rgb(85.490197%, 74.901962%, 100%)" fill-opacity="1" d="M 531.105469 334.445312 L 465.554688 334.445312 L 465.554688 400 Z M 531.105469 334.445312 "/>
<path fill="none" stroke-width="0.5" stroke-linecap="butt" stroke-linejoin="miter" stroke="rgb(100%, 100%, 100%)" stroke-opacity="1" stroke-miterlimit="2" d="M 531.105469 334.445312 L 465.554688 334.445312 "/>
<path fill="none" stroke-width="0.5" stroke-linecap="butt" stroke-linejoin="miter" stroke="rgb(100%, 100%, 100%)" stroke-opacity="1" stroke-miterlimit="2" d="M 465.554688 334.445312 L 465.554688 400 "/>
<path fill="none" stroke-width="0.5" stroke-linecap="butt" stroke-linejoin="miter" stroke="rgb(100%, 100%, 100%)" stroke-opacity="1" stroke-miterlimit="2" d="M 465.554688 400 L 531.105469 334.445312 "/>
<path fill-rule="nonzero" fill="rgb(85.490197%, 74.901962%, 100%)" fill-opacity="1" d="M 465.554688 465.554688 L 465.554688 400 L 400 465.554688 Z M 465.554688 465.554688 "/>
<path fill="none" stroke-width="0.5" stroke-linecap="butt" stroke-linejoin="miter" stroke="rgb(100%, 100%, 100%)" stroke-opacity="1" stroke-miterlimit="2" d="M 465.554688 465.554688 L 465.554688 400 "/>
<path fill="none" stroke-width="0.5" stroke-linecap="butt" stroke-linejoin="miter" stroke="rgb(100%, 100%, 100%)" stroke-opacity="1" stroke-miterlimit="2" d="M 465.554688 400 L 400 465.554688 "/>
<path fill="none" stroke-width="0.5" stroke-linecap="butt" stroke-linejoin="miter" stroke="rgb(100%, 100%, 100%)" stroke-opacity="1" stroke-miterlimit="2" d="M 400 465.554688 L 465.554688 465.554688 "/>
<path fill-rule="nonzero" fill="rgb(85.490197%, 74.901962%, 100%)" fill-opacity="1" d="M 465.554688 531.105469 L 400 531.105469 L 400 596.660156 Z M 465.554688 531.105469 "/>
<path fill="none" stroke-width="0.5" stroke-linecap="butt" stroke-linejoin="miter" stroke="rgb(100%, 100%, 100%)" stroke-opacity="1" stroke-miterlimit="2" d="M 465.554688 531.105469 L 400 531.105469 "/>
<path fill="none" stroke-width="0.5" stroke-linecap="butt" stroke-linejoin="miter" stroke="rgb(100%, 100%, 100%)" stroke-opacity="1" stroke-miterlimit="2" d="M 400 531.105469 L 400 596.660156 "/>
<path fill="none" stroke-width="0.5" stroke-linecap="butt" stroke-linejoin="miter" stroke="rgb(100%, 100%, 100%)" stroke-opacity="1" stroke-miterlimit="2" d="M 400 596.660156 L 465.554688 531.105469 "/>
<path fill-rule="nonzero" fill="rgb(85.490197%, 74.901962%, 100%)" fill-opacity="1" d="M 465.554688 268.894531 L 400 203.339844 L 400 268.894531 Z M 465.554688 268.894531 "/>
<path fill="none" stroke-width="0.5" stroke-linecap="butt" stroke-linejoin="miter" stroke="rgb(100%, 100%, 100%)" stroke-opacity="1" stroke-miterlimit="2" d="M 465.554688 268.894531 L 400 203.339844 "/>
<path fill="none" stroke-width="0.5" stroke-linecap="butt" stroke-linejoin="miter" stroke="rgb(100%, 100%, 100%)" stroke-opacity="1" stroke-miterlimit="2" d="M 400 203.339844 L 400 268.894531 "/>
<path fill="none" stroke-width="0.5" stroke-linecap="butt" stroke-linejoin="miter" stroke="rgb(100%, 100%, 100%)" stroke-opacity="1" stroke-miterlimit="2" d="M 400 268.894531 L 465.554688 268.894531 "/>
<path fill-rule="nonzero" fill="rgb(85.490197%, 74.901962%, 100%)" fill-opacity="1" d="M 400 531.105469 L 400 465.554688 L 334.445312 531.105469 Z M 400 531.105469 "/>
<path fill="none" stroke-width="0.5" stroke-linecap="butt" stroke-linejoin="miter" stroke="rgb(100%, 100%, 100%)" stroke-opacity="1" stroke-miterlimit="2" d="M 400 531.105469 L 400 465.554688 "/>
<path fill="none" stroke-width="0.5" stroke-linecap="butt" stroke-linejoin="miter" stroke="rgb(100%, 100%, 100%)" stroke-opacity="1" stroke-miterlimit="2" d="M 400 465.554688 L 334.445312 531.105469 "/>
<path fill="none" stroke-width="0.5" stroke-linecap="butt" stroke-linejoin="miter" stroke="rgb(100%, 100%, 100%)" stroke-opacity="1" stroke-miterlimit="2" d="M 334.445312 531.105469 L 400 531.105469 "/>
<path fill-rule="nonzero" fill="rgb(85.490197%, 74.901962%, 100%)" fill-opacity="1" d="M 400 465.554688 L 400 400 L 334.445312 400 Z M 400 465.554688 "/>
<path fill="none" stroke-width="0.5" stroke-linecap="butt" stroke-linejoin="miter" stroke="rgb(100%, 100%, 100%)" stroke-opacity="1" stroke-miterlimit="2" d="M 400 465.554688 L 400 400 "/>
<path fill="none" stroke-width="0.5" stroke-linecap="butt" stroke-linejoin="miter" stroke="rgb(100%, 100%, 100%)" stroke-opacity="1" stroke-miterlimit="2" d="M 400 400 L 334.445312 400 "/>
<path fill="none" stroke-width="0.5" stroke-linecap="butt" stroke-linejoin="miter" stroke="rgb(100%, 100%, 100%)" stroke-opacity="1" stroke-miterlimit="2" d="M 334.445312 400 L 400 465.554688 "/>
<path fill-rule="nonzero" fill="rgb(85.490197%, 74.901962%, 100%)" fill-opacity="1" d="M 465.554688 400 L 465.554688 334.445312 L 400 334.445312 Z M 465.554688 400 "/>
<path fill="none" stroke-width="0.5" stroke-linecap="butt" stroke-linejoin="miter" stroke="rgb(100%, 100%, 100%)" stroke-opacity="1" stroke-miterlimit="2" d="M 465.554688 400 L 465.554688 334.445312 "/>
<path fill="none" stroke-width="0.5" stroke-linecap="butt" stroke-linejoin="miter" stroke="rgb(100%, 100%, 100%)" stroke-opacity="1" stroke-miterlimit="2" d="M 465.554688 334.445312 L 400 334.445312 "/>
<path fill="none" stroke-width="0.5" stroke-linecap="butt" stroke-linejoin="miter" stroke="rgb(100%, 100%, 100%)" stroke-opacity="1" stroke-miterlimit="2" d="M 400 334.445312 L 465.554688 400 "/>
<path fill-rule="nonzero" fill="rgb(85.490197%, 74.901962%, 100%)" fill-opacity="1" d="M 400 268.894531 L 400 203.339844 L 334.445312 268.894531 Z M 400 268.894531 "/>
<path fill="none" stroke-width="0.5" stroke-linecap="butt" stroke-linejoin="miter" stroke="rgb(100%, 100%, 100%)" stroke-opacity="1" stroke-miterlimit="2" d="M 400 268.894531 L 400 203.339844 "/>
<path fill="none" stroke-width="0.5" stroke-linecap="butt" stroke-linejoin="miter" stroke="rgb(100%, 100%, 100%)" stroke-opacity="1" stroke-miterlimit="2" d="M 400 203.339844 L 334.445312 268.894531 "/>
<path fill="none" stroke-width="0.5" stroke-linecap="butt" stroke-linejoin="miter" stroke="rgb(100%, 100%, 100%)" stroke-opacity="1" stroke-miterlimit="2" d="M 334.445312 268.894531 L 400 268.894531 "/>
</svg>
